<svg width="130" height="85" viewBox="0 0 130 85" fill="none" xmlns="http://www.w3.org/2000/svg">
<path d="M12.3275 14.4473C15.6201 14.4473 18.2893 11.7748 18.2893 8.47805C18.2893 5.18132 15.6201 2.50879 12.3275 2.50879C9.0349 2.50879 6.36572 5.18132 6.36572 8.47805C6.36572 11.7748 9.0349 14.4473 12.3275 14.4473Z" fill="#C449AB"/>
<path opacity="0.1" d="M12.0523 21.9122C14.7111 27.9254 11.3194 34.8495 7.32708 40.0634C5.99084 41.8118 4.51567 43.6448 4.33042 45.8378C4.10704 48.5205 5.92138 50.9863 8.07352 52.5983C11.9991 55.536 17.3604 56.4443 22.0325 54.9618C26.0698 53.6812 29.4642 50.7885 33.5369 49.6224C40.3475 47.6694 47.5667 50.9072 53.3993 54.9414C57.5279 57.7931 61.9493 61.2681 66.9265 60.6572C70.4285 60.2276 73.4006 57.7658 75.4179 54.8677C76.3918 53.4684 77.239 51.9 78.657 50.9563C79.5002 50.3944 80.4904 50.0971 81.4807 49.8843C90.5238 47.949 100.121 52.672 109.044 50.243C115.072 48.6064 119.877 43.833 122.866 38.3409C125.854 32.8488 127.249 26.6474 128.411 20.5034C129.236 16.1392 129.922 11.4244 128.024 7.4107C126.016 3.16102 121.369 0.584753 116.698 0.101959C112.027 -0.380835 107.343 0.951622 103.04 2.83097C97.664 5.18493 92.394 8.47994 86.526 8.49085C82.5295 8.49903 78.7183 6.96336 74.8976 5.79184C68.5092 3.83475 61.8662 2.86234 55.2463 1.96494C48.9084 1.10573 42.5078 0.306532 36.1317 0.813875C31.6204 1.17256 27.6362 2.89916 23.2584 3.69837C20.4048 4.21935 17.5375 3.83475 14.737 4.7076C11.2881 5.78775 7.74116 8.29036 7.55047 12.2318C7.37067 15.9837 10.6425 18.7223 12.0523 21.9122Z" fill="#C449AB"/>
<path d="M77.3146 25.6707C76.7671 24.2416 75.3552 20.8827 74.4254 21.5491C73.2508 22.3914 75.6001 26.1124 75.6001 26.1124C75.6668 26.7955 74.3459 28.2169 73.6381 28.9256C73.6381 28.8691 73.6381 28.837 73.6381 28.837C73.6313 28.864 73.621 28.8899 73.6073 28.9141L73.5483 28.882C73.5325 28.9386 73.504 28.9909 73.4649 29.0348C73.4649 28.9385 73.4585 28.882 73.4585 28.882C73.3226 29.4585 70.9502 30.1891 70.9502 30.1891C70.9502 30.1891 70.8861 30.1891 70.7758 30.1891C70.1166 30.1891 68.4008 30.0401 67.6057 28.7664C67.1945 28.0764 66.6684 27.4619 66.0502 26.9496C65.8385 26.7835 65.5813 26.6858 65.3129 26.6696C63.1161 26.5284 61.3375 25.4152 60.9823 25.1777L60.9169 25.1327L60.9028 25.1738C60.8194 25.0544 60.7386 24.9273 60.6629 24.7963L60.6245 24.7257C61.7087 24.1807 62.3953 23.072 62.4006 21.8573C62.4006 21.8354 62.4006 21.8123 62.4006 21.7905C62.5938 21.4561 62.6956 21.0765 62.6955 20.6901V20.3049L63.1969 19.8581C63.4265 19.6539 63.6637 19.4382 63.7804 19.157C63.8273 19.0432 63.8483 18.9204 63.842 18.7975C63.8648 18.5834 63.7756 18.3727 63.606 18.2403C63.2213 17.9745 62.5801 18.2403 62.3018 17.8705C62.1736 17.7036 62.1967 17.4763 62.1338 17.2798C62.0056 16.8805 61.5439 16.6648 61.1169 16.6584C60.6899 16.652 60.2808 16.8073 59.8704 16.9242C59.0083 17.1693 58.1085 17.2537 57.2159 17.1733C56.9745 17.1302 56.7266 17.139 56.4888 17.199C56.1942 17.3209 55.9751 17.576 55.8989 17.8859C55.8672 18.0007 55.8483 18.1187 55.8425 18.2377C55.4847 18.6417 55.2868 19.1628 55.2859 19.7027V20.6901C55.2867 21.2172 55.4754 21.7267 55.8181 22.1269C55.9 23.0672 56.3911 23.9239 57.1608 24.4689C57.1608 24.4946 57.1608 24.5207 57.1608 24.5472L57.1774 24.5575C57.1567 24.8636 57.1095 25.1673 57.0364 25.4653V25.3998C57.0364 25.3998 55.2411 26.3564 53.3175 26.3795H53.1059C52.7265 26.3667 52.3575 26.5052 52.08 26.7647C51.5106 27.3014 50.5129 28.1501 49.8999 28.1501C49.7717 28.1501 46.535 28.7831 45.9989 28.8884L44.9974 27.9061L44.9666 27.9639L44.9076 27.9061C44.7981 27.9146 44.6893 27.9305 44.5819 27.9536C44.069 27.345 43.0431 25.9301 42.8058 24.0311C42.8058 24.0311 45.0205 21.5055 44.2062 19.1519C43.5111 17.1463 41.5965 21.4451 41.0528 22.7406C40.9577 22.9667 40.9459 23.2193 41.0195 23.4533L42.8186 29.2595C42.6473 29.7094 42.5982 30.1967 42.6763 30.6718H42.6558L43.9664 32.3551C43.9664 32.3551 44.9525 32.7763 46.4952 32.7686C47.6259 32.7705 48.7464 32.5551 49.7961 32.1343H50.1L50.0423 32.1561H51.6029L52.5955 35.1619C52.5622 35.4354 52.0826 39.2527 51.6978 40.1066C51.5837 40.3919 51.5321 40.6984 51.5465 41.0054C51.5667 41.5952 51.6628 42.18 51.8325 42.7452L52.7019 42.7131L52.6686 42.7811C51.9325 44.2924 50.7027 46.9849 49.9756 49.5015L48.7099 52.0695L49.6589 63.5869H49.6973L49.7704 63.5984C49.873 63.6138 50.0269 63.6369 50.2295 63.6626L50.1551 63.791L48.0636 67.2578C48.0636 67.2578 46.5722 70.315 49.8717 69.7385C49.8717 69.7385 51.0913 69.3841 51.5888 67.2989L53.7586 65.2612C53.7586 65.2612 53.8599 63.9079 53.2457 63.3673C53.2072 62.742 53.1097 60.9162 53.2598 60.4771C53.4406 59.9455 52.4903 53.8324 52.4903 53.8324C52.4903 53.8324 55.9246 46.6999 58.0046 46.5227C58.1571 46.5119 58.3101 46.532 58.4547 46.5817C60.1641 47.139 62.2351 51.2773 62.8443 52.5651L62.8725 52.6242V52.6357L62.8956 52.6858V52.6999L62.9161 52.7436V52.7551L62.934 52.795V52.8039L62.9494 52.836V52.8489L62.961 52.8733V52.8835L62.9687 52.9015V52.9118V52.9234L62.9751 52.9388L63.2457 60.9573L63.2726 60.9714H63.2854L63.2623 61.137L63.1444 61.9652C63.1444 61.9652 64.6358 65.111 64.5447 65.509C64.4537 65.907 65.5386 67.503 67.0748 67.0601C68.6111 66.6171 67.6968 64.1197 67.6968 64.1197L66.2169 61.0664L66.1515 60.9303C66.2989 60.8397 66.438 60.7362 66.567 60.6209C66.567 60.6209 66.1156 57.3428 66.567 56.6341C67.0184 55.9253 67.1544 52.6909 67.1544 52.6909C67.1544 52.6909 66.8376 50.4761 66.2952 49.5015L64.0228 41.3803C64.7037 42.0146 65.2333 42.2624 65.6758 42.2457H65.7489C65.9433 42.2494 66.1353 42.2015 66.3054 42.107C66.3967 42.0554 66.4827 41.9948 66.5619 41.926C66.577 41.9129 66.5912 41.8988 66.6042 41.8836C67.2364 41.3521 65.8809 39.2694 65.1128 38.0317C64.3729 36.8375 65.3924 33.5929 65.4693 33.3515C65.5378 33.3012 65.6112 33.2582 65.6886 33.2231C65.8476 33.1549 66.0183 33.1178 66.1913 33.114C66.9274 33.1397 67.8327 33.5634 68.9535 33.7765C69.7324 33.9092 70.5218 33.9706 71.3118 33.9601H71.358C71.6722 33.9601 71.9569 33.9537 72.1877 33.9447C72.3983 33.9364 72.6043 33.8807 72.7904 33.7817C72.9499 33.6885 73.0943 33.5716 73.2187 33.435L75.1859 31.2098L75.1346 31.2342C75.2299 30.9819 75.2299 30.7033 75.1346 30.451L77.2133 26.8558C77.4259 26.497 77.4632 26.0605 77.3146 25.6707Z" fill="url(#paint0_linear)"/>
<path d="M53.9599 64.957L51.8658 66.9665C51.3862 69.0209 50.2077 69.3688 50.2077 69.3688C47.0235 69.9363 48.4624 66.9292 48.4624 66.9292L50.4821 63.5074L50.7309 63.085C50.7309 63.085 52.171 62.6484 53.1302 62.9104C53.2513 62.9436 53.3632 63.0042 53.4572 63.0875C54.0587 63.6101 53.9599 64.957 53.9599 64.957Z" fill="#444176"/>
<path d="M66.8722 66.7482C65.3885 67.1848 64.3421 65.6132 64.4357 65.219C64.5293 64.8248 63.0802 61.7291 63.0802 61.7291L63.193 60.9125L63.2982 60.1562L65.7347 60.3309L65.9643 60.8137L67.3928 63.8246C67.3928 63.8246 68.3559 66.3117 66.8722 66.7482Z" fill="#444176"/>
<path opacity="0.1" d="M53.4803 63.4292C53.2508 63.8233 51.39 63.6243 50.4834 63.5011L50.7322 63.0786C50.7322 63.0786 52.1723 62.6421 53.1315 62.904C53.2526 62.9372 53.3645 62.9979 53.4585 63.0812C53.4713 63.2943 53.4803 63.4292 53.4803 63.4292Z" fill="black"/>
<path opacity="0.1" d="M65.9668 60.8107C64.7191 61.6427 63.3905 61.0136 63.1905 60.9096L63.2956 60.1533L65.7322 60.3279L65.9668 60.8107Z" fill="black"/>
<path d="M66.3054 56.4403C65.8694 57.1388 66.3054 60.3719 66.3054 60.3719C64.8653 61.6828 63.1649 60.7211 63.1649 60.7211L62.9084 52.8156C62.9084 52.8156 60.0731 46.3071 58.0661 46.4817C56.0592 46.6563 52.7443 53.6887 52.7443 53.6887C52.7443 53.6887 53.6599 59.7158 53.4855 60.2371C53.3111 60.7584 53.4855 63.2942 53.4855 63.2942C53.1803 63.8181 49.9961 63.2942 49.9961 63.2942L49.0805 51.9374L50.2962 49.4028C50.9951 46.9221 52.1826 44.2668 52.893 42.7774C53.2457 42.0365 53.4816 41.5846 53.4816 41.5846L55.8027 41.1005L63.3367 39.5366L66.0438 49.4028C66.567 50.3632 66.8722 52.5473 66.8722 52.5473C66.8722 52.5473 66.7414 55.7418 66.3054 56.4403Z" fill="#565387"/>
<g opacity="0.1">
<path d="M63.8625 60.7209L63.606 52.8154C63.606 52.8154 60.7707 46.3069 58.7637 46.4815C58.674 46.4902 58.5857 46.5101 58.5009 46.5405C60.4578 47.1915 62.9084 52.8154 62.9084 52.8154L63.1649 60.7209C63.6999 60.9938 64.3031 61.1041 64.8999 61.0381C64.5381 60.9945 64.1869 60.8871 63.8625 60.7209Z" fill="black"/>
<path d="M50.6886 63.2979L49.773 51.941L50.9938 49.4025C51.6927 46.9219 52.8802 44.2666 53.5906 42.7772C53.9433 42.0363 54.1792 41.5843 54.1792 41.5843L56.5004 41.1003L63.3778 39.6686L63.3406 39.5312L55.8027 41.1003L53.4816 41.5843C53.4816 41.5843 53.2457 42.0363 52.893 42.7772C52.18 44.2666 50.9951 46.927 50.2962 49.4025L49.0754 51.9359L49.991 63.2927C49.991 63.2927 51.7299 63.5791 52.7609 63.5161C52.0669 63.4784 51.3753 63.4056 50.6886 63.2979Z" fill="black"/>
</g>
<path d="M45.3834 28.1157C45.3834 28.1157 42.8968 28.2441 43.2456 30.8673L43.9433 30.9546L44.9897 29.8196L45.5129 28.8592V28.6409L45.3834 28.1157Z" fill="#CED2DF"/>
<path opacity="0.1" d="M45.3834 28.1157C45.3834 28.1157 42.8968 28.2441 43.2456 30.8673L43.9433 30.9546L44.9897 29.8196L45.5129 28.8592V28.6409L45.3834 28.1157Z" fill="black"/>
<path d="M73.0456 29.0757C73.0456 29.0757 75.0974 30.1671 74.5729 31.4344L73.9189 31.6912L73.0469 31.211L72.9186 30.0759L73.0058 29.2901L73.0456 29.0757Z" fill="#CED2DF"/>
<path opacity="0.1" d="M73.0456 29.0757C73.0456 29.0757 75.0974 30.1671 74.5729 31.4344L73.9189 31.6912L73.0469 31.211L72.9186 30.0759L73.0058 29.2901L73.0456 29.0757Z" fill="black"/>
<rect x="55.4219" y="17.8062" width="7.15439" height="5.41586" rx="2.70793" fill="#88455E"/>
<path d="M45.3667 28.4864L43.8394 30.926L43.7111 30.492L41.6363 23.7228C41.5653 23.4921 41.5766 23.2438 41.6683 23.0205C42.1928 21.7442 44.042 17.4993 44.7127 19.4831C45.4975 21.7943 43.3598 24.2878 43.3598 24.2878C43.6034 26.3113 44.7383 27.7776 45.1846 28.2861C45.2974 28.4184 45.3667 28.4864 45.3667 28.4864Z" fill="#EC8C9C"/>
<path d="M72.7186 29.5345C72.7186 29.5345 75.1179 27.2631 75.0268 26.3464C75.0268 26.3464 72.7583 22.678 73.8932 21.8524C74.7909 21.195 76.1541 24.5077 76.6824 25.9162C76.8238 26.296 76.7905 26.7189 76.5914 27.0718L73.724 32.1551L72.7186 29.5345Z" fill="#EC8C9C"/>
<path d="M57.1877 23.2014C57.1877 23.2014 57.6237 25.9967 56.3593 27.0457C55.0948 28.0947 59.9807 28.0883 59.9807 28.0883L61.726 26.4717C61.726 26.4717 59.7191 24.5933 60.3295 23.1963L57.1877 23.2014Z" fill="#EC8C9C"/>
<path opacity="0.1" d="M57.1005 26.39C57.1005 26.39 58.9766 27.7882 60.8514 26.2153L63.9048 32.5492L63.7304 40.2801C63.7304 40.2801 57.4044 43.5556 54.7871 41.5474C52.1697 39.5393 54.351 38.4903 54.351 38.4903L53.7406 32.5505L54.3946 28.7063C54.3946 28.7063 55.5719 26.8714 55.6604 26.8714C55.7488 26.8714 57.1005 26.39 57.1005 26.39Z" fill="black"/>
<path d="M57.1005 26.3026C57.1005 26.3026 58.9766 27.7034 60.8527 26.1279L63.906 32.4618L63.7316 40.1927C63.7316 40.1927 57.4057 43.4682 54.7883 41.46C52.171 39.4519 54.3523 38.4029 54.3523 38.4029L53.7419 32.4631L54.3959 28.6189C54.3959 28.6189 55.5732 26.784 55.6616 26.784C55.7501 26.784 57.1005 26.3026 57.1005 26.3026Z" fill="#EBF1F6"/>
<path opacity="0.1" d="M57.1005 25.6489C57.1005 25.6489 55.3219 26.6633 53.3906 26.6132C53.0247 26.6017 52.6694 26.7377 52.4044 26.9907C51.8543 27.5197 50.8912 28.3569 50.2949 28.3569C50.1667 28.3569 46.4555 29.099 46.4555 29.099L45.4745 28.1168C45.4745 28.1168 44.0126 30.9775 43.3149 30.8465L44.5806 32.5067C44.5806 32.5067 46.98 33.5544 50.1205 32.2884H51.953L52.9123 35.2583C52.9123 35.2583 52.4327 39.2772 52.0402 40.1503C51.6478 41.0234 52.1685 42.7272 52.1685 42.7272L55.6142 42.5989C55.6142 42.5989 55.7886 40.895 56.0502 40.6729C56.3119 40.4507 55.1346 32.942 55.1346 32.942C55.1346 32.942 54.3498 28.7048 57.2288 27.1769L57.1005 25.6489Z" fill="black"/>
<path opacity="0.1" d="M55.8014 41.1055C55.6745 41.6236 55.5841 42.1501 55.5309 42.6809L52.893 42.7811C53.2457 42.0402 53.4816 41.5882 53.4816 41.5882L55.8014 41.1055Z" fill="black"/>
<path opacity="0.1" d="M45.3667 28.4867L43.8394 30.9263L43.7112 30.4923C44.2716 29.9351 44.9282 28.7705 45.1898 28.2852C45.2975 28.4187 45.3667 28.4867 45.3667 28.4867Z" fill="black"/>
<path d="M57.1005 25.6489C57.1005 25.6489 55.2334 26.6633 53.3034 26.6132C52.9374 26.6017 52.5822 26.7377 52.3172 26.9907C51.7671 27.5197 50.804 28.3569 50.2077 28.3569C50.0795 28.3569 46.3683 29.099 46.3683 29.099L45.3834 28.1155C45.3834 28.1155 43.9215 30.9762 43.2239 30.8452L44.4896 32.5054C44.4896 32.5054 46.8889 33.5532 50.0295 32.2871H51.862L52.8212 35.2557C52.8212 35.2557 52.3416 39.2746 51.9492 40.1477C51.5568 41.0208 52.0774 42.7247 52.0774 42.7247L55.5232 42.5963C55.5232 42.5963 55.6976 40.8924 55.9592 40.6703C56.2208 40.4482 55.0436 32.9394 55.0436 32.9394C55.0436 32.9394 54.2587 28.7022 57.1377 27.1743L57.1005 25.6489Z" fill="#CED2DF"/>
<path opacity="0.1" d="M60.8527 25.3843C60.8527 25.3843 62.6327 26.7427 65.0089 26.8994C65.2689 26.9157 65.5175 27.0121 65.7206 27.1754C66.3199 27.6845 66.8278 28.2925 67.2223 28.973C68.1815 30.5459 70.5372 30.3713 70.5372 30.3713C70.5372 30.3713 72.8276 29.651 72.9584 29.0873C72.9584 29.0873 73.0238 32.1689 74.4639 31.4242L72.5698 33.6095C72.3285 33.8885 71.9828 34.0553 71.6144 34.0705C70.9027 34.0987 69.6665 34.1077 68.6227 33.9048C67.0517 33.5992 65.9181 32.8571 65.0897 33.5119C65.0897 33.5119 63.9997 36.9183 64.7409 38.142C65.4821 39.3656 66.7927 41.4174 66.181 41.9426C65.5693 42.4677 64.8281 42.4228 63.6073 41.1568C62.3864 39.8908 62.2544 37.7504 62.2544 37.7504L62.5596 32.2472C62.5596 32.2472 61.3823 28.0973 60.2513 27.2679L60.8527 25.3843Z" fill="black"/>
<path opacity="0.1" d="M74.637 31.3691L72.7378 33.5634C72.6116 33.709 72.4555 33.8255 72.28 33.9049C72.1241 33.9754 71.956 34.0151 71.785 34.0218C71.0733 34.0513 69.8371 34.0603 68.7932 33.8561C67.3236 33.5698 66.2362 32.9021 65.4232 33.3528C65.3655 33.3846 65.3106 33.4211 65.259 33.462C65.259 33.462 64.169 36.8684 64.9102 38.092C65.6514 39.3157 66.962 41.3675 66.3503 41.8926C66.2479 41.9828 66.133 42.0576 66.0092 42.1147C65.4603 42.3626 64.7794 42.1481 63.7766 41.1068C62.5558 39.8395 62.4237 37.7004 62.4237 37.7004L62.7289 32.1972C62.7289 32.1972 61.5517 28.0474 60.4206 27.2179L60.9194 25.4268C61.2631 25.6604 62.9789 26.7583 65.1 26.8982C65.36 26.9145 65.6086 27.011 65.8117 27.1743C66.4109 27.6834 66.9188 28.2913 67.3134 28.9718C68.2726 30.5447 70.6283 30.3701 70.6283 30.3701C71.1931 30.1897 71.7446 29.9701 72.2788 29.7127C72.6135 29.5484 72.9084 29.3686 73.0482 29.1991C73.0874 29.1548 73.1159 29.1021 73.1315 29.045C73.1315 29.045 73.1982 32.1112 74.637 31.3691Z" fill="black"/>
<path d="M74.5498 31.4128L72.6519 33.6097C72.5475 33.7303 72.4225 33.8311 72.2826 33.9076C72.1034 34.005 71.9042 34.0599 71.7004 34.0681C70.9887 34.0976 69.7524 34.1066 68.7086 33.9024C67.2916 33.6264 66.2285 32.9947 65.427 33.3555C65.3354 33.3954 65.2492 33.4467 65.1705 33.5082C65.1705 33.5082 64.0805 36.9147 64.8217 38.1383C65.5629 39.362 66.8735 41.4138 66.2618 41.9389C66.1827 42.0071 66.0967 42.0669 66.0053 42.1174C65.4411 42.4294 64.7435 42.2458 63.6855 41.1531C62.4647 39.8858 62.3326 37.7467 62.3326 37.7467L62.6378 32.2435C62.6378 32.2435 61.4606 28.0937 60.3295 27.2642L60.8527 25.3857L60.9156 25.4294C61.2593 25.6631 62.9751 26.7609 65.0961 26.9008C65.3561 26.9172 65.6047 27.0136 65.8079 27.1769C66.4071 27.686 66.915 28.294 67.3095 28.9745C68.2687 30.5474 70.6245 30.3728 70.6245 30.3728C71.1892 30.1924 71.7407 29.9727 72.2749 29.7153C72.6711 29.5125 72.9943 29.2903 73.0443 29.0875C73.0443 29.0875 73.0443 29.1273 73.0443 29.1979C73.0828 29.7282 73.2751 32.0689 74.5498 31.4128Z" fill="#CED2DF"/>
<path opacity="0.1" d="M60.368 23.2671H57.162C57.2326 23.7775 57.2527 24.2935 57.2223 24.8079C58.2196 25.5105 59.5229 25.6044 60.6104 25.0518C60.3026 24.4817 60.1154 23.8346 60.368 23.2671Z" fill="black"/>
<path d="M59.1074 25.3406C60.866 25.3406 62.2916 23.9133 62.2916 22.1525C62.2916 20.3917 60.866 18.9644 59.1074 18.9644C57.3489 18.9644 55.9233 20.3917 55.9233 22.1525C55.9233 23.9133 57.3489 25.3406 59.1074 25.3406Z" fill="#EC8C9C"/>
<path opacity="0.1" d="M58.4457 21.5849C58.8009 21.5426 59.1562 21.4167 59.5062 21.4873C59.8243 21.5515 60.0949 21.7711 60.4129 21.8379C61.0259 21.9663 61.5952 21.5143 62.0582 21.0932L63.0584 20.1815C63.2803 19.9799 63.5085 19.7681 63.6227 19.4907C63.7368 19.2134 63.6971 18.8487 63.4534 18.6741C63.0879 18.4173 62.4583 18.6741 62.1941 18.3095C62.0748 18.1451 62.0928 17.9243 62.0312 17.7278C61.903 17.3349 61.4619 17.1205 61.0489 17.1154C60.636 17.1102 60.241 17.2617 59.8461 17.3722C59.014 17.6138 58.144 17.697 57.2813 17.6174C57.0485 17.5747 56.8092 17.583 56.5799 17.6418C56.2936 17.7641 56.0823 18.0152 56.0105 18.3185C55.813 19.0169 56.1503 20.143 56.4888 20.7683C56.8274 21.3936 57.7699 21.6684 58.4457 21.5849Z" fill="black"/>
<path d="M58.4457 21.498C58.8009 21.4556 59.1562 21.3298 59.5062 21.4004C59.8243 21.4646 60.0949 21.6842 60.4129 21.751C61.0259 21.8794 61.5952 21.4274 62.0582 21.0062L63.0584 20.0946C63.2803 19.893 63.5085 19.6812 63.6227 19.4038C63.7368 19.1265 63.6971 18.7618 63.4534 18.5872C63.0879 18.3304 62.4583 18.5872 62.1941 18.2226C62.0748 18.0582 62.0928 17.8374 62.0312 17.6409C61.903 17.248 61.4619 17.0336 61.0489 17.0284C60.636 17.0233 60.241 17.1748 59.8461 17.2852C59.014 17.5269 58.144 17.6101 57.2813 17.5305C57.0485 17.4878 56.8092 17.4961 56.5799 17.5549C56.2936 17.6772 56.0823 17.9283 56.0105 18.2315C55.813 18.93 56.1503 20.0561 56.4888 20.6814C56.8274 21.3067 57.7699 21.575 58.4457 21.498Z" fill="#88455E"/>
<path opacity="0.1" d="M52.8917 35.2788C52.8917 35.2788 53.5893 35.3661 53.9381 35.8027C54.287 36.2392 54.8974 36.3702 54.8974 36.3702" fill="black"/>
<path opacity="0.1" d="M46.607 29.5127C46.607 29.5127 47.1218 30.7851 46.8041 30.9135C46.4864 31.0419 46.607 31.9613 46.607 31.9613" fill="black"/>
<g opacity="0.1">
<path d="M46.8056 29.0758C46.8056 29.0758 50.5129 28.3337 50.6412 28.3337C51.2387 28.3337 52.2005 27.4965 52.7507 26.9675C52.918 26.807 53.1238 26.6925 53.3483 26.6349H53.3008C52.9349 26.6235 52.5796 26.7595 52.3147 27.0124C51.7645 27.5414 50.8015 28.3786 50.2051 28.3786C50.1013 28.3786 47.7289 28.8498 46.7658 29.0411L46.8056 29.0758Z" fill="black"/>
<path d="M57.1056 25.8325V25.6694C56.2138 26.1248 55.254 26.4322 54.2639 26.5798C55.2463 26.4922 56.207 26.2396 57.1056 25.8325Z" fill="black"/>
<path d="M52.5211 42.703C52.5211 42.703 51.9979 40.9991 52.3929 40.126C52.7878 39.2529 53.2649 35.234 53.2649 35.234L52.3082 32.2642H50.4706L50.359 32.3078H51.8658L52.8212 35.279C52.8212 35.279 52.3416 39.2978 51.9492 40.171C51.5568 41.0441 52.0774 42.7479 52.0774 42.7479L55.5231 42.6195V42.5926L52.5211 42.703Z" fill="black"/>
</g>
<g opacity="0.1">
<path d="M66.3054 41.2401C66.2263 41.3083 66.1403 41.3681 66.0489 41.4186C65.4846 41.7306 64.787 41.547 63.7291 40.4543C62.7596 39.449 62.4775 37.8864 62.4018 37.2944L62.3762 37.7464C62.3762 37.7464 62.5044 39.8868 63.7291 41.1528C64.787 42.2493 65.4846 42.4291 66.0489 42.1171C66.1403 42.0666 66.2263 42.0068 66.3054 41.9386C66.4887 41.7807 66.499 41.4841 66.4028 41.1143C66.379 41.1623 66.3459 41.2051 66.3054 41.2401Z" fill="black"/>
<path d="M73.933 31.478L72.698 32.907C72.5937 33.0276 72.4686 33.1285 72.3287 33.2049C72.1495 33.3024 71.9503 33.3573 71.7465 33.3654C71.0348 33.3949 69.7986 33.4039 68.7547 33.1998C67.3377 32.9237 66.2746 32.292 65.4731 32.6528C65.3815 32.6927 65.2954 32.7441 65.2166 32.8056C65.2166 32.8056 64.5126 35.0064 64.6203 36.5048C64.7037 35.1039 65.2166 33.5041 65.2166 33.5041C65.2954 33.4425 65.3815 33.3912 65.4731 33.3513C66.2759 32.9905 67.3377 33.6222 68.7547 33.8983C69.7986 34.1011 71.0335 34.0922 71.7465 34.0639C71.9503 34.0558 72.1495 34.0009 72.3287 33.9034C72.4683 33.8281 72.5934 33.7286 72.698 33.6094L74.5972 31.415C74.398 31.5393 74.152 31.5626 73.933 31.478Z" fill="black"/>
</g>
<path d="M18.1636 47.2061C18.2079 47.2489 18.275 47.2578 18.3288 47.2278C18.273 47.2288 18.2173 47.2215 18.1636 47.2061V47.2061Z" fill="url(#paint1_linear)"/>
<path fill-rule="evenodd" clip-rule="evenodd" d="M31.2324 25.9365C31.0015 25.8696 30.6719 25.7603 30.2757 25.6216C30.6874 25.0913 30.9888 24.4834 31.1618 23.8345L31.1285 23.8472L31.1385 23.8135C31.1466 23.7852 31.1545 23.7573 31.1618 23.728C30.4014 24.0371 29.5601 23.5137 29.0241 22.8408C28.7918 22.5493 28.5923 22.2275 28.3929 21.9058C28.1323 21.4854 27.8719 21.0654 27.5391 20.7144C27.4004 20.5747 27.2557 20.4414 27.1056 20.3145C26.9908 20.2178 26.8727 20.1245 26.7517 20.0352C26.6744 19.978 26.5945 19.917 26.5109 19.8667C26.4074 19.8047 26.2982 19.7588 26.181 19.7554C25.8386 19.7451 25.5706 20.0815 25.2411 20.1802C25.0242 20.229 24.7984 20.2207 24.5858 20.1558C24.1035 20.0449 23.632 19.8809 23.1556 19.7422C22.7923 19.6367 22.4262 19.5459 22.0505 19.5049C21.8467 19.4795 21.6415 19.4756 21.4382 19.4927C21.1783 19.5146 20.9214 19.5703 20.6745 19.6602C20.3921 19.7676 20.2092 19.9438 20.0195 20.1265C19.9164 20.2261 19.8113 20.3271 19.6871 20.4204C19.3792 20.6475 18.8361 20.689 18.4022 20.7217C18.294 20.73 18.1926 20.7378 18.1033 20.7476C17.5602 20.8101 17.0134 20.8325 16.467 20.8159C16.153 20.7886 15.8369 20.8003 15.5258 20.8506C14.8756 20.9932 14.3536 21.5103 13.8663 22.0059C13.7997 22.062 13.7425 22.1279 13.6962 22.2007C13.65 22.2729 13.6147 22.3521 13.5919 22.436L13.5881 22.4775L13.5873 22.5112C13.5875 22.5337 13.589 22.5562 13.5919 22.5786C13.59 22.6309 13.5925 22.6831 13.5993 22.7354C13.6093 22.8115 13.6288 22.8862 13.6573 22.9575C13.8073 23.4033 14.0193 23.8257 14.287 24.2119C14.4858 24.4971 14.7178 24.7651 14.8307 25.103C14.8842 25.269 14.9123 25.4424 14.9141 25.6167C14.9085 25.8018 14.8892 25.9863 14.8564 26.1689C14.7703 26.6729 14.6288 27.166 14.4344 27.6392C14.3138 27.8818 14.2308 28.1416 14.1882 28.4092C14.1846 28.4639 14.1846 28.519 14.1882 28.5737C14.1705 29.0425 14.4242 29.4385 14.6824 29.8418C14.8906 30.167 15.1018 30.4971 15.1757 30.873C15.1806 30.8984 15.1848 30.9243 15.1883 30.9502C15.1923 30.98 15.1954 31.0098 15.1975 31.0396L15.2 31.085C15.1821 31.6104 14.8833 32.124 14.4421 32.3281L14.5115 32.353L14.5601 32.3691C14.5222 32.3931 14.4828 32.4146 14.4421 32.4331C14.5229 32.4644 14.605 32.4912 14.6884 32.5127C14.187 32.9502 13.7656 33.4717 13.4432 34.0537C11.9595 36.8193 1.91077 42.2368 1.91077 42.2368L2.05951 42.3213L1.93896 42.3994C1.06952 42.9785 -0.970764 44.667 0.873291 46.8022C0.873291 46.8022 2.31342 44.5273 3.32263 43.5576L3.39264 43.4917L3.45087 43.437C3.47198 43.4697 3.48627 43.5054 3.49335 43.543C3.50128 43.585 3.50012 43.6284 3.48938 43.6709L10.0962 39.9536C10.0962 39.9536 12.4442 38.3076 13.0995 37.9365C13.5607 37.6489 14.0626 37.4321 14.5883 37.2944L14.5114 37.3267C14.573 37.3096 14.6351 37.2944 14.6975 37.2817C14.8855 37.2427 15.077 37.2212 15.2693 37.2188C16.4388 37.2368 17.7058 38.0942 18.1226 41.4907C18.6817 46.0386 18.4227 46.8589 18.2431 46.9707C18.221 46.9692 18.1991 46.9653 18.1777 46.959L18.1851 46.9648L18.1957 46.9722C18.1713 46.9702 18.1473 46.9658 18.1238 46.959C18.1501 46.9834 18.187 46.9922 18.2213 46.9824C18.236 46.9868 18.2513 46.9873 18.2661 46.9844C18.2759 46.9824 18.2855 46.9785 18.2944 46.9731C18.3239 46.9751 18.3535 46.9751 18.3829 46.9731C18.3829 47.0005 18.3816 47.0278 18.3791 47.0562L18.3739 47.1016C18.3649 47.1016 18.3214 47.126 18.3739 47.1284C18.3649 47.292 18.3622 47.4648 18.3647 47.644C18.3661 47.7461 18.3693 47.8501 18.3739 47.9556C17.793 47.9878 17.2121 48.0225 16.7068 48.0532L16.7517 47.813L16.7722 47.7051C17.2185 47.6689 17.6417 47.5381 17.6917 47.1763C17.8007 46.3799 16.7094 45.9551 15.7809 45.9023C14.8525 45.8496 9.28442 46.2207 9.28442 46.2207C9.28442 46.2207 8.44958 47.3032 11.0977 47.6333L11.3427 47.7617C12.3801 48.3535 13.7869 49.4434 14.4614 49.9805L14.555 50.0547L14.2524 50.3013C15.6658 50.6216 17.0391 55.333 17.9501 58.459L17.9556 58.478C18.0978 58.9663 18.2289 59.4155 18.347 59.8027C19.2203 62.6675 21.131 62.5635 22.7148 62.1382C24.1885 61.7427 24.3794 57.4839 24.4057 56.8955L24.4062 56.8843V56.8291L27.0453 60.0928L27.2454 60.3408C27.3224 60.3809 27.3984 60.4189 27.4737 60.4536C29.4716 61.4053 31.6786 59.5806 31.0515 57.5005C30.4167 55.4038 29.4319 52.3032 28.7753 50.9922C28.2252 49.894 27.5147 48.0708 27.0839 46.9297C27.1398 46.9072 27.1942 46.8809 27.2467 46.8511L27.239 46.8105L27.2198 46.7061L27.2467 46.6919C27.2467 46.6919 26.6055 43.3896 26.5773 41.0425V40.9141V40.8384C26.698 40.8105 26.8075 40.7871 26.9037 40.7676C26.967 40.7549 27.0245 40.7437 27.0758 40.7344C27.2549 40.7012 27.357 40.687 27.357 40.687L27.366 40.584L27.3109 40.5957L27.5763 37.5537C27.5763 37.5537 28.5509 35.4775 27.8046 34.6138C27.702 34.4995 27.6147 34.373 27.5446 34.2378C27.4596 34.0742 27.3995 33.8979 27.3672 33.7148C27.239 32.9199 27.3672 31.5938 29.1049 30.4917C31.7799 28.7935 32.8238 27.4102 32.8238 27.4102C32.8238 27.4102 32.8699 26.4189 31.2324 25.9365ZM25.9194 28.0469V26.6411L26.0314 26.6367C26.2301 26.6313 26.4302 26.6372 26.6306 26.6431C26.8945 26.6509 27.1588 26.6587 27.4211 26.6411C27.666 26.624 27.9086 26.583 28.1456 26.519L28.2662 26.6025C27.5364 27.1646 26.7498 27.6489 25.9194 28.0469ZM18.5767 50.2559C18.4958 50.1982 18.4149 50.1416 18.3342 50.0854C18.6596 50.6035 18.9349 51.1519 19.1562 51.7227C19.1485 51.688 19.0421 51.1987 18.9215 50.5054C18.8076 50.4214 18.6923 50.3379 18.5767 50.2559Z" fill="url(#paint2_linear)"/>
<path d="M22.5737 48.9302L22.4583 49.558L22.3698 50.0383L22.2083 50.9165L20.6412 52.0143C20.6412 52.0143 20.5001 51.8936 20.2667 51.7023C19.6255 51.1733 18.2752 50.0999 17.2839 49.5195C17.0292 49.3567 16.7535 49.2292 16.4645 49.1407L22.5737 48.9302Z" fill="#FFBDC6"/>
<path opacity="0.1" d="M22.5737 48.9302L22.4583 49.558C22.1129 49.5773 21.7664 49.5596 21.4247 49.5054L17.7687 49.558C17.5955 49.5478 17.434 49.5337 17.2826 49.5182C17.0279 49.3554 16.7522 49.228 16.4632 49.1395L22.5737 48.9302Z" fill="black"/>
<path d="M21.4247 49.4025C21.4247 49.4025 23.2534 49.7158 23.3573 48.9313C23.4611 48.1468 22.4173 47.7333 21.5312 47.6743C20.645 47.6152 15.3142 47.9901 15.3142 47.9901C15.3142 47.9901 14.3742 49.2446 17.7687 49.4539L21.4247 49.4025Z" fill="#7679B4"/>
<path opacity="0.1" d="M22.5737 48.9302L22.4583 49.558L22.3698 50.0383L22.2083 50.9165L20.6412 52.0143C20.6412 52.0143 20.5001 51.8936 20.2667 51.7023C19.6255 51.1733 18.2752 50.0999 17.2839 49.5195C17.0292 49.3567 16.7535 49.2292 16.4645 49.1407L22.5737 48.9302Z" fill="black"/>
<path opacity="0.1" d="M22.5737 48.9302L22.4583 49.558C22.1129 49.5773 21.7664 49.5596 21.4247 49.5054L17.7687 49.558C17.5955 49.5478 17.434 49.5337 17.2826 49.5182C17.0279 49.3554 16.7522 49.228 16.4632 49.1395L22.5737 48.9302Z" fill="black"/>
<path opacity="0.1" d="M21.4247 49.4025C21.4247 49.4025 23.2534 49.7158 23.3573 48.9313C23.4611 48.1468 22.4173 47.7333 21.5312 47.6743C20.645 47.6152 15.3142 47.9901 15.3142 47.9901C15.3142 47.9901 14.3742 49.2446 17.7687 49.4539L21.4247 49.4025Z" fill="black"/>
<rect x="15.8618" y="23.6191" width="9.55757" height="11.3479" fill="#A66477"/>
<rect opacity="0.1" x="15.8618" y="23.6191" width="9.55757" height="11.3479" fill="black"/>
<path d="M4.65888 43.0469C4.50115 43.0867 4.3011 43.2383 4.07668 43.4591C3.11105 44.4144 1.73377 46.6549 1.73377 46.6549C-0.0307806 44.5518 1.92228 42.889 2.75968 42.3176C2.96229 42.179 3.09822 42.1045 3.09822 42.1045L4.65888 43.0469Z" fill="#FFBDC6"/>
<path d="M22.4698 27.2012C22.4698 27.2012 22.9404 30.4959 24.5588 31.2804C26.1772 32.0649 22.4698 33.5287 22.4698 33.5287L17.4031 31.6463C17.4031 31.6463 20.2757 30.7052 19.7012 27.933L22.4698 27.2012Z" fill="#FFBDC6"/>
<path d="M17.0428 47.021L16.9274 47.6489L16.8389 48.1291L16.6774 49.0073L15.1103 50.1051C15.1103 50.1051 14.9692 49.9844 14.7358 49.7931C14.0947 49.2641 12.7443 48.1907 11.753 47.6103C11.4983 47.4475 11.2226 47.3201 10.9336 47.2316L17.0428 47.021Z" fill="#FFBDC6"/>
<path opacity="0.1" d="M17.0428 47.021L16.9274 47.6489C16.582 47.6681 16.2355 47.6505 15.8938 47.5962L12.2377 47.6489C12.0646 47.6386 11.903 47.6245 11.7517 47.6091C11.497 47.4462 11.2213 47.3188 10.9323 47.2303L17.0428 47.021Z" fill="black"/>
<path d="M15.8886 47.4924C15.8886 47.4924 17.7173 47.8056 17.8212 47.0211C17.9251 46.2366 16.8812 45.818 15.9925 45.7667C15.1038 45.7153 9.77683 46.08 9.77683 46.08C9.77683 46.08 8.83684 47.3344 12.2313 47.5437L15.8886 47.4924Z" fill="#7679B4"/>
<path opacity="0.1" d="M16.8338 48.1305L16.6722 49.0087L15.1052 50.1066C15.1052 50.1066 14.9641 49.9859 14.7307 49.7945L16.803 48.0933L16.8338 48.1305Z" fill="black"/>
<path d="M27.1736 60.1023C27.1018 60.0672 27.0291 60.03 26.9556 59.9906L26.7645 59.7467L24.2408 56.5367V56.5932C24.2241 57.126 24.042 61.376 22.6237 61.7677C21.1092 62.1862 19.2806 62.2902 18.4457 59.4668C17.6109 56.6433 16.0951 50.4724 14.5281 50.1065L16.8517 48.1972C16.8517 48.1972 18.3906 49.9948 19.019 51.7256C18.9959 51.6152 17.9328 46.6448 18.8099 45.7666H26.435C26.435 45.7666 27.6096 49.1229 28.4201 50.787C29.0485 52.0787 29.991 55.132 30.6001 57.1979C31.2029 59.2421 29.0972 61.0396 27.1736 60.1023Z" fill="#7679B4"/>
<path opacity="0.1" d="M26.9607 46.7064C25.7848 47.4036 20.6142 47.1199 18.9292 47.0069L18.4714 46.9735C18.4214 46.9735 18.4791 46.9452 18.4791 46.9452L18.5265 46.4702L19.7794 43.2807L26.4914 39.3877C26.3554 39.7973 26.3093 40.4252 26.3208 41.1455C26.3542 43.4541 26.9607 46.7064 26.9607 46.7064Z" fill="black"/>
<path d="M26.9608 46.551C25.7848 47.2482 20.6143 46.9645 18.9292 46.8515L18.4714 46.8181H18.3958L18.4791 46.7963L18.892 46.6871L19.7794 43.1305L26.4914 39.2349C26.3555 39.6445 26.3093 40.2723 26.3209 40.9926C26.3542 43.2974 26.9608 46.551 26.9608 46.551Z" fill="#F2F1F2"/>
<path opacity="0.1" d="M26.3208 40.9873C24.9564 41.3019 21.953 42.2277 20.7989 44.4541C20.0295 45.941 19.3883 46.5791 18.9305 46.8462L18.4727 46.8128L18.4804 46.7845L18.8933 46.6754L19.7807 43.1188L26.4927 39.2231C26.3542 39.6443 26.3093 40.267 26.3208 40.9873Z" fill="black"/>
<path opacity="0.1" d="M3.09184 42.106L4.65891 43.0471C4.50118 43.0869 4.30113 43.2384 4.07671 43.4593C3.94847 43.0741 3.12519 42.5451 2.7533 42.3191C2.95591 42.1804 3.09184 42.106 3.09184 42.106Z" fill="black"/>
<path opacity="0.1" d="M18.2428 46.8842C18.192 46.9125 18.1287 46.9044 18.0867 46.8643C18.1374 46.8786 18.19 46.8853 18.2428 46.8842Z" fill="black"/>
<path d="M21.7376 31.0713C21.7376 31.0713 20.327 31.2279 19.3344 30.1827C19.3344 30.1827 15.1564 31.3858 13.7458 34.1053C12.3352 36.8248 2.72504 42.1585 2.72504 42.1585C2.72504 42.1585 4.39213 43.0997 4.23953 43.5709L10.5591 39.9102C10.5591 39.9102 12.8045 38.2886 13.4316 37.9226C14.0587 37.5567 17.5057 35.3084 18.2367 41.4266C18.9676 47.5448 18.2367 46.8194 18.2367 46.8194C18.2367 46.8194 19.2818 47.1853 20.8015 44.2514C22.3211 41.3175 27.0171 40.6434 27.0171 40.6434L27.2736 37.5618C27.2736 37.5618 28.2059 35.5177 27.4916 34.6651C27.2738 34.4143 27.1292 34.1082 27.0736 33.7805C26.9543 32.9972 27.0736 31.6914 28.7407 30.6065C31.3054 28.9373 32.2928 27.5737 32.2928 27.5737C32.2928 27.5737 32.3454 26.5799 30.7784 26.1099C29.2113 25.64 22.8391 23.0771 22.8391 23.0771L22.6301 23.9657L27.6442 27.5223C27.6442 27.5223 25.1372 29.5613 23.1559 29.5099C23.1482 29.5009 23.5137 31.0186 21.7376 31.0713Z" fill="#565388"/>
<path opacity="0.1" d="M22.7058 28.6356C22.5823 28.2142 22.4859 27.7853 22.4172 27.3516L19.6486 28.0886C19.7698 28.6176 19.7481 29.1693 19.5858 29.6871C20.7426 29.9962 21.9718 29.5814 22.7058 28.6343V28.6356Z" fill="black"/>
<path d="M20.4065 29.6333C22.051 29.6333 23.3842 28.2984 23.3842 26.6518C23.3842 25.0052 22.051 23.6704 20.4065 23.6704C18.762 23.6704 17.4288 25.0052 17.4288 26.6518C17.4288 28.2984 18.762 29.6333 20.4065 29.6333Z" fill="#FFBDC6"/>
<path opacity="0.1" d="M21.9889 19.871C22.8148 19.9647 23.6009 20.3204 24.4139 20.513C24.6171 20.5768 24.8335 20.5852 25.041 20.5374C25.3565 20.4398 25.6129 20.1085 25.9387 20.1188C26.14 20.1188 26.3234 20.2626 26.485 20.3949C26.7526 20.5982 27.0043 20.8219 27.2377 21.0638C27.7981 21.6737 28.1469 22.4955 28.6586 23.158C29.1703 23.8206 29.9769 24.3367 30.704 24.0324C30.2103 25.9584 28.5893 27.4311 26.8376 27.5505C26.1387 27.5981 25.427 27.453 24.746 27.6584C24.5773 27.7273 24.3992 27.7706 24.2177 27.7868C23.833 27.7868 23.515 27.4286 23.2713 27.0806C22.7019 26.2614 22.2454 25.3318 21.6042 24.5858C21.3926 24.3393 21.1426 24.1043 20.8438 24.0594C20.545 24.0144 20.2693 24.157 20.0025 24.2956C19.5627 24.5242 19.1126 24.7604 18.7714 25.1508C18.4303 25.5411 18.2149 26.1253 18.356 26.6543C18.4316 26.9394 18.606 27.1962 18.6124 27.4953C18.6124 27.9704 18.1995 28.3184 18.1161 28.7793C18.0978 28.9739 18.0909 29.1694 18.0956 29.3648C18.0584 29.9991 17.6455 30.5204 17.2121 30.9172C17.0441 31.0725 16.8568 31.2382 16.8081 31.4783C16.7748 31.6413 16.8081 31.8147 16.7863 31.9803C16.7235 32.3925 16.3131 32.6005 15.9502 32.6544C15.5264 32.7166 15.0936 32.6652 14.696 32.5055C15.209 32.2653 15.5155 31.581 15.3975 30.9647C15.2359 30.116 14.3844 29.5073 14.4562 28.6419C14.4964 28.3769 14.5759 28.1194 14.6922 27.878C14.878 27.4111 15.013 26.9255 15.0949 26.4296C15.1788 26.048 15.1704 25.6518 15.0705 25.274C14.9615 24.9415 14.7396 24.677 14.5498 24.3958C14.2928 24.0135 14.09 23.5974 13.9471 23.1593C13.8954 23.0298 13.8756 22.8898 13.8894 22.751C13.9308 22.5873 14.0201 22.4397 14.1459 22.3273C14.6127 21.8381 15.1128 21.3283 15.7335 21.1871C16.03 21.1376 16.3317 21.126 16.6312 21.1524C17.154 21.1691 17.6774 21.1468 18.1969 21.0857C18.6252 21.0356 19.3511 21.042 19.7127 20.7621C20.05 20.5053 20.241 20.1779 20.6578 20.0135C21.0832 19.8576 21.5403 19.8087 21.9889 19.871Z" fill="black"/>
<path opacity="0.1" d="M23.6445 50.6558C23.6445 50.6558 25.368 54.0545 24.8461 55.1009L23.6445 50.6558Z" fill="black"/>
<path opacity="0.1" d="M26.7697 59.7465L24.2459 56.5366V56.5931C24.2459 56.5931 24.0997 55.5556 24.5806 55.9049C25.6335 56.6675 27.3185 57.9181 27.3544 58.1339C27.3903 58.3496 27.0133 59.215 26.7697 59.7465Z" fill="black"/>
<g opacity="0.1">
<path d="M23.1982 29.5009C23.1982 29.5009 23.4111 30.3843 22.7225 30.8259C23.783 30.6436 23.8292 29.818 23.7971 29.4585C23.5992 29.4906 23.3987 29.5048 23.1982 29.5009Z" fill="black"/>
<path d="M3.35344 41.949C3.35344 41.949 12.9636 36.6153 14.3742 33.8958C15.386 31.9442 17.8238 30.7744 19.119 30.2686C18.1739 30.5857 14.9936 31.8016 13.7984 34.1051C12.3878 36.8246 2.77765 42.1583 2.77765 42.1583L3.35344 41.949Z" fill="black"/>
<path d="M25.068 29.0864C26.703 28.5728 28.2662 27.3055 28.2662 27.3055L23.2521 23.7489L23.3662 23.261L22.8866 23.0684L22.6776 23.9569L27.6917 27.5135C26.8871 28.1468 26.0055 28.6753 25.068 29.0864Z" fill="black"/>
<path d="M25.1 41.136C25.7407 40.9177 26.3981 40.7521 27.0659 40.6407L27.0748 40.5396C26.4021 40.6871 25.7418 40.8865 25.1 41.136Z" fill="black"/>
<path d="M19.0228 46.6165H18.9766C18.9408 46.6365 18.896 46.6308 18.8664 46.6024C18.9022 46.6124 18.9394 46.6172 18.9766 46.6165C19.1485 46.5163 19.4062 45.7357 18.8664 41.216C18.2893 36.3908 16.0246 36.7696 14.7845 37.3243C16.0515 36.975 17.7956 37.2768 18.2919 41.4253C18.8317 45.945 18.574 46.7269 18.4021 46.8258C18.6249 46.8175 18.8404 46.7448 19.0228 46.6165Z" fill="black"/>
<path d="M18.448 46.833C18.3952 46.8339 18.3427 46.8272 18.2919 46.813C18.3339 46.8532 18.3972 46.8613 18.448 46.833Z" fill="black"/>
</g>
<path d="M21.9889 19.7694C22.8148 19.8632 23.6009 20.2188 24.4139 20.4114C24.6171 20.4752 24.8335 20.4837 25.041 20.4358C25.3565 20.3383 25.6129 20.007 25.9387 20.0173C26.14 20.0173 26.3234 20.1611 26.485 20.2933C26.7526 20.4967 27.0043 20.7203 27.2377 20.9623C27.7981 21.5722 28.1469 22.3939 28.6586 23.0565C29.1703 23.719 29.9769 24.2352 30.704 23.9309C30.2103 25.8568 28.5893 27.3296 26.8376 27.449C26.1387 27.4965 25.427 27.3514 24.746 27.5568C24.5773 27.6257 24.3992 27.669 24.2177 27.6852C23.833 27.6852 23.515 27.327 23.2713 26.979C22.7019 26.1599 22.2454 25.2302 21.6042 24.4843C21.3926 24.2377 21.1426 24.0028 20.8438 23.9578C20.545 23.9129 20.2693 24.0554 20.0025 24.1941C19.5627 24.4226 19.1126 24.6589 18.7714 25.0492C18.4303 25.4395 18.2149 26.0238 18.356 26.5528C18.4316 26.8378 18.606 27.0946 18.6124 27.3938C18.6124 27.8688 18.1995 28.2168 18.1161 28.6778C18.0978 28.8723 18.0909 29.0679 18.0956 29.2633C18.0584 29.8975 17.6455 30.4188 17.2121 30.8156C17.0441 30.971 16.8568 31.1366 16.8081 31.3767C16.7748 31.5398 16.8081 31.7131 16.7863 31.8787C16.7235 32.2909 16.3131 32.4989 15.9502 32.5528C15.5264 32.615 15.0936 32.5636 14.696 32.4039C15.209 32.1638 15.5155 31.4794 15.3975 30.8631C15.2359 30.0144 14.3844 29.4058 14.4562 28.5404C14.4964 28.2754 14.5759 28.0178 14.6922 27.7764C14.878 27.3095 15.013 26.8239 15.0949 26.3281C15.1788 25.9464 15.1704 25.5502 15.0705 25.1725C14.9615 24.8399 14.7396 24.5754 14.5498 24.2942C14.2928 23.9119 14.09 23.4958 13.9471 23.0577C13.8954 22.9283 13.8756 22.7882 13.8894 22.6494C13.9308 22.4857 14.0201 22.3382 14.1459 22.2257C14.6127 21.7365 15.1128 21.2268 15.7335 21.0855C16.03 21.0361 16.3317 21.0244 16.6312 21.0509C17.154 21.0675 17.6774 21.0452 18.1969 20.9841C18.6252 20.934 19.3511 20.9404 19.7127 20.6605C20.05 20.4037 20.241 20.0763 20.6578 19.912C21.0832 19.7561 21.5403 19.7071 21.9889 19.7694Z" fill="#A66477"/>
<path fill-rule="evenodd" clip-rule="evenodd" d="M107.015 13.0298V13.0776C107.149 14.4321 105.814 18.8877 105.772 18.9028C105.772 19.5938 105.017 20.6582 105.017 20.6582C105.017 20.6582 101.886 25.3896 101.185 26.0317C101.159 26.0547 101.136 26.0791 101.113 26.1035L101.093 26.1265L101.048 26.1807L101.027 26.2075L100.985 26.2681L100.971 26.2896L100.938 26.3438L100.922 26.373L100.913 26.3926C100.901 26.4155 100.89 26.4385 100.88 26.4619L100.867 26.4927L100.841 26.5542L100.83 26.5835C100.82 26.6084 100.812 26.6338 100.804 26.6597V26.6748C100.794 26.7056 100.786 26.7363 100.778 26.7671V26.7915C100.773 26.8149 100.763 26.8379 100.763 26.8608V26.8906C100.755 26.9146 100.751 26.938 100.751 26.9614V26.9844C100.742 27.041 100.732 27.1089 100.732 27.1694V27.187V27.2617V27.2769V27.5337C100.738 27.6724 100.754 27.8101 100.78 27.9458C100.955 28.2729 101.079 28.6245 101.149 28.9888C101.16 29.0479 101.169 29.1064 101.177 29.1646C101.359 30.5078 100.726 31.645 100.386 32.1436C100.342 32.2075 100.304 32.2603 100.272 32.3027L100.244 32.3384L100.22 32.3682L100.21 32.3809V32.3887L100.2 32.4004C99.6062 33.0396 100.2 39.0513 100.2 39.0513C100.123 39.1099 100.039 39.1587 99.9499 39.1963L99.951 39.2119C99.9557 39.2749 99.9606 39.3389 99.9666 39.4019C100.055 40.2661 100.249 41.1162 100.545 41.9326L100.623 42.1245L100.824 42.6221L100.846 42.6685C101.567 44.457 103.392 49.0459 104.033 51.2876C104.842 54.1074 103.332 54.9585 103.332 54.9585L96.9633 57.4058C96.1643 57.3311 95.1271 58.1577 94.5558 58.6133C94.4513 58.6968 94.3624 58.7676 94.2933 58.8184C93.6778 59.9419 92.498 61.9102 91.7286 61.9858C90.6514 62.0884 90.9758 59.5859 90.9758 59.5859C90.9758 59.5859 91.7529 56.9023 92.1864 55.8623C90.2667 55.8677 88.4354 55.8457 88.0084 55.752C87.2287 55.5811 86.24 55.9243 85.8809 56.0664C85.8468 56.0801 85.8185 56.0928 85.7966 56.1025C85.769 56.1152 85.7514 56.123 85.745 56.123L85.7347 56.1167C85.5398 56.4595 85.2846 56.8154 85.0435 56.8677C84.5588 56.9746 82.8314 59.3691 82.8314 59.3691C81.3734 60.1152 81.8055 57.2417 81.8055 57.2417C81.8055 57.2417 82.6147 53.6836 83.7484 52.6191C84.6537 51.769 85.3244 52.3545 85.5513 52.6191C86.1874 52.6025 88.9689 52.5034 89.6844 52.3623C90.4924 52.2031 94.5959 51.9897 94.5959 51.9897C94.5959 51.9897 94.2715 50.0278 92.1133 45.0205C90.6462 41.623 91.7196 39.625 92.5596 38.6929C92.616 38.6299 92.6711 38.5723 92.725 38.5195H92.7122H92.6865H92.6686H92.6467H92.6301H92.6134H92.5878H92.575H92.5609H92.5519H92.5378C93.6714 37.6685 93.0238 32.8267 93.0238 32.8267C93.0238 32.8267 91.0874 29.8462 91.0335 28.7295C90.9797 27.6123 86.5542 22.0254 86.5542 22.0254C85.9604 21.707 85.3128 20.5361 85.3128 20.5361L81.7504 14.418C81.7889 14.4312 81.829 14.4385 81.8693 14.4399C81.9059 14.4409 81.9427 14.437 81.9786 14.4282L81.8504 14.2715C80.9502 13.1392 78.8804 10.2979 80.3436 9.78906C81.8068 9.28076 82.9609 12.0527 83.3688 13.1968C83.3875 13.2476 83.4049 13.2983 83.4204 13.3452L83.4367 13.3945C83.5585 13.2754 83.6342 13.1943 83.6342 13.1943L86.8286 18.6743C86.9671 19.1763 88.161 20.5117 89.2651 21.6675C89.319 21.1562 89.6216 20.626 89.9371 20.1909C90.4167 19.5283 90.9643 18.749 90.7181 17.9722C90.6724 17.8218 90.5959 17.6792 90.5257 17.5361C90.4461 17.3735 90.3743 17.21 90.3641 17.0322C90.3308 16.4224 91.0181 16.0024 91.6362 15.9551C92.1873 15.9146 92.7194 16.0024 93.248 16.0898C93.8094 16.1826 94.3671 16.2744 94.9396 16.2114C95.9207 16.105 97.0068 15.666 97.9571 16.1318C98.1228 16.2119 98.2867 16.3203 98.4503 16.4287C98.8566 16.6973 99.2614 16.9644 99.6883 16.7959C99.6832 16.8389 99.6759 16.8818 99.6665 16.9243C99.6921 16.9175 99.7174 16.9092 99.7422 16.8999C99.6614 17.6294 98.9702 18.1709 98.2571 18.3994L98.1392 18.4355L98.3085 20.5132C98.3113 20.6821 98.3443 20.8496 98.4059 21.0073C98.4657 21.1206 98.5439 21.1685 98.6224 21.2173C98.6685 21.2456 98.7147 21.2739 98.7573 21.3154C98.9932 21.543 99.0574 22.1089 98.9932 22.5762C98.948 22.9062 98.8562 23.2007 98.761 23.4932C98.7213 23.6152 98.681 23.7368 98.6432 23.8604L98.6213 23.9336C98.788 23.8862 98.9741 23.8359 99.1827 23.7832C99.3176 23.749 99.4619 23.7134 99.6165 23.6768C101.197 23.2915 102.475 20.4971 103.043 19.2544C103.191 18.9316 103.291 18.7134 103.335 18.6694C103.552 18.4561 105.387 12.9761 105.387 12.9761L105.409 12.9902L105.369 12.9233C104.926 12.1836 104.055 10.5405 104.632 9.89062C105.291 9.15088 106.935 11.6841 106.986 12.8745V12.981H107.007C107.015 12.9966 107.015 13.0146 107.015 13.0298ZM98.3867 50.2808C98.4572 51.2153 98.5341 52.1196 98.6111 52.8486C99.4921 52.7666 99.6075 52.186 99.6075 52.186L98.3867 50.2808Z" fill="url(#paint3_linear)"/>
<path d="M85.8822 52.4458C85.8822 52.4458 85.1512 51.2902 84.0535 52.3418C82.9558 53.3933 82.1736 56.8909 82.1736 56.8909C82.1736 56.8909 81.7555 59.7157 83.1661 58.9825C83.1661 58.9825 84.8332 56.629 85.3077 56.525C85.7822 56.421 86.3003 55.1126 86.3003 55.1126L85.8822 52.4458Z" fill="#493545"/>
<path d="M93.7162 55.2694C93.7162 55.2694 92.7237 54.7982 92.4108 55.1654C92.0979 55.5326 91.0527 59.192 91.0527 59.192C91.0527 59.192 90.7398 61.5982 91.7837 61.4929C92.8276 61.3876 94.6562 57.6204 94.6562 57.6204L93.7162 55.2694Z" fill="#493545"/>
<path opacity="0.05" d="M93.7162 55.2694C93.7162 55.2694 92.7237 54.7982 92.4108 55.1654C92.0979 55.5326 91.0527 59.192 91.0527 59.192C91.0527 59.192 90.7398 61.5982 91.7837 61.4929C92.8276 61.3876 94.6562 57.6204 94.6562 57.6204L93.7162 55.2694Z" fill="black"/>
<path d="M97.1633 48.1573L99.4087 51.6613C99.4087 51.6613 99.2523 52.4458 97.8942 52.2892L93.2456 55.2179C93.2456 55.2179 92.8417 58.7836 94.133 58.46C94.3421 58.4074 95.8001 56.891 96.8491 56.9963L103.014 54.5901C103.014 54.5901 104.475 53.7529 103.692 50.9821C102.908 48.2112 100.318 41.7861 100.318 41.7861L96.2233 44.0793L97.1633 48.1573Z" fill="#3E3D77"/>
<path opacity="0.05" d="M97.1633 48.1573L99.4087 51.6613C99.4087 51.6613 99.2523 52.4458 97.8942 52.2892L93.2456 55.2179C93.2456 55.2179 92.8417 58.7836 94.133 58.46C94.3421 58.4074 95.8001 56.891 96.8491 56.9963L103.014 54.5901C103.014 54.5901 104.475 53.7529 103.692 50.9821C102.908 48.2112 100.318 41.7861 100.318 41.7861L96.2233 44.0793L97.1633 48.1573Z" fill="black"/>
<path d="M98.5739 53.3342C98.8868 55.3218 97.112 55.4785 97.112 55.4785C97.112 55.4785 89.1202 55.6351 88.1802 55.4258C87.2402 55.2165 85.986 55.7918 85.986 55.7918C84.3664 54.798 85.6731 52.3404 85.6731 52.3404C85.6731 52.3404 89.0163 52.2364 89.7998 52.0836C90.5834 51.9308 94.5523 51.7138 94.5523 51.7138C94.5523 51.7138 94.2394 49.7789 92.1492 44.8637C90.7296 41.5254 91.7644 39.5609 92.5813 38.6454C92.7898 38.4025 93.031 38.1898 93.2982 38.0137L99.7229 38.327C99.716 38.6514 99.728 38.9759 99.7588 39.2989C99.8686 40.4079 100.157 41.4919 100.612 42.5089C100.246 42.5089 97.8955 44.7058 97.8955 44.7058C97.8955 44.7058 98.2597 51.3479 98.5739 53.3342Z" fill="#3E3D77"/>
<path opacity="0.1" d="M86.1425 52.5498C86.1425 52.5498 89.4857 52.4458 90.2692 52.293C91.0528 52.1402 95.0217 51.927 95.0217 51.927C95.0217 51.927 94.7088 49.9921 92.6186 45.0769C91.199 41.7386 92.2338 39.7741 93.0507 38.8586C93.2592 38.6157 93.5004 38.403 93.7676 38.2269L99.7204 38.517C99.7204 38.4554 99.7204 38.3887 99.7204 38.3309L93.2956 38.0176C93.0285 38.1938 92.7872 38.4064 92.5788 38.6493C91.7658 39.5661 90.727 41.5293 92.1466 44.8677C94.242 49.7789 94.5524 51.7139 94.5524 51.7139C94.5524 51.7139 90.577 51.9232 89.7999 52.0798C89.0228 52.2365 85.6732 52.3366 85.6732 52.3366C85.6732 52.3366 84.3677 54.7954 85.9861 55.7931C85.9861 55.7931 86.0348 55.77 86.1143 55.7366C85.0384 54.6285 86.1425 52.5498 86.1425 52.5498Z" fill="black"/>
<rect x="92.4621" y="18.8193" width="3.23801" height="8.20982" fill="#493545"/>
<rect opacity="0.1" x="92.4621" y="18.8193" width="3.23801" height="8.20982" fill="black"/>
<path d="M97.5519 17.615C97.6634 17.6459 97.7891 17.6497 97.8648 17.8038C97.9117 17.9269 97.9373 18.0572 97.9404 18.189L98.1443 20.7261C98.1472 20.8923 98.1793 21.0566 98.2392 21.2115C98.3251 21.3835 98.4675 21.4041 98.579 21.5145C98.8035 21.7379 98.8689 22.2977 98.8073 22.7536C98.7458 23.2094 98.5906 23.5997 98.4688 24.0119C98.2944 24.6025 98.1789 25.2663 97.934 25.7645C97.6891 26.2627 97.2441 26.5349 96.9568 26.1163C96.6696 25.6977 96.7081 24.8529 96.6542 24.1608C96.5644 23.0052 96.1143 22.0088 96.0835 20.8456C96.0579 19.9044 96.3105 19.0261 96.4683 18.1338C96.5811 17.5213 96.5875 16.7779 96.7517 16.2271C96.8889 16.8819 97.1505 17.5046 97.5519 17.615Z" fill="#493545"/>
<path opacity="0.1" d="M97.5519 17.615C97.6634 17.6459 97.7891 17.6497 97.8648 17.8038C97.9117 17.9269 97.9373 18.0572 97.9404 18.189L98.1443 20.7261C98.1472 20.8923 98.1793 21.0566 98.2392 21.2115C98.3251 21.3835 98.4675 21.4041 98.579 21.5145C98.8035 21.7379 98.8689 22.2977 98.8073 22.7536C98.7458 23.2094 98.5906 23.5997 98.4688 24.0119C98.2944 24.6025 98.1789 25.2663 97.934 25.7645C97.6891 26.2627 97.2441 26.5349 96.9568 26.1163C96.6696 25.6977 96.7081 24.8529 96.6542 24.1608C96.5644 23.0052 96.1143 22.0088 96.0835 20.8456C96.0579 19.9044 96.3105 19.0261 96.4683 18.1338C96.5811 17.5213 96.5875 16.7779 96.7517 16.2271C96.8889 16.8819 97.1505 17.5046 97.5519 17.615Z" fill="black"/>
<path d="M83.8445 14.0084L82.5916 15.0548C82.5916 15.0548 82.4428 14.8802 82.221 14.5977C81.3503 13.4845 79.3485 10.6918 80.7629 10.1924C82.1774 9.69289 83.2956 12.4162 83.6906 13.541C83.7906 13.826 83.8445 14.0084 83.8445 14.0084Z" fill="#C77485"/>
<path d="M106.461 13.6422C105.939 14.4267 105.208 13.6422 105.208 13.6422C105.208 13.6422 105.114 13.5022 104.982 13.2762C104.552 12.5482 103.71 10.9342 104.268 10.2948C104.909 9.56423 106.498 12.0577 106.546 13.2274C106.562 13.3713 106.532 13.5162 106.461 13.6422Z" fill="#C77485"/>
<path d="M93.6111 22.114C93.6111 22.114 94.6562 25.4613 94.342 26.4539C94.0279 27.4464 96.5888 28.602 96.5888 28.602H99.5139C99.5139 28.602 100.559 26.4577 100.297 25.8298C100.036 25.202 97.7904 24.732 97.7904 24.732C97.7904 24.732 96.4849 24.732 96.5375 21.228L93.6111 22.114Z" fill="#C77485"/>
<path opacity="0.1" d="M83.8445 14.0084L82.5916 15.0548C82.5916 15.0548 82.4429 14.8802 82.221 14.5977C82.6763 14.5168 83.3828 13.8517 83.6919 13.541C83.7906 13.8261 83.8445 14.0084 83.8445 14.0084Z" fill="black"/>
<path opacity="0.1" d="M106.461 13.6422C105.939 14.4267 105.208 13.6422 105.208 13.6422C105.208 13.6422 105.114 13.5023 104.982 13.2763L104.999 13.2236C105.337 13.4663 106.39 13.2596 106.546 13.2236C106.562 13.3687 106.532 13.5152 106.461 13.6422Z" fill="black"/>
<path opacity="0.1" d="M99.7563 39.2978C98.1405 40.0361 92.8904 38.7213 92.575 38.643C92.7834 38.4 93.0247 38.1874 93.2918 38.0112L99.7165 38.3245C99.7108 38.6494 99.7241 38.9744 99.7563 39.2978Z" fill="black"/>
<path d="M94.2907 24.9903C94.2907 24.9903 93.0379 25.4089 91.2618 23.7872C91.2618 23.7872 87.2864 19.8647 87.0299 18.9235L83.9522 13.5307C83.9522 13.5307 82.6467 14.9431 82.1235 14.7338L85.5706 20.748C85.5706 20.748 86.1977 21.9036 86.7722 22.2118C86.7722 22.2118 91.0553 27.7034 91.1066 28.8012C91.1579 29.899 93.0366 32.8394 93.0366 32.8394C93.0366 32.8394 93.6637 37.5978 92.5659 38.435C92.5659 38.435 98.6765 40.004 99.9819 38.9576C99.9819 38.9576 99.4074 33.0512 99.9819 32.4208C99.9819 32.4208 101.758 30.3292 100.556 28.0282C100.556 28.0282 100.3 26.7738 100.975 26.1459C101.649 25.5181 104.683 20.8636 104.683 20.8636C104.683 20.8636 105.414 19.8171 105.414 19.1379C105.414 19.1379 106.772 14.5361 106.568 13.333C106.568 13.333 105.367 13.5898 105.001 13.333C105.001 13.333 103.225 18.7258 103.016 18.9286C102.807 19.1315 101.349 23.3738 99.4126 23.845C97.4762 24.3162 97.1671 24.5242 97.1671 24.5242C97.1671 24.5242 100.927 26.8778 99.0997 27.923C97.2723 28.9681 94.2907 24.9903 94.2907 24.9903Z" fill="#FFAAC4"/>
<path opacity="0.1" d="M96.6645 22.9192C96.6024 22.4265 96.5771 21.93 96.5888 21.4336L93.6637 22.3221C93.7407 22.5172 93.802 22.7182 93.8471 22.923C94.1818 23.0707 94.6332 23.4199 95.0217 23.4199C95.6095 23.4392 96.1871 23.2631 96.6645 22.9192Z" fill="black"/>
<path d="M94.9691 23.2647C96.4692 23.2647 97.6852 22.0471 97.6852 20.5452C97.6852 19.0432 96.4692 17.8257 94.9691 17.8257C93.4691 17.8257 92.2531 19.0432 92.2531 20.5452C92.2531 22.0471 93.4691 23.2647 94.9691 23.2647Z" fill="#C77485"/>
<path opacity="0.1" d="M91.7375 16.3556C91.1399 16.4018 90.4731 16.8153 90.5065 17.4149C90.5244 17.7449 90.7501 18.0235 90.8488 18.3394C91.0861 19.1033 90.5577 19.8699 90.0935 20.5221C89.6293 21.1744 89.1959 22.0385 89.5934 22.7293C89.7067 22.8956 89.8292 23.0555 89.9602 23.2083C90.4513 23.8721 90.4449 24.7683 90.6629 25.5657C91.241 27.6837 93.3714 28.9803 95.5154 28.5188C95.1267 28.022 94.9329 27.4 94.9704 26.77C94.9999 26.3129 95.1474 25.8353 94.9704 25.4129C94.7422 24.8697 94.0727 24.6553 93.7278 24.1802C93.3828 23.7052 93.4059 23.0465 93.5726 22.4802C93.7393 21.914 94.0279 21.3888 94.1664 20.811C94.2005 20.6425 94.2433 20.4758 94.2946 20.3116C94.5357 19.6259 95.2564 19.2279 95.9617 19.0571C96.667 18.8863 97.4082 18.8761 98.0969 18.6514C98.7855 18.4267 99.4549 17.9002 99.5344 17.1774C98.9548 17.4098 98.4174 16.8037 97.8583 16.5251C96.9376 16.068 95.8873 16.4981 94.9384 16.6034C93.8573 16.7241 92.8314 16.276 91.7375 16.3556Z" fill="black"/>
<path d="M91.685 16.2516C91.0874 16.2978 90.4206 16.7113 90.4539 17.3109C90.4719 17.6409 90.6976 17.9195 90.7963 18.2354C91.0335 18.9993 90.5052 19.7659 90.041 20.4181C89.5768 21.0704 89.1433 21.9345 89.5408 22.6253C89.6542 22.7916 89.7766 22.9515 89.9076 23.1042C90.3988 23.7681 90.3923 24.6643 90.6104 25.4616C91.1884 27.5797 93.3189 28.8763 95.4629 28.4148C95.0742 27.918 94.8803 27.296 94.9179 26.666C94.9474 26.2089 95.0948 25.7313 94.9179 25.3089C94.6896 24.7657 94.0202 24.5513 93.6752 24.0762C93.3303 23.6012 93.3534 22.9425 93.5201 22.3762C93.6868 21.81 93.9753 21.2848 94.1138 20.707C94.148 20.5385 94.1908 20.3718 94.242 20.2076C94.4831 19.5219 95.2038 19.1239 95.9091 18.9531C96.6145 18.7823 97.3557 18.7721 98.0443 18.5474C98.7329 18.3227 99.4023 17.7962 99.4818 17.0734C98.9022 17.3058 98.3649 16.6997 97.8058 16.4211C96.885 15.964 95.8348 16.3941 94.8858 16.4994C93.8073 16.6188 92.7853 16.1656 91.685 16.2516Z" fill="#493545"/>
<path opacity="0.1" d="M97.6595 26.5864C97.6595 26.5864 98.747 27.5584 98.9612 27.9873L97.6595 26.5864Z" fill="black"/>
<path opacity="0.1" d="M100.013 32.3911C100.013 32.3911 98.6547 32.3911 98.0276 32.5326C97.4005 32.674 95.886 32.5326 95.886 32.5326" fill="black"/>
<g opacity="0.1">
<path d="M99.0959 27.9192C98.9788 27.9863 98.8521 28.0348 98.7201 28.063C99.0608 28.1386 99.4172 28.0875 99.723 27.9192C101.552 26.8728 97.7904 24.5205 97.7904 24.5205H97.1633C97.1633 24.5205 100.925 26.8741 99.0959 27.9192Z" fill="black"/>
<path d="M106.577 13.4634C106.577 13.4162 106.57 13.3708 106.564 13.3291C106.35 13.3921 106.133 13.4388 105.914 13.4689C106.135 13.5032 106.357 13.5013 106.577 13.4634Z" fill="black"/>
<path d="M93.1943 38.4313C94.2907 37.5941 93.6649 32.8357 93.6649 32.8357C93.6649 32.8357 91.785 29.9069 91.7324 28.8091C91.6798 27.7113 87.398 22.2196 87.398 22.2196C86.8235 21.9064 86.1964 20.7559 86.1964 20.7559C86.1964 20.7559 82.6442 14.951 82.1223 14.7417L85.5693 20.7559C85.5693 20.7559 86.1964 21.9115 86.7709 22.2196C86.7709 22.2196 91.054 27.7113 91.1053 28.8091C91.1566 29.9069 93.0366 32.8395 93.0366 32.8395C93.0366 32.8395 93.6637 37.598 92.5659 38.4351C92.5659 38.4351 96.322 39.3994 98.5739 39.3121C96.3169 39.2325 93.1943 38.4313 93.1943 38.4313Z" fill="black"/>
<path d="M94.3633 25.048L94.3233 24.9917C94.2769 25.0067 94.2296 25.0182 94.1818 25.0262C94.245 25.0353 94.305 25.0425 94.3633 25.048Z" fill="black"/>
</g>
<g opacity="0.1">
<path d="M106.564 13.3228L106.532 13.3292C106.477 14.9354 105.364 18.7091 105.364 18.7091C105.364 19.3883 104.633 20.4348 104.633 20.4348C104.633 20.4348 101.604 25.0892 100.925 25.7171C100.245 26.345 100.506 27.5994 100.506 27.5994L100.513 27.6123C100.492 27.1898 100.544 26.535 100.976 26.1344C101.654 25.5065 104.684 20.8521 104.684 20.8521C104.684 20.8521 105.415 19.8056 105.415 19.1264C105.415 19.1341 106.773 14.5323 106.564 13.3228Z" fill="black"/>
<path d="M99.9319 31.9981C100.01 32.4424 99.9576 31.9725 99.9845 32.4167C99.9845 32.4167 101.267 30.9106 100.917 29.0488C101.022 30.7129 99.9319 31.9981 99.9319 31.9981Z" fill="black"/>
</g>
<path opacity="0.1" d="M60.3731 84.9384C90.6623 84.9384 115.217 82.5769 115.217 79.6638C115.217 76.7507 90.6623 74.3892 60.3731 74.3892C30.0839 74.3892 5.5296 76.7507 5.5296 79.6638C5.5296 82.5769 30.0839 84.9384 60.3731 84.9384Z" fill="#C449AB"/>
<path d="M39.1139 74.3119C39.1139 74.3119 37.2467 67.9626 39.464 63.2901C40.407 61.336 40.6913 59.1283 40.2744 56.9986C40.0685 55.989 39.7706 55.0005 39.3845 54.0454" stroke="#535461" stroke-width="0.726"/>
<path d="M40.7668 51.0952C40.7668 51.8733 39.3562 54.1293 39.3562 54.1293C39.3562 54.1293 37.9456 51.8733 37.9456 51.0952C37.9065 50.5672 38.1658 50.0616 38.6172 49.7856C39.0685 49.5096 39.6362 49.5096 40.0875 49.7856C40.5389 50.0616 40.7981 50.5672 40.7591 51.0952H40.7668Z" fill="#C449AB"/>
<path d="M43.0892 55.404C42.6673 56.0575 40.2616 57.1849 40.2616 57.1849C40.2616 57.1849 40.3052 54.5257 40.7271 53.8722C40.9822 53.4097 41.4737 53.1285 42.0011 53.1431C42.5285 53.1578 43.0036 53.4659 43.2327 53.9418C43.4617 54.4177 43.4064 54.9818 43.0892 55.404Z" fill="#C449AB"/>
<path d="M42.9879 62.7704C42.2942 63.1209 39.6537 62.8782 39.6537 62.8782C39.6537 62.8782 41.0323 60.6043 41.7261 60.2537C42.1794 59.9812 42.7469 59.9854 43.1962 60.2647C43.6454 60.5439 43.901 61.0512 43.8582 61.5789C43.8154 62.1066 43.4814 62.5661 42.9931 62.7691L42.9879 62.7704Z" fill="#C449AB"/>
<path d="M41.6581 68.3247C41.0336 68.787 38.3842 68.9963 38.3842 68.9963C38.3842 68.9963 39.3588 66.522 39.9846 66.0585C40.6088 65.6787 41.4193 65.8389 41.8527 66.4276C42.286 67.0164 42.1988 67.8389 41.6517 68.3235L41.6581 68.3247Z" fill="#C449AB"/>
<path d="M37.3044 57.3365C37.8623 57.8783 40.4591 58.4407 40.4591 58.4407C40.4591 58.4407 39.8179 55.8586 39.2652 55.3155C38.9137 54.9209 38.3715 54.756 37.8602 54.8881C37.3489 55.0202 36.954 55.4271 36.837 55.9427C36.72 56.4583 36.9003 56.9961 37.3044 57.3365Z" fill="#C449AB"/>
<path d="M35.8335 63.8538C36.5273 64.2043 39.1677 63.9616 39.1677 63.9616C39.1677 63.9616 37.7943 61.6877 37.1005 61.3436C36.4182 61.0599 35.6328 61.3515 35.3001 62.012C34.9674 62.6725 35.2001 63.4781 35.8335 63.8589V63.8538Z" fill="#C449AB"/>
<path d="M35.2693 70.3844C35.8938 70.8466 38.5432 71.0559 38.5432 71.0559C38.5432 71.0559 37.5686 68.5817 36.9428 68.1181C36.5428 67.7639 35.9773 67.6662 35.4819 67.8657C34.9864 68.0652 34.646 68.5278 34.6023 69.0607C34.5587 69.5936 34.8193 70.1054 35.2757 70.3831L35.2693 70.3844Z" fill="#C449AB"/>
<path opacity="0.1" d="M40.7668 51.0952C40.7668 51.8733 39.3562 54.1293 39.3562 54.1293C39.3562 54.1293 37.9456 51.8733 37.9456 51.0952C37.9065 50.5672 38.1658 50.0616 38.6172 49.7856C39.0685 49.5096 39.6362 49.5096 40.0875 49.7856C40.5389 50.0616 40.7981 50.5672 40.7591 51.0952H40.7668Z" fill="#C449AB"/>
<path opacity="0.1" d="M43.0892 55.404C42.6673 56.0575 40.2616 57.1849 40.2616 57.1849C40.2616 57.1849 40.3052 54.5257 40.7271 53.8722C40.9822 53.4097 41.4737 53.1285 42.0011 53.1431C42.5285 53.1578 43.0036 53.4659 43.2327 53.9418C43.4617 54.4177 43.4064 54.9818 43.0892 55.404Z" fill="#C449AB"/>
<path opacity="0.1" d="M42.9879 62.7704C42.2942 63.1209 39.6537 62.8782 39.6537 62.8782C39.6537 62.8782 41.0323 60.6043 41.7261 60.2537C42.1794 59.9812 42.7469 59.9854 43.1962 60.2647C43.6454 60.5439 43.901 61.0512 43.8582 61.5789C43.8154 62.1066 43.4814 62.5661 42.9931 62.7691L42.9879 62.7704Z" fill="#C449AB"/>
<path opacity="0.1" d="M41.6581 68.3247C41.0336 68.787 38.3842 68.9963 38.3842 68.9963C38.3842 68.9963 39.3588 66.522 39.9846 66.0585C40.6088 65.6787 41.4193 65.8389 41.8527 66.4276C42.286 67.0164 42.1988 67.8389 41.6517 68.3235L41.6581 68.3247Z" fill="#C449AB"/>
<path opacity="0.1" d="M37.3044 57.3365C37.8623 57.8783 40.4591 58.4407 40.4591 58.4407C40.4591 58.4407 39.8179 55.8586 39.2652 55.3155C38.9137 54.9209 38.3715 54.756 37.8602 54.8881C37.3489 55.0202 36.954 55.4271 36.837 55.9427C36.72 56.4583 36.9003 56.9961 37.3044 57.3365Z" fill="#C449AB"/>
<path opacity="0.1" d="M35.8335 63.8538C36.5273 64.2043 39.1677 63.9616 39.1677 63.9616C39.1677 63.9616 37.7943 61.6877 37.1005 61.3436C36.4182 61.0599 35.6328 61.3515 35.3001 62.012C34.9674 62.6725 35.2001 63.4781 35.8335 63.8589V63.8538Z" fill="#C449AB"/>
<path opacity="0.1" d="M35.2693 70.3844C35.8938 70.8466 38.5432 71.0559 38.5432 71.0559C38.5432 71.0559 37.5686 68.5817 36.9428 68.1181C36.5428 67.7639 35.9773 67.6662 35.4819 67.8657C34.9864 68.0652 34.646 68.5278 34.6023 69.0607C34.5587 69.5936 34.8193 70.1054 35.2757 70.3831L35.2693 70.3844Z" fill="#C449AB"/>
<path d="M76.8979 74.4032C76.8979 74.4032 75.0307 68.0539 77.248 63.3814C78.191 61.4273 78.4753 59.2196 78.0584 57.0899C77.8525 56.0803 77.5546 55.0918 77.1684 54.1367" stroke="#535461" stroke-width="0.726"/>
<path d="M78.5483 51.1851C78.5483 51.9632 77.1377 54.2192 77.1377 54.2192C77.1377 54.2192 75.7271 51.9632 75.7271 51.1851C75.7816 50.4475 76.3951 49.877 77.1338 49.877C77.8725 49.877 78.4861 50.4475 78.5406 51.1851H78.5483Z" fill="#C449AB"/>
<path d="M80.8745 55.4938C80.4526 56.1474 78.0469 57.2747 78.0469 57.2747C78.0469 57.2747 78.0905 54.6156 78.5124 53.962C78.7674 53.4996 79.2589 53.2183 79.7863 53.233C80.3138 53.2476 80.7889 53.5557 81.018 54.0316C81.247 54.5075 81.1917 55.0716 80.8745 55.4938Z" fill="#C449AB"/>
<path d="M80.7771 62.8604C80.0833 63.2109 77.4429 62.9682 77.4429 62.9682C77.4429 62.9682 78.8214 60.6943 79.5152 60.3437C79.9691 60.0686 80.5388 60.0719 80.9896 60.3521C81.4404 60.6323 81.696 61.1421 81.6512 61.6715C81.6063 62.2008 81.2686 62.6602 80.7771 62.8604Z" fill="#C449AB"/>
<path d="M79.4421 68.4146C78.8176 68.8768 76.1682 69.0861 76.1682 69.0861C76.1682 69.0861 77.1428 66.6119 77.7686 66.1484C78.3928 65.7686 79.2034 65.9287 79.6367 66.5175C80.07 67.1062 79.9828 67.9288 79.4357 68.4133L79.4421 68.4146Z" fill="#C449AB"/>
<path d="M75.091 57.4263C75.6488 57.9682 78.2456 58.5305 78.2456 58.5305C78.2456 58.5305 77.6044 55.9484 77.0517 55.4053C76.7002 55.0108 76.158 54.8459 75.6467 54.9779C75.1354 55.11 74.7406 55.517 74.6236 56.0325C74.5065 56.5481 74.6869 57.0859 75.091 57.4263Z" fill="#C449AB"/>
<path d="M73.6175 63.9437C74.3113 64.2942 76.9517 64.0515 76.9517 64.0515C76.9517 64.0515 75.5731 61.7776 74.8794 61.4271C74.197 61.1434 73.4117 61.435 73.079 62.0955C72.7463 62.756 72.979 63.5616 73.6124 63.9424L73.6175 63.9437Z" fill="#C449AB"/>
<path d="M73.0546 70.4742C73.6791 70.9364 76.3285 71.1457 76.3285 71.1457C76.3285 71.1457 75.3539 68.6714 74.7281 68.2079C74.1039 67.8281 73.2933 67.9883 72.86 68.577C72.4267 69.1658 72.5139 69.9883 73.061 70.4729L73.0546 70.4742Z" fill="#C449AB"/>
<path opacity="0.1" d="M78.5483 51.1851C78.5483 51.9632 77.1377 54.2192 77.1377 54.2192C77.1377 54.2192 75.7271 51.9632 75.7271 51.1851C75.7816 50.4475 76.3951 49.877 77.1338 49.877C77.8725 49.877 78.4861 50.4475 78.5406 51.1851H78.5483Z" fill="#C449AB"/>
<path opacity="0.1" d="M80.8745 55.4938C80.4526 56.1474 78.0469 57.2747 78.0469 57.2747C78.0469 57.2747 78.0905 54.6156 78.5124 53.962C78.7674 53.4996 79.2589 53.2183 79.7863 53.233C80.3138 53.2476 80.7889 53.5557 81.018 54.0316C81.247 54.5075 81.1917 55.0716 80.8745 55.4938Z" fill="#C449AB"/>
<path opacity="0.1" d="M80.7771 62.8604C80.0833 63.2109 77.4429 62.9682 77.4429 62.9682C77.4429 62.9682 78.8214 60.6943 79.5152 60.3437C79.9691 60.0686 80.5388 60.0719 80.9896 60.3521C81.4404 60.6323 81.696 61.1421 81.6512 61.6715C81.6063 62.2008 81.2686 62.6602 80.7771 62.8604Z" fill="#C449AB"/>
<path opacity="0.1" d="M79.4421 68.4146C78.8176 68.8768 76.1682 69.0861 76.1682 69.0861C76.1682 69.0861 77.1428 66.6119 77.7686 66.1484C78.3928 65.7686 79.2034 65.9287 79.6367 66.5175C80.07 67.1062 79.9828 67.9288 79.4357 68.4133L79.4421 68.4146Z" fill="#C449AB"/>
<path opacity="0.1" d="M75.091 57.4263C75.6488 57.9682 78.2456 58.5305 78.2456 58.5305C78.2456 58.5305 77.6044 55.9484 77.0517 55.4053C76.7002 55.0108 76.158 54.8459 75.6467 54.9779C75.1354 55.11 74.7406 55.517 74.6236 56.0325C74.5065 56.5481 74.6869 57.0859 75.091 57.4263Z" fill="#C449AB"/>
<path opacity="0.1" d="M73.6175 63.9437C74.3113 64.2942 76.9517 64.0515 76.9517 64.0515C76.9517 64.0515 75.5731 61.7776 74.8794 61.4271C74.197 61.1434 73.4117 61.435 73.079 62.0955C72.7463 62.756 72.979 63.5616 73.6124 63.9424L73.6175 63.9437Z" fill="#C449AB"/>
<path opacity="0.1" d="M73.0546 70.4742C73.6791 70.9364 76.3285 71.1457 76.3285 71.1457C76.3285 71.1457 75.3539 68.6714 74.7281 68.2079C74.1039 67.8281 73.2933 67.9883 72.86 68.577C72.4267 69.1658 72.5139 69.9883 73.061 70.4729L73.0546 70.4742Z" fill="#C449AB"/>
<path opacity="0.5" d="M86.0348 1.9657H85.2294C85.4372 1.97562 85.6336 1.87029 85.7404 1.6916C85.8473 1.51291 85.8473 1.28985 85.7404 1.11117C85.6336 0.932478 85.4372 0.827144 85.2294 0.83707H78.6996C78.3987 0.851442 78.1622 1.09983 78.1622 1.40138C78.1622 1.70293 78.3987 1.95132 78.6996 1.9657H79.5049C79.2041 1.98007 78.9676 2.22846 78.9676 2.53001C78.9676 2.83156 79.2041 3.07995 79.5049 3.09432H78.3777C78.1699 3.08439 77.9736 3.18973 77.8667 3.36842C77.7598 3.5471 77.7598 3.77016 77.8667 3.94885C77.9736 4.12754 78.1699 4.23287 78.3777 4.22295H84.9024C85.1102 4.23287 85.3066 4.12754 85.4134 3.94885C85.5203 3.77016 85.5203 3.5471 85.4134 3.36842C85.3066 3.18973 85.1102 3.08439 84.9024 3.09432H86.0348C86.3356 3.07995 86.5721 2.83156 86.5721 2.53001C86.5721 2.22846 86.3356 1.98007 86.0348 1.9657Z" fill="#DEE3F3"/>
<path opacity="0.5" d="M48.3047 5.25807H47.6917C47.8505 5.26677 48.0012 5.18686 48.0832 5.05039C48.1653 4.91392 48.1653 4.74323 48.0832 4.60676C48.0012 4.47029 47.8505 4.39038 47.6917 4.39908H42.7263C42.4985 4.41156 42.3202 4.60015 42.3202 4.82858C42.3202 5.05701 42.4985 5.24559 42.7263 5.25807H43.3393C43.1804 5.24937 43.0298 5.32928 42.9478 5.46575C42.8657 5.60222 42.8657 5.77291 42.9478 5.90938C43.0298 6.04585 43.1804 6.12576 43.3393 6.11706H42.4814C42.3225 6.10836 42.1719 6.18826 42.0898 6.32473C42.0078 6.46121 42.0078 6.6319 42.0898 6.76837C42.1719 6.90484 42.3225 6.98475 42.4814 6.97605H47.4468C47.6056 6.98475 47.7562 6.90484 47.8383 6.76837C47.9203 6.6319 47.9203 6.46121 47.8383 6.32473C47.7562 6.18826 47.6056 6.10836 47.4468 6.11706H48.3047C48.5325 6.10458 48.7108 5.91599 48.7108 5.68756C48.7108 5.45913 48.5325 5.27055 48.3047 5.25807Z" fill="#DEE3F3"/>
<path d="M6.62735 66.0947C6.62735 66.0947 8.87152 70.5052 7.04284 72.9178C5.21417 75.3305 7.20955 81.9058 7.20955 81.9058" stroke="#C449AB" stroke-width="0.55"/>
<path d="M7.29677 64.7156C7.29677 65.5656 6.67353 66.2564 6.67353 66.2564C6.67353 66.2564 6.05029 65.5669 6.05029 64.7156C6.05029 63.8643 6.67353 63.1748 6.67353 63.1748C6.67353 63.1748 7.29677 63.8656 7.29677 64.7156Z" fill="#C449AB"/>
<path d="M7.79046 66.0947C7.79046 66.0947 5.54629 70.5052 7.37497 72.9178C9.20364 75.3305 7.20826 81.9058 7.20826 81.9058" stroke="#C449AB" stroke-width="0.55"/>
<path d="M7.12616 64.7156C7.12616 65.5656 7.7494 66.2564 7.7494 66.2564C7.7494 66.2564 8.37263 65.5669 8.37263 64.7156C8.37263 63.8643 7.7494 63.1748 7.7494 63.1748C7.7494 63.1748 7.12616 63.8656 7.12616 64.7156Z" fill="#C449AB"/>
<path opacity="0.1" d="M7.12616 64.7156C7.12616 65.5656 7.7494 66.2564 7.7494 66.2564C7.7494 66.2564 8.37263 65.5669 8.37263 64.7156C8.37263 63.8643 7.7494 63.1748 7.7494 63.1748C7.7494 63.1748 7.12616 63.8656 7.12616 64.7156Z" fill="black"/>
<path d="M8.70737 66.0947C8.70737 66.0947 10.9515 70.5052 9.12286 72.9178C7.29419 75.3305 9.28957 81.9058 9.28957 81.9058" stroke="#C449AB" stroke-width="0.55"/>
<path d="M9.37037 64.7156C9.37037 65.5656 8.74714 66.2564 8.74714 66.2564C8.74714 66.2564 8.1239 65.5669 8.1239 64.7156C8.1239 63.8643 8.74714 63.1748 8.74714 63.1748C8.74714 63.1748 9.37037 63.8656 9.37037 64.7156Z" fill="#C449AB"/>
<path d="M9.02023 68.2493C8.43162 68.8617 7.50446 68.9259 7.50446 68.9259C7.50446 68.9259 7.53267 67.9963 8.12128 67.3852C8.70989 66.774 9.63705 66.7085 9.63705 66.7085C9.63705 66.7085 9.60499 67.6355 9.02023 68.2493Z" fill="#C449AB"/>
<path d="M9.07925 71.2923C8.49064 71.9047 7.56348 71.9689 7.56348 71.9689C7.56348 71.9689 7.59169 71.0393 8.1803 70.4281C8.76891 69.8169 9.69607 69.7515 9.69607 69.7515C9.69607 69.7515 9.66786 70.6785 9.07925 71.2923Z" fill="#C449AB"/>
<path d="M5.88613 72.9651C6.44269 73.6071 6.42345 74.5367 6.42345 74.5367C6.42345 74.5367 5.50142 74.425 4.94487 73.783C4.38832 73.141 4.40755 72.2114 4.40755 72.2114C4.40755 72.2114 5.32958 72.3231 5.88613 72.9651Z" fill="#C449AB"/>
<path d="M6.39907 66.4796C7.10694 66.9495 7.33649 67.8509 7.33649 67.8509C7.33649 67.8509 6.4183 67.9908 5.71043 67.5209C5.00256 67.0509 4.77301 66.1496 4.77301 66.1496C4.77301 66.1496 5.69504 66.0071 6.39907 66.4796Z" fill="#C449AB"/>
<path opacity="0.1" d="M6.39907 66.4796C7.10694 66.9495 7.33649 67.8509 7.33649 67.8509C7.33649 67.8509 6.4183 67.9908 5.71043 67.5209C5.00256 67.0509 4.77301 66.1496 4.77301 66.1496C4.77301 66.1496 5.69504 66.0071 6.39907 66.4796Z" fill="black"/>
<path d="M9.86791 66.0947C9.86791 66.0947 7.62375 70.5052 9.45242 72.9178C11.2811 75.3305 9.28571 81.9058 9.28571 81.9058" stroke="#C449AB" stroke-width="0.55"/>
<path d="M9.20361 64.7156C9.20361 65.5656 9.82685 66.2564 9.82685 66.2564C9.82685 66.2564 10.4501 65.5669 10.4501 64.7156C10.4501 63.8643 9.82685 63.1748 9.82685 63.1748C9.82685 63.1748 9.20361 63.8656 9.20361 64.7156Z" fill="#C449AB"/>
<path opacity="0.1" d="M9.20361 64.7156C9.20361 65.5656 9.82685 66.2564 9.82685 66.2564C9.82685 66.2564 10.4501 65.5669 10.4501 64.7156C10.4501 63.8643 9.82685 63.1748 9.82685 63.1748C9.82685 63.1748 9.20361 63.8656 9.20361 64.7156Z" fill="black"/>
<path d="M9.38319 68.3144C8.78689 68.9205 8.742 69.8552 8.742 69.8552C8.742 69.8552 9.66916 69.8026 10.2655 69.1965C10.8618 68.5905 10.9067 67.6558 10.9067 67.6558C10.9067 67.6558 9.9795 67.7084 9.38319 68.3144Z" fill="#C449AB"/>
<path opacity="0.1" d="M9.38319 68.3144C8.78689 68.9205 8.742 69.8552 8.742 69.8552C8.742 69.8552 9.66916 69.8026 10.2655 69.1965C10.8618 68.5905 10.9067 67.6558 10.9067 67.6558C10.9067 67.6558 9.9795 67.7084 9.38319 68.3144Z" fill="black"/>
<path d="M10.5514 72.5273C9.9551 73.1334 9.91022 74.0681 9.91022 74.0681C9.91022 74.0681 10.8374 74.0155 11.4337 73.4094C12.03 72.8034 12.0749 71.8687 12.0749 71.8687C12.0749 71.8687 11.1439 71.9213 10.5514 72.5273Z" fill="#C449AB"/>
<path d="M8.83557 71.6017C8.83557 71.6017 10.1859 69.4703 12.0826 69.4189" stroke="#C449AB" stroke-width="0.55"/>
<path d="M7.78019 70.3136C7.78019 70.3136 6.42984 68.1822 4.5332 68.1309" stroke="#C449AB" stroke-width="0.55"/>
<path d="M7.60449 73.3566C7.60449 73.3566 8.95484 71.2252 10.8515 71.1738" stroke="#C449AB" stroke-width="0.55"/>
<path d="M12.0172 69.7577C12.2106 69.7577 12.3673 69.6008 12.3673 69.4072C12.3673 69.2136 12.2106 69.0566 12.0172 69.0566C11.8239 69.0566 11.6671 69.2136 11.6671 69.4072C11.6671 69.6008 11.8239 69.7577 12.0172 69.7577Z" fill="#C449AB"/>
<path d="M4.56658 68.4994C4.75993 68.4994 4.91667 68.3425 4.91667 68.1489C4.91667 67.9553 4.75993 67.7983 4.56658 67.7983C4.37323 67.7983 4.21649 67.9553 4.21649 68.1489C4.21649 68.3425 4.37323 68.4994 4.56658 68.4994Z" fill="#C449AB"/>
<path d="M8.59836 74.0553C8.59836 74.0553 7.24802 71.9239 5.35138 71.8726" stroke="#C449AB" stroke-width="0.55"/>
<path d="M5.3847 72.2435C5.57805 72.2435 5.73479 72.0866 5.73479 71.893C5.73479 71.6994 5.57805 71.5425 5.3847 71.5425C5.19135 71.5425 5.03461 71.6994 5.03461 71.893C5.03461 72.0866 5.19135 72.2435 5.3847 72.2435Z" fill="#C449AB"/>
<path d="M10.8771 71.5424C11.0705 71.5424 11.2272 71.3854 11.2272 71.1918C11.2272 70.9982 11.0705 70.8413 10.8771 70.8413C10.6838 70.8413 10.527 70.9982 10.527 71.1918C10.527 71.3854 10.6838 71.5424 10.8771 71.5424Z" fill="#C449AB"/>
<path d="M16.0657 79.3389C16.0657 79.3389 12.811 78.6867 11.9415 77.8174C11.0721 76.9481 7.16851 75.4279 6.73378 76.5142C6.29906 77.6004 0.874594 81.2944 4.564 81.9467C8.2534 82.599 13.2444 82.816 14.3293 82.3807C15.4142 81.9454 16.0657 79.3389 16.0657 79.3389Z" fill="#A8A8A8"/>
<path opacity="0.2" d="M4.56397 81.5424C8.25338 82.1946 13.2444 82.4116 14.3293 81.9763C15.1551 81.6451 15.7296 80.0504 15.9566 79.3159L16.0656 79.339C16.0656 79.339 15.4142 81.9468 14.3293 82.3808C13.2444 82.8148 8.25338 82.5978 4.56397 81.9468C3.4996 81.7581 3.19439 81.3164 3.30981 80.7578C3.39957 81.1174 3.77146 81.4024 4.56397 81.5424Z" fill="black"/>
<path d="M114.879 67.0938C114.879 67.0938 115.954 68.5061 114.383 70.6247C112.812 72.7433 111.517 74.5422 112.041 75.8672C112.041 75.8672 114.411 71.9215 116.34 71.8663C118.269 71.8111 117.002 69.4653 114.879 67.0938Z" fill="#C449AB"/>
<path opacity="0.1" d="M114.879 67.0938C114.973 67.2298 115.047 67.3785 115.099 67.5354C116.981 69.749 117.983 71.815 116.175 71.8676C114.49 71.9164 112.469 74.9325 111.984 75.6952C112 75.754 112.019 75.8119 112.041 75.8685C112.041 75.8685 114.411 71.9228 116.34 71.8676C118.269 71.8124 117.002 69.4653 114.879 67.0938Z" fill="black"/>
<path d="M116.853 68.8861C116.853 69.3817 116.803 69.7849 116.737 69.7849C116.671 69.7849 116.621 69.383 116.621 68.8861C116.621 68.3892 116.683 68.6293 116.745 68.6293C116.806 68.6293 116.853 68.3917 116.853 68.8861Z" fill="#FFD037"/>
<path d="M117.563 69.4777C117.129 69.7153 116.75 69.8629 116.718 69.7974C116.686 69.732 117.011 69.4957 117.445 69.2594C117.88 69.0232 117.708 69.1952 117.742 69.2594C117.775 69.3236 117.997 69.2402 117.563 69.4777Z" fill="#FFD037"/>
<path d="M109.204 67.0938C109.204 67.0938 108.129 68.5061 109.7 70.6247C111.271 72.7433 112.566 74.5422 112.041 75.8672C112.041 75.8672 109.672 71.9215 107.743 71.8663C105.814 71.8111 107.081 69.4653 109.204 67.0938Z" fill="#C449AB"/>
<path opacity="0.1" d="M109.204 67.0938C109.11 67.2298 109.036 67.3785 108.984 67.5354C107.102 69.749 106.1 71.815 107.908 71.8676C109.593 71.9164 111.614 74.9325 112.099 75.6952C112.083 75.754 112.064 75.8119 112.041 75.8685C112.041 75.8685 109.672 71.9228 107.743 71.8676C105.814 71.8124 107.081 69.4653 109.204 67.0938Z" fill="black"/>
<path d="M107.206 68.8861C107.206 69.3817 107.255 69.7849 107.322 69.7849C107.388 69.7849 107.437 69.383 107.437 68.8861C107.437 68.3892 107.375 68.6293 107.313 68.6293C107.252 68.6293 107.206 68.3917 107.206 68.8861Z" fill="#FFD037"/>
<path d="M106.519 69.4777C106.954 69.7153 107.333 69.8629 107.365 69.7974C107.397 69.732 107.072 69.4957 106.637 69.2594C106.203 69.0232 106.375 69.1952 106.341 69.2594C106.308 69.3236 106.085 69.2402 106.519 69.4777Z" fill="#FFD037"/>
<path d="M107.548 75.6821C107.548 75.6821 110.553 75.5896 111.458 74.9438C112.363 74.2979 116.075 73.5314 116.304 74.5586C116.534 75.5858 120.819 79.7087 117.427 79.7356C114.036 79.7626 109.546 79.2066 108.642 78.6558C107.738 78.105 107.548 75.6821 107.548 75.6821Z" fill="#A8A8A8"/>
<path opacity="0.2" d="M117.488 79.3801C114.096 79.4071 109.606 78.8511 108.702 78.3003C108.013 77.8804 107.739 76.3743 107.648 75.6797H107.548C107.548 75.6797 107.738 78.1064 108.642 78.6573C109.546 79.2081 114.036 79.7653 117.427 79.7371C118.407 79.7294 118.744 79.3801 118.726 78.864C118.591 79.1786 118.222 79.3737 117.488 79.3801Z" fill="black"/>
<path opacity="0.5" d="M22.9341 9.58386H22.1287C22.3365 9.59379 22.5329 9.48845 22.6397 9.30976C22.7466 9.13108 22.7466 8.90802 22.6397 8.72933C22.5329 8.55064 22.3365 8.44531 22.1287 8.45523H15.604C15.3032 8.46961 15.0666 8.718 15.0666 9.01955C15.0666 9.3211 15.3032 9.56949 15.604 9.58386H16.4093C16.1085 9.59823 15.872 9.84662 15.872 10.1482C15.872 10.4497 16.1085 10.6981 16.4093 10.7125H15.2821C14.9813 10.7269 14.7448 10.9752 14.7448 11.2768C14.7448 11.5783 14.9813 11.8267 15.2821 11.8411H21.8068C22.0146 11.851 22.211 11.7457 22.3178 11.567C22.4247 11.3883 22.4247 11.1653 22.3178 10.9866C22.211 10.8079 22.0146 10.7026 21.8068 10.7125H22.9341C23.2349 10.6981 23.4714 10.4497 23.4714 10.1482C23.4714 9.84662 23.2349 9.59823 22.9341 9.58386Z" fill="#DEE3F3"/>
<defs>
<linearGradient id="paint0_linear" x1="77.3997" y1="69.8181" x2="77.3997" y2="16.661" gradientUnits="userSpaceOnUse">
<stop stop-color="#808080" stop-opacity="0.25"/>
<stop offset="0.54" stop-color="#808080" stop-opacity="0.12"/>
<stop offset="1" stop-color="#808080" stop-opacity="0.1"/>
</linearGradient>
<linearGradient id="paint1_linear" x1="18.2354" y1="47.2343" x2="18.2354" y2="47.2061" gradientUnits="userSpaceOnUse">
<stop stop-color="#808080" stop-opacity="0.25"/>
<stop offset="0.54" stop-color="#808080" stop-opacity="0.12"/>
<stop offset="1" stop-color="#808080" stop-opacity="0.1"/>
</linearGradient>
<linearGradient id="paint2_linear" x1="32.8232" y1="62.3708" x2="32.8232" y2="19.4856" gradientUnits="userSpaceOnUse">
<stop stop-color="#808080" stop-opacity="0.25"/>
<stop offset="0.54" stop-color="#808080" stop-opacity="0.12"/>
<stop offset="1" stop-color="#808080" stop-opacity="0.1"/>
</linearGradient>
<linearGradient id="paint3_linear" x1="107.023" y1="61.9858" x2="107.023" y2="9.72752" gradientUnits="userSpaceOnUse">
<stop stop-color="#808080" stop-opacity="0.25"/>
<stop offset="0.54" stop-color="#808080" stop-opacity="0.12"/>
<stop offset="1" stop-color="#808080" stop-opacity="0.1"/>
</linearGradient>
</defs>
</svg>
