<svg width="20" height="20" viewBox="0 0 20 20" fill="none" xmlns="http://www.w3.org/2000/svg">
<path fill-rule="evenodd" clip-rule="evenodd" d="M15.1021 4.9187C14.5335 2.94141 12.3831 1.4668 9.82452 1.4668C7.26599 1.4668 5.11554 2.94141 4.547 4.9187H15.1021ZM3.83582 4.9187C4.42822 2.68188 6.88843 1 9.82452 1C12.7606 1 15.2208 2.68188 15.8132 4.9187H16.5486C17.4456 4.9187 18.1946 5.62988 18.2535 6.53784L18.9279 16.9355C18.9588 17.4121 18.7919 17.885 18.47 18.2339C18.1484 18.5825 17.6938 18.7822 17.223 18.7822H2.71539C2.24451 18.7822 1.78986 18.5825 1.46814 18.2339C1.14624 17.885 0.979492 17.4121 1.01025 16.9355L1.68463 6.53809C1.74371 5.62988 2.49274 4.9187 3.38977 4.9187H3.83582Z" fill="#86A4EB"/>
<path d="M15.1021 4.9187V5.4187H15.7661L15.5826 4.78053L15.1021 4.9187ZM4.547 4.9187L4.06647 4.78053L3.88297 5.4187H4.547V4.9187ZM3.83582 4.9187V5.4187H4.22063L4.31915 5.04671L3.83582 4.9187ZM15.8132 4.9187L15.3299 5.04671L15.4284 5.4187H15.8132V4.9187ZM18.2535 6.53784L18.7525 6.50548L18.7525 6.50544L18.2535 6.53784ZM18.9279 16.9355L18.4289 16.9679L18.4289 16.9679L18.9279 16.9355ZM18.47 18.2339L18.1025 17.8948L18.1024 17.8949L18.47 18.2339ZM1.46814 18.2339L1.10066 18.5729L1.10069 18.573L1.46814 18.2339ZM1.01025 16.9355L0.511302 16.9032L0.511292 16.9033L1.01025 16.9355ZM1.68463 6.53809L1.18569 6.50563L1.18568 6.50572L1.68463 6.53809ZM15.5826 4.78053C14.9392 2.54297 12.5541 0.966797 9.82452 0.966797V1.9668C12.212 1.9668 14.1278 3.33984 14.6215 5.05687L15.5826 4.78053ZM9.82452 0.966797C7.0949 0.966797 4.70984 2.54297 4.06647 4.78053L5.02753 5.05687C5.52123 3.33984 7.43708 1.9668 9.82452 1.9668V0.966797ZM4.547 5.4187H15.1021V4.4187H4.547V5.4187ZM4.31915 5.04671C4.83899 3.08389 7.05323 1.5 9.82452 1.5V0.5C6.72363 0.5 4.01745 2.27988 3.35248 4.79069L4.31915 5.04671ZM9.82452 1.5C12.5958 1.5 14.8101 3.08389 15.3299 5.04671L16.2966 4.79069C15.6316 2.27988 12.9254 0.5 9.82452 0.5V1.5ZM15.8132 5.4187H16.5486V4.4187H15.8132V5.4187ZM16.5486 5.4187C17.176 5.4187 17.7123 5.91927 17.7546 6.57024L18.7525 6.50544C18.6768 5.3405 17.7151 4.4187 16.5486 4.4187V5.4187ZM17.7546 6.5702L18.4289 16.9679L19.4268 16.9032L18.7525 6.50548L17.7546 6.5702ZM18.4289 16.9679C18.451 17.3087 18.3311 17.6471 18.1025 17.8948L18.8374 18.5729C19.2527 18.1229 19.4666 17.5155 19.4268 16.9031L18.4289 16.9679ZM18.1024 17.8949C17.8749 18.1416 17.5532 18.2822 17.223 18.2822V19.2822C17.8343 19.2822 18.422 19.0235 18.8375 18.5729L18.1024 17.8949ZM17.223 18.2822H2.71539V19.2822H17.223V18.2822ZM2.71539 18.2822C2.38507 18.2822 2.06332 18.1416 1.83559 17.8948L1.10069 18.573C1.51639 19.0235 2.10395 19.2822 2.71539 19.2822V18.2822ZM1.83562 17.8948C1.60715 17.6472 1.4872 17.3088 1.50922 16.9678L0.511292 16.9033C0.47178 17.5155 0.685331 18.1228 1.10066 18.5729L1.83562 17.8948ZM1.50921 16.9679L2.18358 6.57045L1.18568 6.50572L0.511302 16.9032L1.50921 16.9679ZM2.18358 6.57054C2.22595 5.91924 2.76234 5.4187 3.38977 5.4187V4.4187C2.22314 4.4187 1.26148 5.34053 1.18569 6.50563L2.18358 6.57054ZM3.38977 5.4187H3.83582V4.4187H3.38977V5.4187Z" fill="#86A4EB"/>
</svg>
