<svg width="19" height="21" viewBox="0 0 19 21" fill="none" xmlns="http://www.w3.org/2000/svg">
<path fill-rule="evenodd" clip-rule="evenodd" d="M8.84662 0.663574C8.84662 0.297607 9.13898 0 9.50018 0C9.85986 0 10.1523 0.297607 10.1523 0.663574V2.05884C10.1523 2.42627 9.85986 2.72217 9.50018 2.72217C9.13898 2.72217 8.84662 2.42627 8.84662 2.05884V0.663574ZM15.2078 9.80493C15.2078 6.59692 12.6518 3.99609 9.50018 3.99609C6.34833 3.99609 3.79205 6.59692 3.79205 9.80493V16.5244C3.79205 16.7393 3.96234 16.9121 4.17334 16.9121H14.8253C15.0365 16.9121 15.2078 16.7393 15.2078 16.5244V9.80493ZM9.29474 4.91675C9.54266 4.90552 9.75262 5.10205 9.76343 5.35425C9.77374 5.60815 9.58112 5.81982 9.33289 5.83057C7.24054 5.92261 5.59052 7.67285 5.59052 9.80493V14.5999C5.59052 14.8523 5.39008 15.0564 5.14069 15.0564C4.89276 15.0564 4.6908 14.8523 4.6908 14.5999V9.80518C4.6908 7.18433 6.72186 5.02856 9.29474 4.91675ZM3.30554 2.29419C3.02875 2.5293 2.99335 2.948 3.22443 3.22852L4.10785 4.2981C4.33893 4.57861 4.75061 4.61597 5.02618 4.37939C5.3017 4.14429 5.33813 3.72559 5.10706 3.44507L4.22388 2.37476C3.9928 2.09473 3.58136 2.05737 3.30554 2.29419ZM0.53949 8.87036C0.18457 8.80664 -0.0525513 8.4624 0.0100098 8.10132C0.0712891 7.74146 0.411377 7.50024 0.766296 7.5625L2.11621 7.80566C2.47162 7.86938 2.70746 8.21338 2.64441 8.57471C2.58313 8.93628 2.24506 9.17578 1.88989 9.1123L0.53949 8.87036ZM15.6929 2.29419C15.97 2.5293 16.0054 2.948 15.7743 3.22852L14.8926 4.2981C14.6616 4.57861 14.2496 4.61597 13.9743 4.37939C13.6987 4.14429 13.6618 3.72559 13.8929 3.44507L14.7745 2.37476C15.0074 2.09473 15.4176 2.05737 15.6929 2.29419ZM18.4601 8.87036C18.8153 8.80664 19.0527 8.4624 18.9899 8.10132C18.9271 7.74146 18.589 7.50024 18.2333 7.5625L16.8822 7.80566C16.5286 7.86938 16.293 8.21338 16.3537 8.57471C16.4165 8.93628 16.7551 9.17578 17.1083 9.1123L18.4601 8.87036ZM1.92474 21H17.0739C17.2849 21 17.455 20.8257 17.4552 20.6108C17.4552 20.5813 17.4518 20.5522 17.4452 20.5234C17.4417 20.5083 17.4373 20.4934 17.4321 20.4785L16.5288 17.959C16.4733 17.8062 16.3331 17.7036 16.1721 17.7036H2.828C2.66724 17.7036 2.52356 17.8062 2.47009 17.959L1.56836 20.4785C1.49475 20.6809 1.59747 20.9036 1.79468 20.9768C1.83759 20.9924 1.88055 21 1.92474 21Z" fill="#86A4EB"/>
</svg>
