<svg width="111" height="85" viewBox="0 0 111 85" fill="none" xmlns="http://www.w3.org/2000/svg">
<path opacity="0.1" d="M103.245 48.0905C99.189 54.208 100.216 62.7109 102.258 69.4459C102.945 71.7004 103.723 74.083 103.261 76.5749C102.696 79.6223 100.393 81.9694 98.0327 83.2833C93.731 85.6796 88.7377 85.4827 85.0333 82.7721C81.8318 80.4289 79.6559 76.4311 76.3886 74.2032C70.9277 70.488 63.6357 72.4756 57.3389 75.6687C52.8839 77.9252 47.9928 80.8032 43.7706 78.9978C40.8 77.7273 38.8746 74.3056 37.9178 70.6111C37.4561 68.8274 37.1535 66.8841 36.1692 65.5081C35.5798 64.6906 34.7939 64.1292 33.9795 63.6732C26.5421 59.4636 16.7294 62.575 9.53372 57.8414C4.67796 54.6502 1.78887 48.2343 0.710246 41.4235C-0.368375 34.6127 0.163077 27.3685 0.884122 20.2395C1.39593 15.174 2.12974 9.75484 4.94811 5.69395C7.92954 1.39864 12.7657 -0.430385 17.031 0.0847364C21.2964 0.599858 25.047 3.15084 28.3114 6.23074C32.3911 10.072 36.1083 14.9435 41.2882 16.2771C44.8158 17.1882 48.6175 16.3332 52.3249 15.8831C58.5236 15.1395 64.6662 15.5532 70.7676 16.0446C76.6096 16.5154 82.489 17.068 87.9754 19.0753C91.8577 20.4956 94.8853 23.3243 98.5249 25.2055C100.897 26.4318 103.54 26.6465 105.763 28.2588C108.502 30.2435 110.922 33.8424 109.97 38.2894C109.066 42.5237 105.397 44.8402 103.245 48.0905Z" fill="#C449AB"/>
<rect opacity="0.1" x="86.6237" y="25.2559" width="4.01683" height="6.09676" fill="#C449AB"/>
<rect opacity="0.1" x="87.0137" y="25.8486" width="3.23586" height="4.91089" fill="#C449AB"/>
<rect opacity="0.1" x="78.4702" y="21.0205" width="6.16916" height="6.09676" fill="#C449AB"/>
<rect opacity="0.1" x="79.0695" y="21.6133" width="4.96971" height="4.91089" fill="#C449AB"/>
<rect opacity="0.1" x="6.44617" y="11.9492" width="18.8562" height="0.503302" fill="#C449AB"/>
<rect opacity="0.1" x="6.44617" y="14.4106" width="18.8562" height="0.503302" fill="#C449AB"/>
<rect x="38.2557" y="44.5811" width="1.92639" height="21.5839" fill="#D6D6E3"/>
<path d="M96.4511 46.8477V26.9382C96.4517 25.7827 97.3861 24.8462 98.5386 24.8462C99.6896 24.8484 100.622 25.7842 100.622 26.9382V51.0337C100.622 52.1896 99.6876 53.1267 98.5347 53.1267H85.606C84.4531 53.1267 83.5185 52.1896 83.5185 51.0337C83.5185 49.8778 84.4531 48.9407 85.606 48.9407H94.3636C95.5165 48.9407 96.4511 48.0036 96.4511 46.8477Z" fill="#AEBEE1"/>
<path d="M96.4511 46.8477V26.9382C96.4517 25.7827 97.3861 24.8462 98.5386 24.8462C99.6896 24.8484 100.622 25.7842 100.622 26.9382V51.0337C100.622 52.1896 99.6876 53.1267 98.5347 53.1267H85.606C84.4531 53.1267 83.5185 52.1896 83.5185 51.0337C83.5185 49.8778 84.4531 48.9407 85.606 48.9407H94.3636C95.5165 48.9407 96.4511 48.0036 96.4511 46.8477Z" fill="#535461"/>
<path d="M83.5214 50.9214C83.5809 49.8107 84.4966 48.9407 85.606 48.9407H94.3636C95.5165 48.9407 96.4511 48.0036 96.4511 46.8477V26.9382C96.4504 25.8208 97.3252 24.8998 98.4384 24.8462V50.9214H83.5214Z" fill="#D6D6E3"/>
<path d="M19.0085 47.5191V27.6096C19.0085 26.4556 18.0769 25.5193 16.9259 25.5166C15.773 25.5166 14.8384 26.4537 14.8384 27.6096V51.7051C14.8371 52.261 15.0564 52.7946 15.4481 53.1882C15.8397 53.5818 16.3714 53.803 16.9259 53.803H29.8536C31.0065 53.803 31.9411 52.8659 31.9411 51.71C31.9411 50.5541 31.0065 49.617 29.8536 49.617H21.0969C20.5423 49.6173 20.0103 49.3962 19.6185 49.0026C19.2266 48.609 19.0072 48.0752 19.0085 47.5191Z" fill="#AEBEE1"/>
<path d="M19.0085 47.5191V27.6096C19.0085 26.4556 18.0769 25.5193 16.9259 25.5166C15.773 25.5166 14.8384 26.4537 14.8384 27.6096V51.7051C14.8371 52.261 15.0564 52.7946 15.4481 53.1882C15.8397 53.5818 16.3714 53.803 16.9259 53.803H29.8536C31.0065 53.803 31.9411 52.8659 31.9411 51.71C31.9411 50.5541 31.0065 49.617 29.8536 49.617H21.0969C20.5423 49.6173 20.0103 49.3962 19.6185 49.0026C19.2266 48.609 19.0072 48.0752 19.0085 47.5191Z" fill="#535461"/>
<path d="M31.9382 51.5928C31.8787 50.482 30.9631 49.612 29.8537 49.6121H21.097C20.5432 49.6123 20.012 49.3919 19.6203 48.9994C19.2286 48.6068 19.0085 48.0743 19.0085 47.5191V27.6096C19.0083 26.494 18.1355 25.5747 17.0242 25.5195V51.5928H31.9382Z" fill="#D6D6E3"/>
<rect x="76.368" y="44.5811" width="1.92639" height="22.0872" fill="#D6D6E3"/>
<rect opacity="0.1" x="38.2557" y="44.5811" width="1.92639" height="1.5956" fill="black"/>
<rect opacity="0.1" x="76.368" y="44.5811" width="1.92639" height="1.5956" fill="black"/>
<path opacity="0.1" d="M45.1645 31.437C45.1315 31.7771 45.0897 32.1219 45.0391 32.4712H44.7471V31.437H45.1645Z" fill="black"/>
<path d="M53.0293 42.1807C53.0352 42.5303 52.7837 42.817 52.4723 42.817H46.5929V42.2024H51.485C51.6962 42.2024 51.8279 41.9463 51.7218 41.7414L47.2855 32.6948C47.2215 32.5619 47.0888 32.4759 46.9416 32.4722H44.7471V31.438H47.5183C47.6212 31.4406 47.7141 31.5006 47.759 31.5936L52.8446 41.443C52.9618 41.6714 53.025 41.9238 53.0293 42.1807Z" fill="#535461"/>
<path d="M42.2313 40.5402L42.1507 40.6761L41.3973 40.1718L43.7284 22.1997H44.3286C44.3286 22.1997 44.3532 22.2824 44.3934 22.44C44.7952 23.9933 46.7688 32.7897 42.2313 40.5402Z" fill="#535461"/>
<path opacity="0.1" d="M44.3925 22.44L42.2313 40.5402L42.1507 40.6761L41.3973 40.1718L43.7284 22.1997H44.3286C44.3286 22.1997 44.3522 22.2854 44.3925 22.44Z" fill="black"/>
<rect x="40.7136" y="40.501" width="18.5949" height="1.42816" transform="rotate(-83.17 40.7136 40.501)" fill="#D6D6E3"/>
<path d="M35.8686 42.1997C35.868 42.299 35.7931 42.3794 35.7006 42.38H35.4491C35.3563 42.38 35.2811 42.2993 35.2811 42.1997C35.2803 42.1927 35.2803 42.1856 35.2811 42.1786C35.2915 42.0886 35.3626 42.0209 35.4471 42.0205H35.6986C35.7754 42.0214 35.842 42.0777 35.8607 42.1575C35.865 42.1712 35.8676 42.1853 35.8686 42.1997Z" fill="#E3EDF9"/>
<path d="M36.6221 42.1997C36.6215 42.299 36.5466 42.3794 36.4541 42.38H36.2026C36.1098 42.38 36.0346 42.2993 36.0346 42.1997C36.0347 42.1829 36.037 42.1662 36.0415 42.1502C36.0489 42.1209 36.0635 42.0944 36.0837 42.0732C36.1148 42.0393 36.1573 42.0203 36.2016 42.0205H36.4531C36.5193 42.0202 36.5796 42.0614 36.6073 42.1259C36.6169 42.1492 36.6219 42.1743 36.6221 42.1997Z" fill="#E3EDF9"/>
<path d="M37.292 42.1998C37.2915 42.2991 37.2166 42.3795 37.124 42.38H36.8725C36.7798 42.38 36.7046 42.2993 36.7046 42.1998C36.7041 42.174 36.7092 42.1484 36.7193 42.1249C36.7471 42.0615 36.8062 42.0205 36.8716 42.0195H37.123C37.1677 42.0193 37.2105 42.0382 37.2421 42.072C37.2737 42.1059 37.2913 42.1519 37.291 42.1998H37.292Z" fill="#E3EDF9"/>
<path d="M38.0464 42.1997C38.0459 42.299 37.971 42.3794 37.8784 42.38H37.627C37.5644 42.3799 37.507 42.3425 37.4781 42.2829C37.4492 42.2233 37.4536 42.1515 37.4894 42.0964L37.5091 42.0732C37.5401 42.0393 37.5826 42.0203 37.627 42.0205H37.8784C37.9247 42.0211 37.9688 42.0421 38.0003 42.0785C38.0298 42.1109 38.0463 42.1544 38.0464 42.1997Z" fill="#E3EDF9"/>
<path opacity="0.1" d="M35.8636 42.1475C35.867 42.1616 35.8687 42.1761 35.8686 42.1907C35.868 42.29 35.7931 42.3704 35.7006 42.3709H35.4491C35.3563 42.3709 35.2811 42.2902 35.2811 42.1907C35.2803 42.1837 35.2803 42.1766 35.2811 42.1696L35.8636 42.1475Z" fill="black"/>
<path opacity="0.1" d="M36.6083 42.1206C36.6171 42.143 36.6218 42.167 36.6221 42.1912C36.6215 42.2905 36.5466 42.3709 36.4541 42.3715H36.2026C36.1098 42.3715 36.0346 42.2908 36.0346 42.1912C36.0347 42.1745 36.037 42.1578 36.0415 42.1417L36.6083 42.1206Z" fill="black"/>
<path opacity="0.1" d="M37.2674 42.0981C37.284 42.1266 37.2928 42.1595 37.293 42.193C37.2924 42.2923 37.2175 42.3727 37.125 42.3733H36.8735C36.7807 42.3733 36.7055 42.2926 36.7055 42.193C36.7051 42.1672 36.7101 42.1416 36.7203 42.1182L37.2674 42.0981Z" fill="black"/>
<path opacity="0.1" d="M38.0464 42.196C38.0459 42.2953 37.971 42.3757 37.8784 42.3763H37.627C37.5644 42.3762 37.507 42.3388 37.4781 42.2792C37.4492 42.2196 37.4536 42.1478 37.4894 42.0927L38.0003 42.0737C38.03 42.1064 38.0466 42.1503 38.0464 42.196Z" fill="black"/>
<path d="M39.5534 42.8596H34.6957V42.638C34.6956 42.4335 34.8572 42.2657 35.0611 42.2588L38.9571 42.1239C39.1135 42.1185 39.2654 42.1771 39.378 42.286C39.4905 42.395 39.5542 42.5451 39.5544 42.702L39.5534 42.8596Z" fill="#D6D6E3"/>
<path d="M63.5198 42.1807C63.5139 42.5303 63.7654 42.817 64.0768 42.817H69.9591V42.2024H65.0611C64.8499 42.2024 64.7183 41.9463 64.8244 41.7414L69.2607 32.6948C69.3247 32.5619 69.4574 32.4759 69.6045 32.4722H71.8001V31.438H69.0308C68.9295 31.4418 68.8385 31.5013 68.7941 31.5926L63.7084 41.442C63.5897 41.6704 63.5252 41.9232 63.5198 42.1807Z" fill="#535461"/>
<path d="M74.3188 40.5402L74.3993 40.6761L75.1528 40.1718L72.8217 22.1997H72.2215C72.2215 22.1997 72.1969 22.2824 72.1566 22.44C71.7539 23.9933 69.7764 32.7897 74.3188 40.5402Z" fill="#535461"/>
<path opacity="0.1" d="M72.1566 22.44L74.3178 40.5402L74.3983 40.6761L75.1518 40.1718L72.8217 22.1997H72.2215C72.2215 22.1997 72.1969 22.2854 72.1566 22.44Z" fill="black"/>
<rect x="72.2068" y="22.1812" width="1.42441" height="18.6439" transform="rotate(-6.83 72.2068 22.1812)" fill="#D6D6E3"/>
<path d="M80.6805 42.1997C80.681 42.299 80.7559 42.3794 80.8485 42.38H81.0999C81.1927 42.38 81.2679 42.2993 81.2679 42.1997C81.2687 42.1927 81.2687 42.1856 81.2679 42.1786C81.2575 42.0886 81.1864 42.0209 81.1019 42.0205H80.8504C80.7737 42.0214 80.7071 42.0777 80.6883 42.1575C80.684 42.1712 80.6814 42.1853 80.6805 42.1997H80.6805Z" fill="#E3EDF9"/>
<path d="M79.927 42.1997C79.9275 42.299 80.0024 42.3794 80.095 42.38H80.3465C80.391 42.38 80.4338 42.361 80.4653 42.3272C80.4968 42.2934 80.5145 42.2475 80.5145 42.1997C80.5144 42.1829 80.512 42.1662 80.5076 42.1502C80.5002 42.1209 80.4856 42.0944 80.4653 42.0732C80.4343 42.0393 80.3918 42.0203 80.3475 42.0205H80.0911C80.0248 42.0202 79.9646 42.0614 79.9368 42.1259C79.9289 42.1496 79.9256 42.1747 79.927 42.1997Z" fill="#E3EDF9"/>
<path d="M79.2571 42.1998C79.2576 42.2991 79.3325 42.3795 79.4251 42.38H79.6765C79.7693 42.38 79.8445 42.2993 79.8445 42.1998C79.845 42.174 79.8399 42.1484 79.8298 42.1249C79.802 42.0615 79.7429 42.0205 79.6775 42.0195H79.426C79.3814 42.0193 79.3385 42.0382 79.307 42.072C79.2754 42.1059 79.2578 42.1519 79.2581 42.1998H79.2571Z" fill="#E3EDF9"/>
<path d="M78.5026 42.1997C78.5032 42.299 78.5781 42.3794 78.6706 42.38H78.9221C78.9847 42.3799 79.0421 42.3425 79.071 42.2829C79.0999 42.2233 79.0955 42.1515 79.0596 42.0964L79.04 42.0732C79.0089 42.0393 78.9664 42.0203 78.9221 42.0205H78.6706C78.6243 42.0211 78.5803 42.0421 78.5488 42.0785C78.5193 42.1109 78.5027 42.1544 78.5026 42.1997Z" fill="#E3EDF9"/>
<path opacity="0.1" d="M80.6854 42.1475C80.682 42.1616 80.6804 42.1761 80.6805 42.1907C80.681 42.29 80.7559 42.3704 80.8485 42.3709H81.1C81.1927 42.3709 81.2679 42.2902 81.2679 42.1907C81.2687 42.1837 81.2687 42.1766 81.2679 42.1696L80.6854 42.1475Z" fill="black"/>
<path opacity="0.1" d="M79.9408 42.1206C79.9319 42.143 79.9272 42.167 79.927 42.1912C79.9275 42.2905 80.0024 42.3709 80.095 42.3715H80.3465C80.4392 42.3715 80.5144 42.2908 80.5144 42.1912C80.5144 42.1745 80.512 42.1578 80.5076 42.1417L79.9408 42.1206Z" fill="black"/>
<path opacity="0.1" d="M79.2816 42.0981C79.2651 42.1266 79.2563 42.1595 79.2561 42.193C79.2566 42.2923 79.3315 42.3727 79.4241 42.3733H79.6756C79.7683 42.3733 79.8435 42.2926 79.8435 42.193C79.844 42.1672 79.8389 42.1416 79.8288 42.1182L79.2816 42.0981Z" fill="black"/>
<path opacity="0.1" d="M78.5026 42.196C78.5032 42.2953 78.5781 42.3757 78.6706 42.3763H78.9221C78.9847 42.3762 79.0421 42.3388 79.071 42.2792C79.0999 42.2196 79.0955 42.1478 79.0596 42.0927L78.5488 42.0737C78.519 42.1064 78.5025 42.1503 78.5026 42.196Z" fill="black"/>
<path d="M76.9957 42.8596H81.8534V42.638C81.8535 42.4335 81.6918 42.2657 81.488 42.2588L77.592 42.1239C77.4356 42.1185 77.2837 42.1771 77.1711 42.286C77.0585 42.395 76.9949 42.5451 76.9947 42.702L76.9957 42.8596Z" fill="#D6D6E3"/>
<path d="M97.3284 45.5295C99.5947 41.6754 98.7734 33.9013 98.8648 33.7526C98.9463 33.6216 98.6339 29.9606 96.5513 29.0662C96.1751 28.3187 95.8047 27.4766 95.8047 27.4766C95.7683 27.5109 95.7281 27.5409 95.6849 27.5662C95.6685 27.5215 95.6525 27.4762 95.6368 27.4303C95.6102 27.3525 95.5857 27.2727 95.5611 27.1929C95.6194 27.2116 95.6788 27.2267 95.7389 27.2382C95.8977 27.2771 96.0649 27.2622 96.2144 27.1958C96.2653 27.1684 96.3115 27.1328 96.3509 27.0905C96.515 26.9811 96.6054 26.7841 96.682 26.598L97.2881 25.1423C97.5612 24.4853 97.8362 23.8244 97.9816 23.1281C98.198 22.0801 98.1142 20.9922 97.74 19.9901C97.5966 19.6079 97.3981 19.2257 97.0612 18.9972C96.3863 18.5383 95.4472 18.8554 94.676 18.5865C94.4226 18.4979 94.1937 18.3482 93.9402 18.2576C93.3931 18.0606 92.7752 18.166 92.2486 18.4112C91.7221 18.6564 91.2958 19.0465 90.835 19.3961C90.6081 19.5705 90.2456 19.7507 89.9784 19.9871C89.7191 20.19 89.5197 20.4352 89.558 20.7583C89.6012 21.1277 89.9892 21.3493 90.3507 21.4359C90.4107 21.4497 90.4725 21.4606 90.5334 21.4714C89.6607 22.3579 89.3159 23.6385 89.6251 24.845C89.9344 26.0514 90.8524 27.0066 92.0433 27.3613C92.2277 27.7084 92.3872 28.0681 92.5207 28.4379C92.5384 28.4884 92.5558 28.5393 92.5728 28.5905C91.9775 28.7599 91.5119 28.9008 91.4185 28.9786C91.1366 29.213 91.727 31.2656 91.727 31.2656C91.5767 31.4567 91.4235 31.6744 91.2682 31.9078C90.0912 33.7003 89.346 35.7427 89.0914 37.8735C88.9931 38.6526 88.8654 39.4494 88.7033 40.2069L81.6628 38.7915L81.6481 38.9658L81.4801 38.9245L80.9516 38.7935L80.931 38.9126L80.8504 38.8742C79.5409 38.2587 77.3346 37.4727 75.8404 38.2833C74.2638 39.1343 77.6666 40.265 79.8504 40.8668C79.1264 40.9022 78.4338 41.0766 77.8857 41.4843C76.3021 42.6741 80.7807 43.2936 82.8957 43.5133L82.9811 43.5222V43.5675L83.714 43.6354L83.8859 43.6512L83.9026 43.9132C83.9026 43.9132 84.9517 44.0855 86.3535 44.2943C84.7533 44.6952 82.7758 44.973 81.4025 45.1355C79.9467 45.3069 78.7069 46.3233 78.3159 47.7406C78.1896 48.1471 78.1773 48.5805 78.2806 48.9935C78.6892 50.4246 78.1902 60.9526 78.0772 63.2199L75.4887 64.714C75.4887 64.714 71.4611 65.2065 74.1439 66.153C74.3856 66.2358 74.6328 66.3016 74.8836 66.35C74.53 66.5785 74.5604 66.877 75.6027 67.2434C78.2875 68.1869 84.5283 67.202 84.5283 67.202C84.5283 67.202 84.3918 66.093 84.1698 65.1711L84.2385 65.177C84.2385 65.177 83.5941 62.7727 84.5716 61.5603C85.549 60.3478 84.4075 51.1199 84.4075 51.1199C84.4075 51.1199 86.1188 50.4098 91.2339 50.3635C95.3597 51.4253 97.3706 47.6244 97.3421 45.6595C97.3333 45.6151 97.3313 45.5698 97.3284 45.5295Z" fill="url(#paint0_linear)"/>
<path d="M82.0803 39.5572L81.6432 41.3301C81.6432 41.3301 81.2502 41.2415 80.6608 41.0898C78.6647 40.5717 74.4543 39.3278 76.142 38.4147C77.5969 37.6268 79.7394 38.393 81.0115 38.9909C81.4772 39.2105 81.8269 39.4075 81.9831 39.5001C82.0489 39.5375 82.0803 39.5572 82.0803 39.5572Z" fill="#F8B9BF"/>
<path opacity="0.1" d="M81.9575 40.0573L81.6432 41.3378C81.6432 41.3378 81.2502 41.2491 80.6608 41.0974L81.0155 38.9985C81.4811 39.2182 81.8308 39.4152 81.987 39.5077L81.9575 40.0573Z" fill="black"/>
<path d="M81.9585 41.4591L80.7385 41.1568L81.1177 38.915L82.0931 39.1563L81.9585 41.4591Z" fill="#D9DFE8"/>
<path opacity="0.1" d="M81.9585 41.459L81.432 41.329L81.6304 39.042L82.0931 39.1562L81.9585 41.459Z" fill="black"/>
<path d="M93.731 32.1739C93.731 32.1739 91.3881 30.8166 90.3468 34.7101C89.3055 38.6035 89.2073 40.3971 89.2073 40.3971L81.8082 38.9138L81.5734 41.6233C81.5734 41.6233 89.4843 44.1842 90.4794 43.998C91.4745 43.8119 94.7035 38.3839 94.7035 38.3839C94.7035 38.3839 97.6388 34.1772 93.731 32.1739Z" fill="#C449AB"/>
<g opacity="0.1">
<path d="M82.0803 39.5568L81.6432 41.3296C81.6432 41.3296 81.2502 41.241 80.6608 41.0893C78.6647 40.5712 74.4543 39.3273 76.142 38.4142C77.5969 37.6263 79.7394 38.3926 81.0115 38.9904C81.4772 39.2101 81.8269 39.407 81.9831 39.4996C82.0489 39.5371 82.0803 39.5568 82.0803 39.5568Z" fill="black"/>
<path opacity="0.1" d="M81.9575 40.0573L81.6432 41.3378C81.6432 41.3378 81.2502 41.2491 80.6608 41.0974L81.0155 38.9985C81.4811 39.2182 81.8308 39.4152 81.987 39.5077L81.9575 40.0573Z" fill="black"/>
<path d="M81.9585 41.4586L80.7385 41.1563L81.1177 38.9146L82.0931 39.1559L81.9585 41.4586Z" fill="black"/>
<path opacity="0.1" d="M81.9585 41.4585L81.432 41.3285L81.6304 39.0415L82.0931 39.1558L81.9585 41.4585Z" fill="black"/>
<path d="M93.731 32.272C93.731 32.272 91.3881 30.9148 90.3468 34.8082C89.3055 38.7017 89.2073 40.4952 89.2073 40.4952L81.8082 39.0119L81.5734 41.7215C81.5734 41.7215 89.4843 44.2823 90.4794 44.0962C91.4745 43.91 94.7035 38.482 94.7035 38.482C94.7035 38.482 97.6388 34.2754 93.731 32.272Z" fill="black"/>
</g>
<path d="M78.8288 62.3425L75.8081 64.0868C75.8081 64.0868 71.8944 64.5675 74.5015 65.4835C77.1087 66.3995 83.1698 65.4431 83.1698 65.4431C83.1698 65.4431 82.8328 62.7129 82.3633 62.3317C81.8937 61.9505 78.8288 62.3425 78.8288 62.3425Z" fill="#68739D"/>
<path d="M90.6022 42.7716C90.6022 42.7716 89.0992 43.5596 86.4292 44.2402C84.8643 44.6341 82.9055 44.9139 81.5518 45.0734C80.1346 45.2281 78.9506 46.225 78.5537 47.5978C78.4301 47.9939 78.4182 48.4166 78.5193 48.8191C78.9643 50.3783 78.3002 63.0524 78.3002 63.0524L82.8878 63.4779C82.8878 63.4779 82.2621 61.1427 83.212 59.9657C84.1619 58.7887 83.0528 49.8297 83.0528 49.8297C83.0528 49.8297 84.715 49.1402 89.6818 49.0949C94.2831 50.2768 96.179 45.2271 95.4688 43.8117C94.7585 42.3964 90.6022 42.7716 90.6022 42.7716Z" fill="#6394E2"/>
<g opacity="0.1">
<path d="M78.8287 62.3425L75.808 64.0868C75.808 64.0868 71.8943 64.5675 74.5015 65.4835C77.1086 66.3995 83.1697 65.4431 83.1697 65.4431C83.1697 65.4431 82.8328 62.7129 82.3632 62.3317C81.8937 61.9505 78.8287 62.3425 78.8287 62.3425Z" fill="black"/>
<path d="M90.6022 42.7721C90.6022 42.7721 89.0992 43.5601 86.4292 44.2407C84.8643 44.6346 82.9055 44.9143 81.5518 45.0739C80.1346 45.2285 78.9506 46.2255 78.5537 47.5983C78.4301 47.9944 78.4182 48.4171 78.5193 48.8196C78.9643 50.3788 78.3002 63.0529 78.3002 63.0529L82.8878 63.4784C82.8878 63.4784 82.2621 61.1431 83.212 59.9661C84.1619 58.7891 83.0528 49.8302 83.0528 49.8302C83.0528 49.8302 84.715 49.1407 89.6818 49.0954C94.2831 50.2773 96.179 45.2276 95.4688 43.8122C94.7585 42.3969 90.6022 42.7721 90.6022 42.7721Z" fill="black"/>
</g>
<path d="M80.2453 63.4011L77.2246 65.1454C77.2246 65.1454 73.3129 65.6221 75.9181 66.5421C78.5232 67.462 84.5863 66.5017 84.5863 66.5017C84.5863 66.5017 84.2494 63.7714 83.7798 63.3903C83.3102 63.0091 80.2453 63.4011 80.2453 63.4011Z" fill="#68739D"/>
<path d="M91.0934 50.1537C86.1267 50.199 84.4645 50.8885 84.4645 50.8885C84.4645 50.8885 85.5736 59.8514 84.6237 61.0245C83.6737 62.1975 84.2995 64.5368 84.2995 64.5368L79.7119 64.1113C79.7119 64.1113 79.7198 63.9616 79.7325 63.6937C79.8426 61.4913 80.3269 51.2677 79.929 49.878C79.8286 49.4767 79.8405 49.0555 79.9634 48.6606C80.3584 47.2859 81.5422 46.2864 82.9605 46.1303C84.3132 45.9717 86.2721 45.6959 87.8369 45.297L87.9136 45.2773C90.5364 44.6017 92.01 43.8285 92.01 43.8285C92.01 43.8285 96.1663 43.4542 96.8765 44.8696C96.9767 45.094 97.0263 45.3378 97.0219 45.5836C97.0573 47.4934 95.1024 51.185 91.0934 50.1537Z" fill="#6394E2"/>
<path d="M84.1747 41.766L84.0067 43.5881C84.0067 43.5881 83.603 43.5596 83.0028 43.4965C80.9526 43.2828 76.6037 42.682 78.1411 41.5267C79.4633 40.5339 81.6952 40.9672 83.0421 41.3691C83.5332 41.5168 83.9105 41.6596 84.0784 41.7276C84.1403 41.7512 84.1747 41.766 84.1747 41.766Z" fill="#F8B9BF"/>
<path d="M96.3765 29.8533C96.3765 29.8533 95.7616 30.3359 95.0101 30.8658C94.1859 31.053 93.2291 31.2076 92.5395 31.3081C92.786 30.5201 92.6377 29.6337 92.3597 28.8566C92.0573 28.0445 91.6422 27.2793 91.1268 26.5833L95.2841 25.2822C94.958 26.1106 95.1054 27.0551 95.3824 27.8765C95.627 28.5759 95.9611 29.2404 96.3765 29.8533Z" fill="#F8B9BF"/>
<path opacity="0.1" d="M84.1275 42.2792L84.0067 43.5882C84.0067 43.5882 83.603 43.5596 83.0027 43.4966L83.042 41.3682C83.5332 41.5159 83.9104 41.6587 84.0784 41.7267L84.1275 42.2792Z" fill="black"/>
<path d="M84.3368 43.6653L83.0853 43.5491L83.1265 41.2759L84.1275 41.3685L84.3368 43.6653Z" fill="#D9DFE8"/>
<path opacity="0.1" d="M96.3765 29.8533C96.3765 29.8533 95.7616 30.3359 95.0101 30.8658C94.1859 31.0529 93.2291 31.2076 92.5395 31.308C92.786 30.5201 92.6377 29.6336 92.3597 28.8565C93.3754 28.561 94.8283 28.1789 95.3834 27.8716C95.6272 28.5726 95.9611 29.2387 96.3765 29.8533Z" fill="black"/>
<path d="M95.5454 27.9209C95.5454 27.9209 96.2409 29.5037 96.6791 30.2188C97.1172 30.9338 91.5885 31.5977 91.5885 31.5977C91.5885 31.5977 91.0148 29.6051 91.2889 29.3766C91.563 29.1481 95.0827 28.3838 95.5454 27.9209Z" fill="#D9DFE8"/>
<path opacity="0.1" d="M97.0298 45.5846C96.7972 45.9959 96.5074 46.372 96.1692 46.7015C93.7271 49.028 89.724 46.603 87.9175 45.2773C90.5404 44.6017 92.0139 43.8285 92.0139 43.8285C92.0139 43.8285 96.1702 43.4542 96.8805 44.8696C96.9821 45.094 97.0331 45.3382 97.0298 45.5846Z" fill="black"/>
<path d="M96.185 46.5352C93.4088 49.1787 88.6209 45.6783 87.33 44.647C87.1208 44.4796 87.0039 44.3762 87.0039 44.3762C87.5137 43.8975 87.9617 42.883 88.3163 41.642C88.6468 40.4546 88.8856 39.2435 89.0305 38.0194C89.2776 35.9497 90.0014 33.966 91.1445 32.225C91.2948 31.9985 91.4392 31.7867 91.5895 31.6016C92.6377 30.265 94.399 29.416 94.399 29.416C98.1163 28.3266 98.6163 33.8551 98.5171 34.0146C98.4178 34.1742 99.412 43.4612 96.185 46.5352Z" fill="#C449AB"/>
<path opacity="0.1" d="M96.5445 38.9778C96.5445 38.9778 94.1544 44.8284 93.1986 45.1623C92.6514 45.3524 89.7289 44.9919 87.33 44.6481C87.1208 44.4807 87.0039 44.3773 87.0039 44.3773C87.5137 43.8986 87.9617 42.8841 88.3163 41.6431L91.4058 41.7908C91.4058 41.7908 91.2339 40.0041 91.6878 35.9974C92.1416 31.9907 94.6574 32.9835 94.6574 32.9835C98.8196 34.3811 96.5445 38.9778 96.5445 38.9778Z" fill="black"/>
<path opacity="0.1" d="M84.3368 43.6654L83.7965 43.6152L83.6531 41.3252L84.1276 41.3685L84.3368 43.6654Z" fill="black"/>
<path d="M94.5974 32.7255C94.5974 32.7255 92.0816 31.7337 91.6278 35.7394C91.174 39.7451 91.3459 41.5328 91.3459 41.5328L83.8083 41.1713L83.9782 43.8858C83.9782 43.8858 92.1818 45.2362 93.1377 44.9032C94.0935 44.5703 96.4836 38.7188 96.4836 38.7188C96.4836 38.7188 98.7557 34.1221 94.5974 32.7255Z" fill="#C449AB"/>
<path opacity="0.1" d="M94.7664 26.794C94.6564 26.1952 95.2802 26.203 95.5042 25.6396L91.3469 26.9407C91.6354 27.3292 91.893 27.7399 92.117 28.169C92.3327 28.2332 92.5541 28.276 92.7781 28.297C93.7693 28.3916 94.0788 27.4135 94.7664 26.794Z" fill="black"/>
<path d="M96.2998 24.8258C96.4744 22.9372 95.0808 21.2642 93.1871 21.0892C91.2935 20.9142 89.6169 22.3034 89.4424 24.1921C89.2678 26.0808 90.6614 27.7537 92.5551 27.9287C94.4487 28.1037 96.1253 26.7145 96.2998 24.8258Z" fill="#F8B9BF"/>
<path opacity="0.1" d="M89.4823 21.3987C89.5246 21.7573 89.9018 21.9759 90.2525 22.0567C90.6032 22.1374 90.9834 22.1414 91.2909 22.3295C91.782 22.6329 91.9146 23.3066 91.8528 23.8857C91.8184 24.2127 91.7693 24.6136 92.0365 24.8037C92.1204 24.8552 92.214 24.8887 92.3115 24.9022C92.5902 24.9587 92.8763 24.9687 93.1583 24.9317C93.3233 24.91 93.4933 24.8726 93.6495 24.9189C93.9069 24.9938 94.0591 25.2656 94.1092 25.5286C94.1593 25.7916 94.1318 26.0654 94.1721 26.3303C94.287 27.0094 94.8072 27.5474 95.4806 27.6836C95.6348 27.7212 95.7971 27.7067 95.9423 27.6422C96.1289 27.5438 96.2242 27.334 96.3048 27.138L96.8942 25.7236C97.1594 25.0863 97.4266 24.4432 97.5681 23.7675C97.7781 22.7498 97.6967 21.6934 97.3333 20.7201C97.1938 20.3498 97.0013 19.9785 96.6741 19.7559C96.0189 19.3097 95.1024 19.618 94.3578 19.3619C94.1112 19.2762 93.8892 19.1304 93.6436 19.0428C93.1121 18.8527 92.5119 18.9531 92.0001 19.1925C91.4883 19.4318 91.0747 19.809 90.6248 20.1528C90.2348 20.4571 89.4087 20.7792 89.4823 21.3987Z" fill="black"/>
<path d="M89.5727 21.3231C89.615 21.6816 89.9922 21.9002 90.3429 21.981C90.6936 22.0618 91.0738 22.0657 91.3812 22.2538C91.8724 22.5572 92.005 23.2309 91.9432 23.81C91.9088 24.137 91.8597 24.5379 92.1269 24.728C92.2108 24.7795 92.3044 24.813 92.4019 24.8265C92.6806 24.883 92.9667 24.893 93.2487 24.856C93.4137 24.8344 93.5837 24.7969 93.7399 24.8432C93.9972 24.9181 94.1495 25.1899 94.1996 25.4529C94.2497 25.7159 94.2222 25.9897 94.2625 26.2546C94.3774 26.9337 94.8976 27.4717 95.571 27.6079C95.7252 27.6455 95.8875 27.631 96.0327 27.5666C96.2193 27.4681 96.3146 27.2583 96.3952 27.0623L96.9846 25.6479C97.2498 25.0107 97.517 24.3675 97.6585 23.6918C97.8685 22.6742 97.7871 21.6177 97.4237 20.6444C97.2842 20.2741 97.0917 19.9028 96.7645 19.6802C96.1093 19.234 95.1928 19.5423 94.4481 19.2862C94.2016 19.2005 93.9796 19.0547 93.734 18.9671C93.2025 18.777 92.6023 18.8775 92.0905 19.1168C91.5787 19.3561 91.1651 19.7334 90.7152 20.0771C90.3262 20.3815 89.5 20.7035 89.5727 21.3231Z" fill="#B96B6B"/>
<path opacity="0.1" d="M92.4176 34.9258C92.4176 34.9258 91.1062 40.0337 89.8006 40.5064C88.4951 40.9792 89.0717 41.1132 89.0717 41.1132" fill="black"/>
<rect x="91.0541" y="53.6377" width="1.42539" height="9.39334" fill="#D6D6E3"/>
<rect opacity="0.1" x="91.0541" y="53.6377" width="1.42539" height="0.69635" fill="black"/>
<path d="M88.2023 53.5884V53.7854C88.2023 53.9079 88.2509 54.0254 88.3373 54.112C88.4237 54.1987 88.5409 54.2473 88.6631 54.2473H94.8695C94.9917 54.2473 95.1089 54.1987 95.1953 54.112C95.2817 54.0254 95.3303 53.9079 95.3303 53.7854V53.5884C95.3303 53.3333 95.124 53.1265 94.8695 53.1265H88.6631C88.5409 53.1265 88.4237 53.1751 88.3373 53.2618C88.2509 53.3484 88.2023 53.4659 88.2023 53.5884H88.2023Z" fill="#D6D6E3"/>
<path opacity="0.1" d="M88.3085 53.3067H95.2252C95.1379 53.1924 95.0073 53.1262 94.8696 53.1265H88.6631C88.5257 53.1265 88.3956 53.1927 88.3085 53.3067H88.3085Z" fill="black"/>
<rect x="85.9125" y="62.52" width="11.7106" height="1.12283" rx="0.561414" fill="#D6D6E3"/>
<path d="M96.961 65.0727C97.3549 65.0727 97.6742 64.7526 97.6742 64.3576C97.6742 63.9627 97.3549 63.6426 96.961 63.6426C96.5671 63.6426 96.2478 63.9627 96.2478 64.3576C96.2478 64.7526 96.5671 65.0727 96.961 65.0727Z" fill="#535461"/>
<path d="M86.5736 65.0727C86.9675 65.0727 87.2868 64.7526 87.2868 64.3576C87.2868 63.9627 86.9675 63.6426 86.5736 63.6426C86.1797 63.6426 85.8604 63.9627 85.8604 64.3576C85.8604 64.7526 86.1797 65.0727 86.5736 65.0727Z" fill="#535461"/>
<path d="M91.7673 65.0727C92.1612 65.0727 92.4805 64.7526 92.4805 64.3576C92.4805 63.9627 92.1612 63.6426 91.7673 63.6426C91.3734 63.6426 91.0541 63.9627 91.0541 64.3576C91.0541 64.7526 91.3734 65.0727 91.7673 65.0727Z" fill="#535461"/>
<rect x="90.2525" y="42.1001" width="11.2017" height="1.73546" rx="0.867729" fill="#D6D6E3"/>
<path opacity="0.1" d="M92.4795 62.52C92.4795 62.52 91.9196 63.1135 91.0541 62.52H92.4795Z" fill="black"/>
<path opacity="0.1" d="M101.454 42.9854V43.1223C101.454 43.5166 101.135 43.8363 100.742 43.8363H90.9647C90.5714 43.8363 90.2525 43.5166 90.2525 43.1223V42.9854H101.454Z" fill="black"/>
<rect x="80.8907" y="44.5811" width="1.92639" height="24.6096" fill="#D6D6E3"/>
<rect opacity="0.1" x="80.8907" y="44.5811" width="1.92639" height="1.5956" fill="black"/>
<rect x="22.9811" y="54.3096" width="1.42539" height="9.39334" fill="#D6D6E3"/>
<rect opacity="0.1" x="22.9811" y="54.3096" width="1.42539" height="0.69635" fill="black"/>
<path d="M27.2573 54.2612V54.4582C27.2573 54.7133 27.051 54.9201 26.7965 54.9201H20.5901C20.4679 54.9201 20.3507 54.8715 20.2643 54.7848C20.1779 54.6982 20.1293 54.5807 20.1293 54.4582V54.2612C20.1315 54.0076 20.3371 53.8032 20.5901 53.8032H26.7965C26.9187 53.8032 27.0359 53.8519 27.1223 53.9385C27.2087 54.0251 27.2573 54.1426 27.2573 54.2652V54.2612Z" fill="#D6D6E3"/>
<path opacity="0.1" d="M27.1522 53.9782H20.2344C20.3227 53.8659 20.4531 53.8017 20.59 53.8033H26.7965C26.9335 53.8017 27.0639 53.8659 27.1522 53.9782Z" fill="black"/>
<rect x="17.8385" y="63.1914" width="11.7106" height="1.12283" rx="0.561414" fill="#D6D6E3"/>
<path d="M18.5006 65.7446C18.8945 65.7446 19.2138 65.4244 19.2138 65.0295C19.2138 64.6346 18.8945 64.3145 18.5006 64.3145C18.1067 64.3145 17.7874 64.6346 17.7874 65.0295C17.7874 65.4244 18.1067 65.7446 18.5006 65.7446Z" fill="#535461"/>
<path d="M28.887 65.7446C29.2809 65.7446 29.6002 65.4244 29.6002 65.0295C29.6002 64.6346 29.2809 64.3145 28.887 64.3145C28.4931 64.3145 28.1738 64.6346 28.1738 65.0295C28.1738 65.4244 28.4931 65.7446 28.887 65.7446Z" fill="#535461"/>
<path d="M23.6934 65.7446C24.0872 65.7446 24.4065 65.4244 24.4065 65.0295C24.4065 64.6346 24.0872 64.3145 23.6934 64.3145C23.2995 64.3145 22.9802 64.6346 22.9802 65.0295C22.9802 65.4244 23.2995 65.7446 23.6934 65.7446Z" fill="#535461"/>
<path opacity="0.1" d="M22.9811 63.1914C22.9811 63.1914 23.5411 63.7849 24.4065 63.1914H22.9811Z" fill="black"/>
<path d="M59.3448 34.9139C59.3448 34.9139 57.7455 31.9995 58.33 29.4662C58.5818 28.4053 58.4836 27.291 58.0501 26.2908C57.8419 25.8177 57.591 25.3647 57.3005 24.9375" stroke="#535461" stroke-width="0.66"/>
<path d="M57.6552 23.338C57.7387 23.7202 57.2917 24.9799 57.2917 24.9799C57.2917 24.9799 56.3594 24.0245 56.275 23.6423C56.1979 23.3877 56.2697 23.1112 56.4609 22.9266C56.652 22.742 56.9303 22.6805 57.1812 22.7672C57.4321 22.854 57.6133 23.0745 57.6503 23.338H57.6552Z" fill="#C449AB"/>
<path d="M59.2593 25.2027C59.1228 25.5691 58.0648 26.3846 58.0648 26.3846C58.0648 26.3846 57.7996 25.0746 57.9371 24.7102C58.0173 24.4631 58.2261 24.2799 58.481 24.2329C58.736 24.1859 58.9961 24.2827 59.1587 24.4851C59.3213 24.6875 59.3603 24.9629 59.2603 25.2027H59.2593Z" fill="#C449AB"/>
<path d="M60.002 28.829C59.6994 29.0762 58.3762 29.2427 58.3762 29.2427C58.3762 29.2427 58.8075 27.978 59.11 27.7308C59.3054 27.5684 59.5727 27.5236 59.8102 27.6135C60.0476 27.7033 60.2187 27.914 60.2584 28.1654C60.2981 28.4167 60.2002 28.6701 60.002 28.829Z" fill="#C449AB"/>
<path d="M59.948 31.6991C59.6916 31.9946 58.4155 32.3827 58.4155 32.3827C58.4155 32.3827 58.6267 31.0629 58.8831 30.7684C59.0464 30.5688 59.3051 30.4741 59.5583 30.5212C59.8114 30.5684 60.0189 30.7499 60.0998 30.995C60.1807 31.2401 60.1222 31.5099 59.947 31.6991H59.948Z" fill="#C449AB"/>
<path d="M56.6325 26.7756C56.9646 26.9815 58.2976 26.9726 58.2976 26.9726C58.2976 26.9726 57.7082 25.774 57.3762 25.5681C57.1615 25.4266 56.8872 25.4131 56.6597 25.5329C56.4323 25.6526 56.2876 25.8867 56.282 26.1442C56.2763 26.4018 56.4106 26.642 56.6325 26.7717V26.7756Z" fill="#C449AB"/>
<path d="M56.6129 30.1342C56.9911 30.2327 58.2613 29.8269 58.2613 29.8269C58.2613 29.8269 57.3408 28.8597 56.9626 28.7632C56.592 28.6842 56.2252 28.9124 56.1314 29.2804C56.0375 29.6484 56.2499 30.0251 56.6129 30.1342Z" fill="#C449AB"/>
<path d="M57.0382 33.4C57.3938 33.5595 58.7151 33.3763 58.7151 33.3763C58.7151 33.3763 57.9705 32.2673 57.6149 32.1078C57.2587 31.9481 56.8409 32.1082 56.6816 32.4653C56.5224 32.8224 56.682 33.2413 57.0382 33.401V33.4Z" fill="#C449AB"/>
<path d="M57.6552 23.338C57.7387 23.7202 57.2917 24.9799 57.2917 24.9799C57.2917 24.9799 56.3594 24.0245 56.275 23.6423C56.1979 23.3877 56.2697 23.1112 56.4609 22.9266C56.652 22.742 56.9303 22.6805 57.1812 22.7672C57.4321 22.854 57.6133 23.0745 57.6503 23.338H57.6552Z" fill="#C449AB"/>
<path d="M59.2593 25.2027C59.1228 25.5691 58.0648 26.3846 58.0648 26.3846C58.0648 26.3846 57.7996 25.0746 57.9371 24.7102C58.0173 24.4631 58.2261 24.2799 58.481 24.2329C58.736 24.1859 58.9961 24.2827 59.1587 24.4851C59.3213 24.6875 59.3603 24.9629 59.2603 25.2027H59.2593Z" fill="#C449AB"/>
<path d="M60.002 28.829C59.6994 29.0762 58.3762 29.2427 58.3762 29.2427C58.3762 29.2427 58.8075 27.978 59.11 27.7308C59.3054 27.5684 59.5727 27.5236 59.8102 27.6135C60.0476 27.7033 60.2187 27.914 60.2584 28.1654C60.2981 28.4167 60.2002 28.6701 60.002 28.829Z" fill="#C449AB"/>
<path d="M59.948 31.6991C59.6916 31.9946 58.4155 32.3827 58.4155 32.3827C58.4155 32.3827 58.6267 31.0629 58.8831 30.7684C59.0464 30.5688 59.3051 30.4741 59.5583 30.5212C59.8114 30.5684 60.0189 30.7499 60.0998 30.995C60.1807 31.2401 60.1222 31.5099 59.947 31.6991H59.948Z" fill="#C449AB"/>
<path d="M56.6325 26.7756C56.9646 26.9815 58.2976 26.9726 58.2976 26.9726C58.2976 26.9726 57.7082 25.774 57.3762 25.5681C57.1615 25.4266 56.8872 25.4131 56.6597 25.5329C56.4323 25.6526 56.2876 25.8867 56.282 26.1442C56.2763 26.4018 56.4106 26.642 56.6325 26.7717V26.7756Z" fill="#C449AB"/>
<path d="M56.6129 30.1342C56.9911 30.2327 58.2613 29.8269 58.2613 29.8269C58.2613 29.8269 57.3408 28.8597 56.9626 28.7632C56.592 28.6842 56.2252 28.9124 56.1314 29.2804C56.0375 29.6484 56.2499 30.0251 56.6129 30.1342Z" fill="#C449AB"/>
<path d="M57.0382 33.4C57.3938 33.5595 58.7151 33.3763 58.7151 33.3763C58.7151 33.3763 57.9705 32.2673 57.6149 32.1078C57.2587 31.9481 56.8409 32.1082 56.6816 32.4653C56.5224 32.8224 56.682 33.2413 57.0382 33.401V33.4Z" fill="#C449AB"/>
<path d="M58.6945 42.9973C58.2294 42.9974 57.785 42.8046 57.4667 42.4647C57.1483 42.1248 56.9844 41.6681 57.0137 41.2027L57.4842 33.7271H59.9047L60.3753 41.2027C60.4046 41.6681 60.2406 42.1248 59.9223 42.4647C59.6039 42.8046 59.1595 42.9974 58.6945 42.9973Z" fill="#C449AB"/>
<rect opacity="0.1" x="8.31067" y="6.24658" width="1.37529" height="5.71263" fill="#C449AB"/>
<rect opacity="0.1" x="10.0789" y="6.24658" width="1.37529" height="5.71263" fill="#C449AB"/>
<rect opacity="0.1" x="11.8472" y="6.24658" width="1.37529" height="5.71263" fill="#C449AB"/>
<rect opacity="0.1" x="13.6154" y="6.24658" width="1.37529" height="5.71263" fill="#C449AB"/>
<rect opacity="0.1" x="17.1519" y="6.24658" width="1.37529" height="5.71263" fill="#C449AB"/>
<rect opacity="0.1" x="18.9201" y="6.24658" width="1.37529" height="5.71263" fill="#C449AB"/>
<rect opacity="0.1" x="8.31067" y="7.33008" width="1.37529" height="0.295481" fill="#C449AB"/>
<rect opacity="0.1" x="8.31067" y="10.8755" width="1.37529" height="0.295481" fill="#C449AB"/>
<rect opacity="0.1" x="10.0789" y="7.33008" width="1.37529" height="0.295481" fill="#C449AB"/>
<rect opacity="0.1" x="10.0789" y="10.8755" width="1.37529" height="0.295481" fill="#C449AB"/>
<rect opacity="0.1" x="11.8472" y="7.33008" width="1.37529" height="0.295481" fill="#C449AB"/>
<rect opacity="0.1" x="11.8472" y="10.8755" width="1.37529" height="0.295481" fill="#C449AB"/>
<rect opacity="0.1" x="13.6154" y="7.33008" width="1.37529" height="0.295481" fill="#C449AB"/>
<rect opacity="0.1" x="13.6154" y="10.8755" width="1.37529" height="0.295481" fill="#C449AB"/>
<rect opacity="0.1" x="15.3836" y="7.33008" width="1.37529" height="0.295481" fill="#C449AB"/>
<rect opacity="0.1" x="15.3836" y="10.8755" width="1.37529" height="0.295481" fill="#C449AB"/>
<rect opacity="0.1" x="17.1519" y="7.33008" width="1.37529" height="0.295481" fill="#C449AB"/>
<rect opacity="0.1" x="17.1519" y="10.8755" width="1.37529" height="0.295481" fill="#C449AB"/>
<rect opacity="0.1" x="18.9201" y="7.33008" width="1.37529" height="0.295481" fill="#C449AB"/>
<rect opacity="0.1" x="18.9201" y="10.8755" width="1.37529" height="0.295481" fill="#C449AB"/>
<rect opacity="0.1" x="15.3836" y="6.24658" width="1.37529" height="5.71263" fill="#C449AB"/>
<rect opacity="0.1" x="20.3375" y="6.79883" width="1.37529" height="5.71263" transform="rotate(-24.84 20.3375 6.79883)" fill="#C449AB"/>
<rect opacity="0.1" x="20.7948" y="7.78271" width="1.37529" height="0.295481" transform="rotate(-24.84 20.7948 7.78271)" fill="#C449AB"/>
<rect opacity="0.1" x="22.2797" y="11.0005" width="1.37529" height="0.295481" transform="rotate(-24.84 22.2797 11.0005)" fill="#C449AB"/>
<path d="M38.3254 65.1504L35.8293 63.5538C35.8165 61.3052 35.7811 50.8659 36.2478 49.4692C36.3681 49.0649 36.3749 48.6351 36.2674 48.2272C35.9432 46.8079 34.7605 45.7481 33.3272 45.5147C31.9755 45.2941 30.0305 44.9326 28.4646 44.4657C29.8605 44.321 30.9067 44.1959 30.9067 44.1959L30.9342 43.9368L31.8331 43.8935V43.8551L31.9185 43.8502C34.0178 43.7251 38.4757 43.3084 36.9609 42.0615C36.4413 41.634 35.7635 41.4321 35.0483 41.3642C37.235 40.8638 40.6526 39.8946 39.129 38.9836C37.681 38.1188 35.4638 38.7984 34.1406 39.351L34.0591 39.3854L34.0443 39.2663L33.5158 39.3726L33.3479 39.4061L33.34 39.2328L25.9242 40.3812C25.8661 39.5293 25.7651 38.6808 25.6217 37.8391C25.7877 36.73 26.5598 35.1128 26.2877 34.2451C25.9714 33.2375 24.6727 32.9075 24.1265 31.9974C23.9831 31.7601 23.8407 31.5375 23.7012 31.3424C23.3959 30.9265 23.0449 30.5462 22.655 30.2088C22.6786 29.6236 22.8091 29.0477 23.04 28.5098C23.1881 28.1499 23.3614 27.801 23.5587 27.4657C25.3529 27.0195 26.4908 25.2503 26.1561 23.4275C26.6256 23.6294 27.1964 23.6501 27.4901 23.2561L27.3506 23.2019C27.3644 23.1872 27.3781 23.1724 27.3899 23.1557C27.104 23.0463 26.8005 22.9222 26.5765 22.7233C26.5198 22.6594 26.4719 22.5882 26.4341 22.5115C26.2985 22.2357 26.3142 21.9048 26.1845 21.6251C26.1235 21.4977 26.0369 21.3844 25.9301 21.2922C25.7026 21.0589 25.4149 20.8939 25.099 20.8154C24.7444 20.712 24.3711 20.6598 24.0312 20.52C23.0842 19.4174 21.5707 18.9906 20.1893 19.4365L20.0665 19.4789C20.2439 18.6213 19.7034 17.7792 18.8513 17.5859C17.9993 17.3925 17.1498 17.9191 16.9416 18.7697C16.9727 18.4108 17.1236 18.0728 17.3699 17.8104C17.3444 17.8321 17.3178 17.8528 17.2933 17.8754C16.9835 18.1674 16.8021 18.5709 16.789 18.9971C16.7759 19.4232 16.9322 19.8371 17.2235 20.1477L17.252 20.1752C17.3654 20.3144 17.5012 20.4336 17.6538 20.5278C17.0811 20.3251 16.6719 19.8152 16.5968 19.211C16.5968 19.2445 16.5968 19.278 16.5968 19.3095C16.6216 19.737 16.8154 20.1369 17.1354 20.4206C17.4554 20.7042 17.875 20.8481 18.3012 20.8204L18.3454 20.8154L18.3218 20.848C17.3813 22.2349 17.5155 24.0883 18.646 25.3245C18.7112 25.4742 18.7979 25.6136 18.9034 25.7382C18.9404 25.7807 18.9801 25.8208 19.0222 25.8583C19.2913 26.1429 19.6592 26.3129 20.0498 26.3331C20.1153 26.4112 20.185 26.4864 20.259 26.5586C20.1942 26.8349 20.1095 27.1062 20.0056 27.3702C19.7962 27.896 19.5356 28.3998 19.2275 28.8742C17.1057 29.4789 16.919 33.0917 16.9956 33.2286C17.087 33.3921 16.6793 39.0653 18.2511 45.9185C18.1862 47.8776 19.3258 51.117 23.3711 50.2631C28.4302 50.5339 30.0894 51.311 30.0894 51.311C30.0894 51.311 29.609 60.1331 30.2947 61.4175C30.724 62.2222 30.4195 63.4041 30.0982 64.2383C29.9792 64.4447 29.8842 64.6641 29.8153 64.8923C29.7171 65.1002 29.6454 65.2262 29.6454 65.2262H29.7141C29.4548 66.1294 29.2711 67.2197 29.2711 67.2197C29.2711 67.2197 35.4039 68.4677 38.1014 67.6511C39.1486 67.334 39.1919 67.0405 38.852 66.7982C39.1023 66.7613 39.3498 66.707 39.5927 66.6357C42.2922 65.8192 38.3254 65.1504 38.3254 65.1504Z" fill="url(#paint1_linear)"/>
<path d="M24.9812 23.2699C24.9812 25.2282 23.3979 26.8157 21.4447 26.8157C19.4916 26.8157 17.9083 25.2282 17.9083 23.2699C17.9083 21.3116 19.4916 19.7241 21.4447 19.7241C22.3827 19.7241 23.2822 20.0977 23.9454 20.7627C24.6086 21.4276 24.9812 22.3295 24.9812 23.2699Z" fill="#FA595F"/>
<path d="M32.9471 39.9282L33.3056 41.7227C33.3056 41.7227 33.7045 41.6508 34.2949 41.5258C36.3116 41.0973 40.5731 40.0395 38.9227 39.0526C37.5032 38.2046 35.3293 38.8714 34.0326 39.4131C33.5571 39.6101 33.1995 39.7933 33.0394 39.8789C32.9795 39.9095 32.9471 39.9282 32.9471 39.9282Z" fill="#F8B9BF"/>
<path opacity="0.1" d="M33.0483 40.4345L33.3056 41.7228C33.3056 41.7228 33.7045 41.6509 34.2949 41.5258L34.0326 39.4131C33.5571 39.6101 33.1996 39.7933 33.0394 39.879L33.0483 40.4345Z" fill="black"/>
<path d="M32.9863 41.8343L34.2182 41.5871L33.9392 39.3306L32.9529 39.5285L32.9863 41.8343Z" fill="#D9DFE8"/>
<path opacity="0.1" d="M32.9863 41.8344L33.5178 41.727L33.4205 39.4351L32.9529 39.5286L32.9863 41.8344Z" fill="black"/>
<path d="M21.6324 32.0362C21.6324 32.0362 24.0303 30.7834 24.9016 34.7201C25.773 38.6569 25.7858 40.4515 25.7858 40.4515L33.2438 39.2962L33.3597 42.0136C33.3597 42.0136 25.3437 44.2228 24.3584 43.9923C23.3731 43.7619 20.3818 38.196 20.3818 38.196C20.3818 38.196 17.6411 33.8672 21.6324 32.0362Z" fill="#C449AB"/>
<g opacity="0.1">
<path d="M32.9471 39.9282L33.3056 41.7227C33.3056 41.7227 33.7045 41.6508 34.2949 41.5258C36.3116 41.0973 40.5731 40.0395 38.9227 39.0526C37.5032 38.2046 35.3293 38.8714 34.0326 39.4131C33.5571 39.6101 33.1995 39.7933 33.0394 39.8789C32.9795 39.9095 32.9471 39.9282 32.9471 39.9282Z" fill="black"/>
<path opacity="0.1" d="M33.0483 40.4345L33.3056 41.7228C33.3056 41.7228 33.7045 41.6509 34.2949 41.5258L34.0326 39.4131C33.5571 39.6101 33.1996 39.7933 33.0394 39.879L33.0483 40.4345Z" fill="black"/>
<path d="M32.9864 41.8338L34.2183 41.5866L33.9393 39.3301L32.953 39.5281L32.9864 41.8338Z" fill="black"/>
<path opacity="0.1" d="M32.9864 41.8339L33.5179 41.7265L33.4206 39.4346L32.953 39.5281L32.9864 41.8339Z" fill="black"/>
<path d="M21.8288 32.233C21.8288 32.233 24.2268 30.9801 25.0981 34.9169C25.9695 38.8537 25.9822 40.6483 25.9822 40.6483L33.4402 39.4929L33.5562 42.2104C33.5562 42.2104 25.5402 44.4196 24.5549 44.1891C23.5696 43.9586 20.5783 38.3928 20.5783 38.3928C20.5783 38.3928 17.8376 34.064 21.8288 32.233Z" fill="black"/>
</g>
<path d="M35.1976 62.836L38.1388 64.7074C38.1388 64.7074 42.0279 65.3604 39.3824 66.1611C36.737 66.9619 30.725 65.7376 30.725 65.7376C30.725 65.7376 31.1818 63.0251 31.668 62.6656C32.1543 62.3061 35.1976 62.836 35.1976 62.836Z" fill="#F37291"/>
<path d="M24.2936 42.762C24.2936 42.762 25.7602 43.6159 28.3978 44.4137C29.944 44.8815 31.8891 45.243 33.233 45.4626C34.643 45.6809 35.7819 46.7313 36.1162 48.122C36.2217 48.5218 36.2152 48.943 36.0975 49.3394C35.5847 50.8778 35.6888 63.5687 35.6888 63.5687L31.0875 63.7903C31.0875 63.7903 31.8154 61.4846 30.9185 60.2672C30.0217 59.0498 31.5237 50.149 31.5237 50.149C31.5237 50.149 29.8939 49.3866 24.9331 49.1217C20.2836 50.1066 18.6126 44.9702 19.3848 43.5873C20.1569 42.2045 24.2936 42.762 24.2936 42.762Z" fill="#96A2D0"/>
<g opacity="0.1">
<path d="M35.1976 62.836L38.1388 64.7074C38.1388 64.7074 42.0279 65.3604 39.3824 66.1611C36.737 66.9619 30.725 65.7376 30.725 65.7376C30.725 65.7376 31.1818 63.0251 31.668 62.6656C32.1543 62.3061 35.1976 62.836 35.1976 62.836Z" fill="black"/>
<path d="M24.2935 42.7624C24.2935 42.7624 25.7602 43.6164 28.3978 44.4142C29.944 44.882 31.889 45.2435 33.2329 45.4631C34.6429 45.6814 35.7818 46.7318 36.1161 48.1225C36.2216 48.5223 36.2151 48.9435 36.0974 49.3398C35.5846 50.8783 35.6888 63.5692 35.6888 63.5692L31.0874 63.7908C31.0874 63.7908 31.8154 61.4851 30.9185 60.2677C30.0216 59.0503 31.5236 50.1495 31.5236 50.1495C31.5236 50.1495 29.8939 49.3871 24.933 49.1222C20.2835 50.1071 18.6126 44.9707 19.3847 43.5878C20.1568 42.205 24.2935 42.7624 24.2935 42.7624Z" fill="black"/>
</g>
<path d="M33.732 63.8316L36.6731 65.703C36.6731 65.703 40.5623 66.356 37.9168 67.1567C35.2713 67.9575 29.2593 66.7332 29.2593 66.7332C29.2593 66.7332 29.7161 64.0207 30.2024 63.6612C30.6887 63.3017 33.732 63.8316 33.732 63.8316Z" fill="#F37291"/>
<path d="M23.4723 50.1166C28.4332 50.3816 30.0629 51.1439 30.0629 51.1439C30.0629 51.1439 29.5924 59.7936 30.2594 61.0524C30.9716 62.3879 29.6228 64.7853 29.6228 64.7853L34.2242 64.5637C34.2242 64.5637 34.2242 64.414 34.2242 64.1461C34.2104 61.9418 34.177 51.7063 34.6338 50.3343C34.7515 49.9379 34.758 49.5167 34.6525 49.1169C34.3179 47.7264 33.1791 46.6761 31.7693 46.4576C30.4244 46.2389 28.4803 45.8775 26.9341 45.4096L26.8585 45.386C24.268 44.598 22.8308 43.7579 22.8308 43.7579C22.8308 43.7579 19.7669 43.5451 18.9997 44.928C18.9014 45.1072 18.478 45.4598 18.4604 45.7445C18.3454 47.6494 19.427 50.9706 23.4723 50.1166Z" fill="#96A2D0"/>
<path d="M30.7584 42.0428L30.8459 43.8708C30.8459 43.8708 31.2506 43.86 31.8537 43.8235C33.9118 43.7004 38.2832 43.2927 36.7979 42.0703C35.5209 41.0194 33.2713 41.3543 31.9088 41.6961C31.4087 41.8221 31.0246 41.9482 30.8576 42.0083C30.7928 42.03 30.7584 42.0428 30.7584 42.0428Z" fill="#F8B9BF"/>
<path d="M19.0871 29.6024C19.0871 29.6024 19.6765 30.1116 20.4074 30.675C21.2227 30.8976 22.1756 31.0955 22.8564 31.2265C22.6452 30.4238 22.8328 29.5522 23.1442 28.7849C23.4821 27.9868 23.9306 27.2404 24.4763 26.5678L20.3799 25.0835C20.6697 25.9256 20.4781 26.8662 20.1667 27.6709C19.8918 28.3589 19.5289 29.0082 19.0871 29.6024Z" fill="#F8B9BF"/>
<path opacity="0.1" d="M30.783 42.5581L30.8458 43.871C30.8458 43.871 31.2506 43.8602 31.8537 43.8238L31.9087 41.6953C31.4087 41.8214 31.0246 41.9475 30.8576 42.0075L30.783 42.5581Z" fill="black"/>
<path d="M30.5138 43.9329L31.7683 43.8728L31.8272 41.5996L30.8232 41.6479L30.5138 43.9329Z" fill="#D9DFE8"/>
<path d="M18.5497 46.2765C21.2021 49.0412 26.1482 45.7554 27.4783 44.7823C27.6944 44.6237 27.8153 44.5262 27.8153 44.5262C27.3241 44.0249 26.5382 43.561 26.2366 42.3052C25.9489 41.0235 25.7539 39.7226 25.6531 38.4127C25.5716 37.3736 26.6423 35.3949 26.3329 34.408C26.0234 33.4211 24.7493 33.097 24.214 32.2037C24.0735 31.9712 23.934 31.7526 23.7965 31.5615C22.8082 30.1826 21.0862 29.2538 21.0862 29.2538C17.4171 27.998 17.1292 33.2517 17.2206 33.4152C17.312 33.5787 16.8925 39.3701 18.5497 46.2765Z" fill="#C449AB"/>
<path opacity="0.1" d="M18.5222 38.7099C18.5222 38.7099 20.6529 44.6609 21.5931 45.0362C22.1314 45.2509 25.0676 45.0194 27.4783 44.7821C27.6944 44.6235 27.8153 44.526 27.8153 44.526C27.3241 44.0247 26.9243 42.9915 26.6237 41.7367L23.5303 41.7475C23.5303 41.7475 23.7808 39.9746 23.5037 35.9472C23.2267 31.9198 20.6696 32.8053 20.6696 32.8053C16.4524 34.0177 18.5222 38.7099 18.5222 38.7099Z" fill="black"/>
<path opacity="0.1" d="M30.5138 43.9332L31.0551 43.9076L31.2997 41.6255L30.8232 41.6481L30.5138 43.9332Z" fill="black"/>
<path d="M20.7423 32.5492C20.7423 32.5492 23.2964 31.6697 23.5764 35.6912C23.8564 39.7127 23.6059 41.4915 23.6059 41.4915L31.1523 41.4639L30.8625 44.1685C30.8625 44.1685 22.6108 45.1535 21.6677 44.7802C20.7246 44.4069 18.5959 38.4549 18.5959 38.4549C18.5959 38.4549 16.5241 33.7617 20.7423 32.5492Z" fill="#C449AB"/>
<path opacity="0.1" d="M20.8357 26.6189C20.9722 26.028 20.3445 26.0093 20.148 25.437L24.2464 26.9144C23.9411 27.2897 23.6658 27.6885 23.4232 28.1072C23.2049 28.1617 22.9818 28.1947 22.7571 28.2057C21.761 28.2549 21.4948 27.267 20.8357 26.6189Z" fill="black"/>
<path d="M22.9913 27.8605C24.8859 27.7695 26.3477 26.1558 26.2565 24.2563C26.1652 22.3568 24.5555 20.8907 22.6609 20.9817C20.7664 21.0727 19.3046 22.6863 19.3958 24.5859C19.487 26.4854 21.0968 27.9515 22.9913 27.8605Z" fill="#F8B9BF"/>
<path opacity="0.1" d="M21.0518 35.103C21.0518 35.103 22.1382 40.2631 23.4212 40.79C24.7041 41.317 24.1226 41.4293 24.1226 41.4293" fill="black"/>
<path opacity="0.1" d="M25.5293 38.0174C25.5293 38.0174 24.6216 38.3021 23.5646 36.9419L25.5293 38.0174Z" fill="black"/>
<path d="M18.6941 21.2016C19.5622 21.2016 20.2659 20.496 20.2659 19.6257C20.2659 18.7554 19.5622 18.0498 18.6941 18.0498C17.8261 18.0498 17.1224 18.7554 17.1224 19.6257C17.1224 20.496 17.8261 21.2016 18.6941 21.2016Z" fill="#FA595F"/>
<path d="M17.59 20.4583C17.0229 19.852 17.0229 18.9085 17.59 18.3022C17.5644 18.3229 17.5389 18.3436 17.5153 18.3663C16.8827 18.9625 16.8519 19.9599 17.4465 20.5942C18.0412 21.2285 19.036 21.2593 19.6686 20.6631C19.6932 20.6405 19.7148 20.6159 19.7364 20.5922C19.0977 21.1221 18.1582 21.0635 17.59 20.4583Z" fill="#FA595F"/>
<path d="M18.4878 21.0529C17.6599 21.1029 16.9357 20.4993 16.8336 19.674C16.8336 19.7065 16.8336 19.739 16.8336 19.7725C16.8687 20.3345 17.2001 20.835 17.703 21.0855C18.206 21.336 18.804 21.2985 19.2719 20.987C19.7397 20.6755 20.0063 20.1375 19.9712 19.5755C19.9712 19.5421 19.9643 19.5105 19.9604 19.4771C19.962 20.31 19.3169 21.0004 18.4878 21.0529Z" fill="#FA595F"/>
<path opacity="0.1" d="M24.0921 20.9958C24.4586 21.1771 24.878 21.2273 25.271 21.3415C25.6639 21.4558 26.0647 21.6646 26.2376 22.0369C26.3643 22.3107 26.3496 22.6348 26.4822 22.9056C26.6728 23.2996 27.1129 23.4808 27.5176 23.6355C27.1698 24.1033 26.4233 23.9763 25.936 23.6581C25.4488 23.34 25.0293 22.8702 24.4625 22.7471C23.8895 22.6337 23.3073 22.8935 23.0076 23.3961C22.8524 23.669 22.7974 23.9871 22.7208 24.2904C22.5243 25.0902 22.1314 25.886 21.4437 26.3401C20.7561 26.7942 19.7315 26.7912 19.1922 26.1697C18.8778 25.8072 18.7727 25.3138 18.6794 24.843C18.6262 24.6235 18.6008 24.3981 18.6037 24.1723C18.6352 23.6069 19.0104 23.1253 19.3896 22.7057C19.8366 22.2132 20.312 21.7404 20.7875 21.2706C21.1981 20.8648 21.6716 20.1774 22.2905 20.1291C23.0037 20.072 23.5076 20.7092 24.0921 20.9958Z" fill="black"/>
<path d="M23.9939 20.8972C24.3603 21.0784 24.7798 21.1287 25.1728 21.2429C25.5657 21.3572 25.9665 21.566 26.1394 21.9383C26.2661 22.2121 26.2514 22.5361 26.384 22.807C26.5746 23.201 27.0147 23.3822 27.4194 23.5368C27.0716 24.0047 26.325 23.8776 25.8378 23.5595C25.3506 23.2413 24.9311 22.7715 24.3643 22.6484C23.7913 22.5351 23.2091 22.7949 22.9094 23.2975C22.7542 23.5703 22.6992 23.8885 22.6226 24.1918C22.4261 24.9916 22.0332 25.7874 21.3455 26.2415C20.6579 26.6955 19.6333 26.6926 19.094 26.0711C18.7796 25.7086 18.6745 25.2152 18.5812 24.7444C18.528 24.5248 18.5026 24.2995 18.5055 24.0736C18.537 23.5083 18.9122 23.0266 19.2914 22.607C19.7384 22.1146 20.2138 21.6418 20.6893 21.172C21.0999 20.7662 21.5734 20.0787 22.1923 20.0305C22.9055 19.9733 23.4094 20.6106 23.9939 20.8972Z" fill="#FA595F"/>
<rect x="14.0063" y="42.772" width="11.2017" height="1.73546" rx="0.867729" fill="#D6D6E3"/>
<path opacity="0.1" d="M14.0063 43.6582V43.7951C14.0063 44.1895 14.3252 44.5092 14.7186 44.5092H24.4959C24.8892 44.5092 25.2081 44.1895 25.2081 43.7951V43.6582H14.0063Z" fill="black"/>
<rect x="33.733" y="44.5811" width="1.92639" height="24.6067" fill="#D6D6E3"/>
<rect opacity="0.1" x="33.733" y="44.5811" width="1.92639" height="1.5956" fill="black"/>
<rect x="32.8115" y="42.8174" width="50.927" height="3.19119" fill="#D6D6E3"/>
<defs>
<linearGradient id="paint0_linear" x1="98.1539" y1="72.7334" x2="113.791" y2="25.7149" gradientUnits="userSpaceOnUse">
<stop stop-color="#808080" stop-opacity="0.25"/>
<stop offset="0.54" stop-color="#808080" stop-opacity="0.12"/>
<stop offset="1" stop-color="#808080" stop-opacity="0.1"/>
</linearGradient>
<linearGradient id="paint1_linear" x1="40.5317" y1="67.9249" x2="40.5317" y2="17.5573" gradientUnits="userSpaceOnUse">
<stop stop-color="#808080" stop-opacity="0.25"/>
<stop offset="0.54" stop-color="#808080" stop-opacity="0.12"/>
<stop offset="1" stop-color="#808080" stop-opacity="0.1"/>
</linearGradient>
</defs>
</svg>
