<svg width="22" height="18" viewBox="0 0 22 18" fill="none" xmlns="http://www.w3.org/2000/svg">
<path fill-rule="evenodd" clip-rule="evenodd" d="M5.30634 10.4627H20.4507C21.3028 10.4627 22 9.76552 22 8.91341C22 8.0613 21.3028 7.36411 20.4507 7.36411H5.30634L9.83803 2.71623C10.4577 2.09651 10.4577 1.08947 9.83803 0.469747C9.21831 -0.149971 8.25 -0.149971 7.63028 0.431015L0.464789 7.63524C0.15493 7.90637 0 8.29369 0 8.71975C0 9.1458 0.15493 9.53313 0.464789 9.80425L7.66901 17.0085C7.97887 17.3183 8.3662 17.4733 8.75352 17.4733C9.14085 17.4733 9.5669 17.3183 9.83803 17.0085C10.4577 16.3888 10.4577 15.4979 9.83803 14.9169L5.30634 10.4627Z" fill="#86A4EB"/>
</svg>
