<svg width="18" height="19" viewBox="0 0 18 19" fill="none" xmlns="http://www.w3.org/2000/svg">
<path fill-rule="evenodd" clip-rule="evenodd" d="M18 1C18 0.449951 17.55 0 17 0H3C2.45001 0 2 0.449951 2 1V3H1.5C0.672974 3 0 3.6731 0 4.5C0 5.3269 0.672974 6 1.5 6H2V8H1.5C0.672974 8 0 8.6731 0 9.5C0 10.3269 0.672974 11 1.5 11H2V13H1.5C0.672974 13 0 13.6731 0 14.5C0 15.3269 0.672974 16 1.5 16H2V18C2 18.55 2.45001 19 3 19H17C17.55 19 18 18.55 18 18V17V2V1ZM3.5 15H1.5C1.22498 15 1 14.7749 1 14.5C1 14.2251 1.22498 14 1.5 14H3.5C3.776 14 4 14.2251 4 14.5C4 14.7749 3.776 15 3.5 15ZM1.5 10H3.5C3.776 10 4 9.77588 4 9.5C4 9.22412 3.776 9 3.5 9H1.5C1.22498 9 1 9.22412 1 9.5C1 9.77588 1.22498 10 1.5 10ZM3.5 5H1.5C1.22498 5 1 4.77588 1 4.5C1 4.22412 1.22498 4 1.5 4H3.5C3.776 4 4 4.22412 4 4.5C4 4.77588 3.776 5 3.5 5ZM6 7H14V3H6V7Z" fill="#86A4EB"/>
</svg>
