<svg width="112" height="85" viewBox="0 0 112 85" fill="none" xmlns="http://www.w3.org/2000/svg">
<path opacity="0.1" d="M100.411 58.4724C99.7523 60.0603 98.8882 61.5825 97.6788 62.7501C96.2054 64.1726 94.3755 64.9486 92.4161 65.3196C91.8385 65.4273 91.2553 65.5028 90.6693 65.5458C89.1209 65.665 87.5355 65.5858 86.0148 65.4204C82.2901 65.0136 78.6166 64.2273 75.0516 63.0739C74.4659 62.8848 73.8837 62.6857 73.3049 62.4767C72.4315 62.1629 71.566 61.8268 70.7084 61.4684C67.215 60.0079 63.6034 58.1455 59.8869 58.7232C58.0858 59.0037 56.3935 59.8537 54.5882 60.1066C53.3211 60.2724 52.0335 60.1801 50.803 59.8352C50.2071 59.6758 49.6234 59.4742 49.0562 59.2319C47.778 58.6775 46.5617 57.9903 45.4272 57.1814C42.7043 55.2779 40.261 52.9181 37.3943 51.2695C34.2337 49.4513 30.7352 48.5869 27.1708 47.9424C26.5906 47.8376 26.0084 47.7376 25.4241 47.6423C23.775 47.3699 22.1218 47.1181 20.4922 46.8201C18.9222 46.5302 17.3244 46.1756 15.9579 45.3041C14.9828 44.6822 14.1629 43.8209 13.4107 42.9134C12.0233 41.2316 10.8332 39.3963 9.86387 37.4433C9.81249 37.3406 9.76215 37.2378 9.71283 37.135C8.20345 34.0372 7.1883 30.6598 6.56564 27.1652C6.54715 27.0625 6.52968 26.9597 6.51221 26.8569C5.92655 23.4312 5.71283 19.8894 5.77756 16.3732L5.78373 16.0649C5.8238 14.3289 5.93168 12.6001 6.09197 10.896C6.20705 9.69758 6.36117 8.45393 6.98177 7.44667C7.60237 6.43942 8.61239 5.7919 9.62344 5.25332C14.0724 2.88216 18.3375 2.22231 23.1236 3.3714C23.8921 3.55538 24.6576 3.75375 25.4231 3.95931C26.0056 4.11554 26.5882 4.2769 27.1698 4.4393C31.1914 5.55858 35.1986 6.75187 39.3578 7.10852C39.7592 7.14347 40.161 7.17019 40.563 7.18869C41.3583 7.22569 42.1536 7.23392 42.9489 7.21336C44.9975 7.15584 47.0389 6.94559 49.0562 6.58434C49.6398 6.48361 50.2221 6.37192 50.803 6.24927C53.31 5.72612 55.7945 5.02823 58.2389 4.25635C58.7382 4.09875 59.2369 3.93841 59.7349 3.77533C60.8569 3.4084 61.9789 3.03428 63.103 2.67043C66.4587 1.58301 69.835 0.589115 73.3049 0.188269C73.6015 0.154694 73.8988 0.124887 74.1967 0.0988492C74.4813 0.0741817 74.767 0.0546533 75.0516 0.0402639C80.4407 -0.247523 85.8915 1.05266 90.6693 3.71366C91.2619 4.04393 91.8441 4.39476 92.4161 4.76614C93.2086 5.2821 93.9768 5.83712 94.7207 6.43119C96.2455 7.64915 97.6727 9.03567 98.7598 10.7018C99.8191 12.3247 100.506 14.147 100.902 16.0628C100.924 16.1656 100.944 16.2684 100.963 16.3712C101.543 19.4638 101.362 22.7806 100.711 25.8794C100.642 26.2042 100.569 26.53 100.493 26.8548C100.469 26.9576 100.445 27.0604 100.42 27.1632C99.7174 30.0935 98.8194 33.0155 99.0536 36.0116C99.0834 36.3888 99.1307 36.7629 99.1923 37.1329C99.2098 37.2357 99.2273 37.3385 99.2468 37.4413C99.705 39.8854 100.747 42.2042 101.372 44.6247C102.544 49.2242 102.207 54.079 100.411 58.4724Z" fill="#C449AB"/>
<path opacity="0.1" fill-rule="evenodd" clip-rule="evenodd" d="M92.4161 16.3711H100.963C100.944 16.2681 100.924 16.1655 100.902 16.0625H92.4161V4.76611C92.1238 4.57617 91.8287 4.3916 91.5307 4.2124C91.2462 4.04102 90.9591 3.875 90.6694 3.71338V16.0625H75.0516V0.0400391L74.89 0.0483398L74.7761 0.0556641C74.5829 0.0673828 74.3896 0.081543 74.1967 0.0986328C74.0735 0.109375 73.9456 0.121094 73.816 0.133789C73.6461 0.150879 73.4733 0.168945 73.3049 0.187988V16.0625H51.0085L50.955 16.0039L63.103 2.67041C62.6592 2.81396 62.2158 2.95898 61.7726 3.10449L60.7997 3.42529L59.7349 3.7749L50.803 13.5835V6.24902C50.2214 6.37109 49.6392 6.48291 49.0562 6.58398V13.9175L42.9489 7.21094C42.6757 7.21777 42.4025 7.22119 42.1293 7.22168L41.8874 7.2207L41.7513 7.21973L41.4855 7.21582L41.3115 7.2124C41.2034 7.20996 41.0952 7.20654 40.9871 7.20312C40.8458 7.19824 40.7044 7.19287 40.563 7.18652L48.5939 16.002L48.5405 16.0605H27.1688V4.43604L26.502 4.25049C26.1422 4.15088 25.7821 4.05273 25.4221 3.95605V16.0625H5.78168L5.77551 16.3711H25.4241V26.8545H6.51019C6.52765 26.9575 6.5451 27.0601 6.5636 27.1631H25.4241V37.1328H9.71075C9.76007 37.2354 9.81042 37.3384 9.86182 37.4409H25.4241V47.6431C26.0077 47.7383 26.59 47.8384 27.1708 47.9434V37.4409H49.0562V59.2305C49.1541 59.2725 49.2524 59.313 49.3512 59.3521C49.5176 59.4185 49.6854 59.4814 49.8543 59.541C50.1666 59.6509 50.483 59.7485 50.803 59.834V37.4409H73.3049V62.4756C73.8844 62.6851 74.4666 62.8843 75.0516 63.0728V37.4409H90.6694V65.5444C90.9283 65.5254 91.1868 65.5 91.4444 65.4683C91.7697 65.4287 92.0938 65.3784 92.4161 65.3184V37.4409H99.2468C99.2273 37.3384 99.2098 37.2354 99.1923 37.1328H92.4109V27.1631H100.415C100.44 27.0601 100.464 26.9575 100.488 26.8545H92.4161V16.3711ZM90.6693 16.3711V26.855H75.0516V16.3711H90.6693ZM50.803 26.855H73.3049V16.3711H50.803V26.855ZM27.1708 16.3711H48.748L49.0563 16.6519V26.855H27.1708V16.3711ZM27.1708 27.1631V37.1328H49.0563V27.1631H27.1708ZM50.803 37.1328V27.1631H73.3049V37.1328H50.803ZM75.0516 37.1328H90.6693V27.1631H75.0516V37.1328Z" fill="#C449AB"/>
<path opacity="0.1" d="M83.1604 9.15184H83.0248C83.1217 9.09564 83.1839 8.99444 83.1902 8.88255C83.1902 8.66979 82.9303 8.49609 82.6128 8.49609H78.5583C78.2409 8.49609 77.9799 8.66979 77.9799 8.88255C77.9799 9.09531 78.2409 9.26901 78.5583 9.26901H78.694C78.5969 9.32507 78.5347 9.42635 78.5285 9.53829C78.5285 9.71919 78.7176 9.87131 78.9704 9.91242H77.8093C77.4908 9.91242 77.2308 10.0861 77.2308 10.2989C77.2308 10.5116 77.4908 10.6853 77.8093 10.6853H81.8586C82.1771 10.6853 82.4371 10.5106 82.4371 10.2989C82.4371 10.118 82.247 9.96484 81.9943 9.92372H83.1604C83.4779 9.92372 83.7379 9.75002 83.7379 9.53829C83.7379 9.32657 83.4779 9.15184 83.1604 9.15184Z" fill="#C449AB"/>
<path opacity="0.1" d="M39.2704 12.8271H39.1348C39.2313 12.7705 39.2934 12.6695 39.3002 12.5578C39.3002 12.3461 39.0403 12.1724 38.7218 12.1724H34.6724C34.3539 12.1724 34.094 12.3461 34.094 12.5578C34.094 12.7705 34.3539 12.9442 34.6724 12.9442H34.807C34.7108 13.001 34.6491 13.102 34.6426 13.2135C34.6426 13.3944 34.8317 13.5476 35.0845 13.5887H33.9183C33.6008 13.5887 33.3408 13.7624 33.3408 13.9741C33.3408 14.1858 33.6008 14.3606 33.9183 14.3606H37.9727C38.2902 14.3606 38.5512 14.1869 38.5512 13.9741C38.5512 13.7932 38.3611 13.6411 38.1083 13.6H39.2745C39.592 13.6 39.852 13.4263 39.852 13.2135C39.852 13.0008 39.5879 12.8271 39.2704 12.8271Z" fill="#C449AB"/>
<path opacity="0.1" d="M89.3727 28.5586H89.237C89.3336 28.502 89.3956 28.401 89.4025 28.2893C89.4025 28.0765 89.1425 27.9028 88.824 27.9028H84.7747C84.4562 27.9028 84.1962 28.0765 84.1962 28.2893C84.1962 28.502 84.4562 28.6757 84.7747 28.6757H84.9093C84.813 28.7325 84.7514 28.8335 84.7449 28.945C84.7449 29.1259 84.9339 29.278 85.1867 29.3192H84.0205C83.703 29.3192 83.4431 29.4929 83.4431 29.7056C83.4431 29.9184 83.703 30.0921 84.0205 30.0921H88.0708C88.3883 30.0921 88.6493 29.9184 88.6493 29.7056C88.6493 29.5247 88.4592 29.3716 88.2065 29.3305H89.3727C89.6902 29.3305 89.9501 29.1568 89.9501 28.945C89.9501 28.7333 89.6902 28.5586 89.3727 28.5586Z" fill="#C449AB"/>
<path opacity="0.1" d="M54.0025 79.6574C77.9813 79.6574 97.4199 77.5107 97.4199 74.8626C97.4199 72.2145 77.9813 70.0679 54.0025 70.0679C30.0238 70.0679 10.5851 72.2145 10.5851 74.8626C10.5851 77.5107 30.0238 79.6574 54.0025 79.6574Z" fill="#C449AB"/>
<path d="M63.029 40.7487V55.8267C63.0296 56.0827 62.995 56.3376 62.9262 56.5842C62.5861 57.8168 61.4652 58.6706 60.1869 58.6707H47.4461C46.692 58.671 45.9687 58.3714 45.4355 57.838C44.9023 57.3046 44.6028 56.5811 44.6031 55.8267V40.7487C44.6028 39.9944 44.9023 39.2709 45.4355 38.7375C45.9687 38.2041 46.692 37.9045 47.4461 37.9048H60.1869C61.4652 37.9049 62.5861 38.7587 62.9262 39.9912C62.995 40.2378 63.0296 40.4927 63.029 40.7487Z" fill="#E9CCDB"/>
<path opacity="0.1" d="M44.8139 40.7488V55.8268C44.8141 56.0831 44.7786 56.3382 44.7085 56.5853C44.6384 56.3382 44.6029 56.0831 44.6031 55.8268V40.7488C44.6029 40.4924 44.6384 40.2373 44.7085 39.9902C44.7786 40.2373 44.8141 40.4924 44.8139 40.7488Z" fill="black"/>
<rect x="22.2728" y="37.9048" width="22.3303" height="20.7618" rx="9.1311" fill="#E9CCDB"/>
<path opacity="0.1" d="M63.0343 40.7487V55.8267C63.0349 56.0827 62.9994 56.3376 62.9289 56.5842C62.8589 56.3375 62.8234 56.0827 62.8235 55.8267V40.7487C62.8234 40.4927 62.8589 40.2379 62.9289 39.9912C62.9994 40.2378 63.0349 40.4927 63.0343 40.7487Z" fill="black"/>
<rect x="63.029" y="37.9048" width="22.3313" height="20.7618" rx="9.1311" fill="#E9CCDB"/>
<path opacity="0.1" d="M43.4729 60.2081H23.0742L22.9715 58.4249C22.8584 56.4227 25.4456 54.7607 28.6771 54.7607H42.5605C43.6444 54.7607 44.4808 55.3507 44.3421 56.0167L43.4729 60.2081Z" fill="black"/>
<path d="M43.4729 60.4137H23.0742L22.9715 58.6305C22.8584 56.6283 25.4456 54.9663 28.6771 54.9663H42.5605C43.6444 54.9663 44.4808 55.5563 44.3421 56.2223L43.4729 60.4137Z" fill="#CAA4BC"/>
<path opacity="0.1" d="M63.9137 60.3263H84.3123L84.4151 58.5431C84.5281 56.5409 81.9409 54.8789 78.7094 54.8789H64.8261C63.7431 54.8789 62.9057 55.4689 63.0444 56.1349L63.9137 60.3263Z" fill="black"/>
<path d="M63.9137 60.5319H84.3123L84.4151 58.7486C84.5281 56.7464 81.9409 55.0845 78.7094 55.0845H64.8261C63.7431 55.0845 62.9057 55.6744 63.0444 56.3405L63.9137 60.5319Z" fill="#CAA4BC"/>
<path opacity="0.1" d="M47.0054 54.8789H60.8271C61.6062 54.8789 62.3534 55.1885 62.9043 55.7396C63.4552 56.2907 63.7647 57.0381 63.7647 57.8174V59.6428H43.7811V58.1011C43.7823 56.3208 45.2256 54.8783 47.0054 54.8789V54.8789Z" fill="black"/>
<path d="M47.0054 55.0845H60.8271C61.6062 55.0845 62.3534 55.3941 62.9043 55.9451C63.4552 56.4962 63.7647 57.2436 63.7647 58.023V59.8484H43.7811V58.3067C43.7823 56.5264 45.2256 55.0839 47.0054 55.0845V55.0845Z" fill="#CAA4BC"/>
<path d="M24.4675 56.9189H41.01C42.5422 56.9189 43.7842 58.1614 43.7842 59.694V63.4455H23.2376V58.1492C23.2393 57.4705 23.789 56.9206 24.4675 56.9189Z" fill="#E9CCDB"/>
<path opacity="0.1" d="M45.8361 56.9189H61.5566C63.0888 56.9189 64.3308 58.1614 64.3308 59.694V63.4455H43.217V59.5399C43.217 58.0928 44.3895 56.9195 45.8361 56.9189Z" fill="black"/>
<path opacity="0.1" d="M46.247 56.9189H61.9676C63.4997 56.9189 64.7418 58.1614 64.7418 59.694V63.4455H43.628V59.5399C43.628 58.0928 44.8004 56.9195 46.247 56.9189Z" fill="black"/>
<path d="M46.0416 56.9189H61.7621C63.2943 56.9189 64.5363 58.1614 64.5363 59.694V63.4455H43.4225V59.5399C43.4225 58.0928 44.595 56.9195 46.0416 56.9189Z" fill="#E9CCDB"/>
<path opacity="0.1" d="M65.1815 56.9189H81.9778C83.439 56.9189 84.6236 58.1039 84.6236 59.5656V63.4455H64.0801V58.0208C64.0801 57.4122 64.5732 56.9189 65.1815 56.9189Z" fill="black"/>
<path d="M65.387 56.9189H82.1833C83.6446 56.9189 84.8291 58.1039 84.8291 59.5656V63.4455H64.2856V58.0208C64.2856 57.7285 64.4016 57.4483 64.6082 57.2417C64.8148 57.035 65.0949 56.9189 65.387 56.9189Z" fill="#E9CCDB"/>
<path d="M23.5397 72.1309V74.9316C23.5391 75.7119 22.9069 76.3443 22.1269 76.3449H21.1508C20.3707 76.3443 19.7385 75.7119 19.738 74.9316V72.1309H23.5397Z" fill="#9C7AA5"/>
<path d="M88.2167 72.1309V74.9316C88.2162 75.7119 87.584 76.3443 86.8039 76.3449H85.8278C85.0478 76.3443 84.4156 75.7119 84.415 74.9316V72.1309H88.2167Z" fill="#9C7AA5"/>
<path d="M24.5764 53.7483C24.5765 51.7708 23.042 50.1328 21.0693 50.0046C19.0966 49.8764 17.3631 51.3019 17.1073 53.2627C16.8515 55.2236 18.1612 57.0464 20.1007 57.4289V72.5932H24.3134V55.1327C24.4877 54.692 24.5769 54.2222 24.5764 53.7483Z" fill="#E9CCDB"/>
<path d="M83.2273 53.7483C83.2273 51.7708 84.7617 50.1328 86.7344 50.0046C88.7071 49.8764 90.4406 51.3019 90.6964 53.2627C90.9522 55.2236 89.6425 57.0464 87.703 57.4289V72.5932H83.4903V55.1327C83.3161 54.692 83.2268 54.2222 83.2273 53.7483Z" fill="#E9CCDB"/>
<path opacity="0.1" d="M24.5764 53.7483C24.5765 51.7708 23.042 50.1328 21.0693 50.0046C19.0966 49.8764 17.3631 51.3019 17.1073 53.2627C16.8515 55.2236 18.1612 57.0464 20.1007 57.4289V72.5932H24.3134V55.1327C24.4877 54.692 24.5769 54.2222 24.5764 53.7483Z" fill="black"/>
<path opacity="0.1" d="M83.2273 53.7483C83.2273 51.7708 84.7617 50.1328 86.7344 50.0046C88.7071 49.8764 90.4406 51.3019 90.6964 53.2627C90.9522 55.2236 89.6425 57.0464 87.703 57.4289V72.5932H83.4903V55.1327C83.3161 54.692 83.2268 54.2222 83.2273 53.7483Z" fill="black"/>
<rect x="22.2728" y="69.9722" width="63.4811" height="2.92926" fill="#9C7AA5"/>
<rect opacity="0.1" x="22.9735" y="63.4458" width="62.3868" height="6.73216" fill="black"/>
<rect x="22.9735" y="63.2402" width="62.3868" height="6.73216" fill="#CAA4BC"/>
<rect opacity="0.1" x="84.4202" y="72.1309" width="3.79553" height="0.976421" fill="black"/>
<path d="M84.1551 54.0565C84.1547 52.0785 85.6896 50.4401 87.6628 50.3122C89.636 50.1842 91.3695 51.6108 91.6244 53.5722C91.8793 55.5337 90.568 57.3561 88.6277 57.7371V72.9014H84.415V55.441C84.2413 55.0002 84.1531 54.5303 84.1551 54.0565Z" fill="#E9CCDB"/>
<rect opacity="0.1" x="19.738" y="72.1309" width="3.74826" height="0.976421" fill="black"/>
<path d="M23.7514 54.0568C23.7511 52.0798 22.2171 50.4423 20.2449 50.3137C18.2727 50.1852 16.5392 51.6097 16.2825 53.5699C16.0257 55.5302 17.3338 57.3533 19.2725 57.7373V72.9017H23.4852V55.4412C23.661 55.0008 23.7514 54.531 23.7514 54.0568Z" fill="#E9CCDB"/>
<rect opacity="0.1" x="24.3123" y="63.2402" width="59.1985" height="0.188089" fill="black"/>
<path d="M19.738 55.6345C20.6743 55.6345 21.4333 54.8752 21.4333 53.9386C21.4333 53.002 20.6743 52.2427 19.738 52.2427C18.8016 52.2427 18.0426 53.002 18.0426 53.9386C18.0426 54.8752 18.8016 55.6345 19.738 55.6345Z" fill="#CAA4BC"/>
<path d="M88.2157 55.6345C89.1521 55.6345 89.9111 54.8752 89.9111 53.9386C89.9111 53.002 89.1521 52.2427 88.2157 52.2427C87.2794 52.2427 86.5204 53.002 86.5204 53.9386C86.5204 54.8752 87.2794 55.6345 88.2157 55.6345Z" fill="#CAA4BC"/>
<path opacity="0.1" d="M37.6696 51.0717C36.0544 50.6678 32.6442 46.4085 32.6442 46.4085C31.3619 45.5123 28.747 40.0834 28.747 40.0834C28.747 40.0834 27.7544 39.6157 26.88 41.7186C26.0056 43.8215 20.9206 45.503 19.3979 45.7384C18.5399 45.871 18.6232 46.2523 18.8595 46.5606C19.0188 46.7586 19.2302 46.9081 19.4698 46.9923C20.1171 47.238 22.1259 49.6503 22.1259 49.6503C23.999 50.9165 26.0765 56.7658 26.767 58.2941C27.1503 59.1441 27.5767 58.7371 27.8808 58.2078C28.4681 57.1858 29.2723 56.3052 30.2368 55.628C32.8507 53.7892 35.6527 53.0266 35.8438 53.0235C36.0853 53.0174 39.2849 51.4756 37.6696 51.0717Z" fill="black"/>
<path d="M16.1973 46.0622C15.9334 45.962 15.701 45.7931 15.5243 45.573C15.2541 45.2266 15.139 44.797 16.038 44.6479C17.6245 44.3869 22.8667 42.5091 23.6414 40.14C24.4161 37.7709 25.4909 38.3012 25.4909 38.3012C25.4909 38.3012 28.6227 44.429 30.0365 45.4455C30.0365 45.4455 33.9265 50.2588 35.6558 50.7203C37.385 51.1817 34.1228 52.9085 33.869 52.9126C33.6635 52.9126 30.7691 53.7667 28.1438 55.8305C27.1626 56.6069 26.3745 57.6 25.8413 58.732C25.5577 59.3282 25.1364 59.7856 24.673 58.8266C23.8397 57.1009 21.2422 50.5013 19.1811 49.0624C19.1811 49.0624 16.896 46.3356 16.1973 46.0622Z" fill="#C449AB"/>
<path opacity="0.1" d="M16.1973 46.0622C15.9334 45.962 15.701 45.7931 15.5243 45.573C15.2541 45.2266 15.139 44.797 16.038 44.6479C17.6245 44.3869 22.8667 42.5091 23.6414 40.14C24.4161 37.7709 25.4909 38.3012 25.4909 38.3012C25.4909 38.3012 28.6227 44.429 30.0365 45.4455C30.0365 45.4455 33.9265 50.2588 35.6558 50.7203C37.385 51.1817 34.1228 52.9085 33.869 52.9126C33.6635 52.9126 30.7691 53.7667 28.1438 55.8305C27.1626 56.6069 26.3745 57.6 25.8413 58.732C25.5577 59.3282 25.1364 59.7856 24.673 58.8266C23.8397 57.1009 21.2422 50.5013 19.1811 49.0624C19.1811 49.0624 16.896 46.3356 16.1973 46.0622Z" fill="black"/>
<path d="M17.3121 45.9349C17.0672 45.8493 16.8504 45.6982 16.6853 45.4981C16.4356 45.1897 16.3339 44.795 17.1795 44.647C18.6786 44.3839 23.6527 42.5914 24.4171 40.4114C25.1816 38.2314 26.1926 38.7032 26.1926 38.7032C26.1926 38.7032 29.0532 44.2534 30.3704 45.164C30.3704 45.164 33.9666 49.5034 35.589 49.8992C37.2114 50.2949 34.1104 51.9209 33.871 51.9301C33.6809 51.9363 30.9355 52.7524 28.4254 54.6836C27.4952 55.4004 26.739 56.3181 26.2132 57.3683C25.9368 57.9171 25.532 58.3416 25.1097 57.471C24.3504 55.9057 22.0015 49.9105 20.0801 48.6319C20.0801 48.6319 17.9666 46.1785 17.3121 45.9349Z" fill="#C449AB"/>
<path opacity="0.1" d="M23.0742 47.897C23.0742 47.897 22.5358 48.4037 25.1107 47.4324C27.6856 46.4611 23.0742 47.897 23.0742 47.897Z" fill="black"/>
<path opacity="0.1" d="M25.1877 50.3688C25.1877 50.3688 25.5802 50.4253 27.0567 49.822C28.5332 49.2187 25.1877 50.3688 25.1877 50.3688Z" fill="black"/>
<path opacity="0.1" d="M25.0583 54.9079C25.0583 54.9079 25.4251 54.9079 26.8985 54.2974C28.3719 53.6869 25.0583 54.9079 25.0583 54.9079Z" fill="black"/>
<path opacity="0.1" d="M85.1548 44.7466V46.7077C84.7315 47.5834 84.3174 48.7016 84.3174 48.7016C83.0844 50.3071 83.2797 55.6558 83.1985 57.0999C83.1533 57.9016 82.6282 57.7104 82.171 57.3815C81.2674 56.7372 80.2414 56.285 79.1564 56.0525C76.1767 55.3999 73.4025 55.6712 73.2257 55.7288C73.0079 55.8007 69.6049 55.5715 70.9077 54.7379C72.2106 53.9044 73.7682 49.4139 73.7682 49.4139C74.6015 48.2915 75.0362 43.1113 75.0362 43.1113C75.0362 43.1113 75.7554 42.4237 77.2812 43.8308C78.7289 45.1803 83.4595 45.0159 85.1548 44.7466Z" fill="black"/>
<path d="M86.2758 45.425C86.4567 45.2875 86.5938 45.1004 86.6703 44.8864C86.7731 44.5658 86.7155 44.2338 85.9008 44.3972C84.4571 44.687 79.3156 44.9409 77.7949 43.5287C76.2743 42.1165 75.5499 42.8041 75.5499 42.8041C75.5499 42.8041 75.1152 47.9832 74.282 49.1066C74.282 49.1066 72.7253 53.5971 71.4214 54.4307C70.1176 55.2642 73.5216 55.4934 73.7394 55.4205C73.9121 55.3629 76.6863 55.0926 79.6701 55.7453C80.7549 55.9778 81.7808 56.4297 82.6847 57.0732C83.142 57.4021 83.667 57.5943 83.7122 56.7916C83.7934 55.3526 83.6002 49.9998 84.8311 48.3944C84.8311 48.3944 85.7826 45.8259 86.2758 45.425Z" fill="#C449AB"/>
<path opacity="0.1" d="M86.2758 45.425C86.4567 45.2875 86.5938 45.1004 86.6703 44.8864C86.7731 44.5658 86.7155 44.2338 85.9008 44.3972C84.4571 44.687 79.3156 44.9409 77.7949 43.5287C76.2743 42.1165 75.5499 42.8041 75.5499 42.8041C75.5499 42.8041 75.1152 47.9832 74.282 49.1066C74.282 49.1066 72.7253 53.5971 71.4214 54.4307C70.1176 55.2642 73.5216 55.4934 73.7394 55.4205C73.9121 55.3629 76.6863 55.0926 79.6701 55.7453C80.7549 55.9778 81.7808 56.4297 82.6847 57.0732C83.142 57.4021 83.667 57.5943 83.7122 56.7916C83.7934 55.3526 83.6002 49.9998 84.8311 48.3944C84.8311 48.3944 85.7826 45.8259 86.2758 45.425Z" fill="black"/>
<path d="M85.9038 45.6564C86.0757 45.525 86.2057 45.3465 86.2778 45.1425C86.3806 44.8341 86.321 44.5258 85.5483 44.6789C84.1766 44.9534 79.2951 45.1928 77.8514 43.8567C76.4078 42.5205 75.7194 43.1691 75.7194 43.1691C75.7194 43.1691 75.3084 48.0861 74.5162 49.152C74.5162 49.152 73.0387 53.4164 71.8006 54.2078C70.5625 54.9992 73.7949 55.2161 74.0004 55.1472C74.1648 55.0927 76.7993 54.8389 79.6321 55.4555C80.6621 55.6757 81.636 56.1049 82.4936 56.7167C82.9282 57.025 83.4266 57.211 83.4697 56.4494C83.5468 55.0783 83.367 50.0009 84.5321 48.4757C84.5321 48.4746 85.4353 46.0367 85.9038 45.6564Z" fill="#C449AB"/>
<path opacity="0.1" d="M82.2861 48.4912C82.2861 48.4912 81.9264 48.6968 80.2054 49.2878C78.4844 49.8788 82.0035 49.0565 82.2861 48.4912Z" fill="black"/>
<path opacity="0.1" d="M82.1063 50.3052C82.1063 50.3052 81.0274 51.1891 80.488 51.2662C79.9486 51.3433 81.798 51.1685 82.1063 50.3052Z" fill="black"/>
<path opacity="0.1" d="M82.9642 54.3877C82.9642 54.3877 81.8853 55.2716 81.3459 55.3487C80.8065 55.4258 82.656 55.2531 82.9642 54.3877Z" fill="black"/>
<path d="M66.6026 55.1296C66.4501 55.1229 66.2987 55.1012 66.1505 55.0649C66.1402 55.0166 66.058 54.9837 65.8843 54.9765H65.8494C65.315 54.7729 64.8358 54.4469 64.45 54.0247C63.9547 53.48 62.5532 52.7986 62.5532 52.7986C62.5532 52.7986 61.5627 51.9629 60.9093 51.8951C60.2558 51.8273 58.4495 50.0039 56.9123 48.3163C55.3752 46.6286 52.9997 44.7888 52.9997 44.7888L51.9917 43.6644C51.9917 43.6644 50.8163 42.8267 50.544 42.3622C50.395 42.1104 49.9275 41.9808 49.4487 41.9356C48.935 41.7301 48.0873 41.7301 47.6917 41.8164C47.4502 41.8709 46.7824 42.503 46.1248 43.1762L46.6652 36.2385C46.6805 36.0403 46.5569 35.8578 46.3673 35.7986L44.5486 36.6856C44.4154 36.75 44.3271 36.8811 44.3174 37.0289L43.8294 44.4764L41.6819 46.0469C41.6331 45.7837 41.5202 45.5366 41.3532 45.3274C40.1489 43.7569 38.2769 46.7365 37.5792 47.9833C37.5463 47.9833 37.5145 47.9935 37.4847 48.0007C37.4716 48.0374 37.4502 48.0705 37.422 48.0974C36.8911 47.8386 36.3872 47.5277 35.9178 47.1692C35.8849 47.133 35.8575 47.0922 35.8366 47.048C35.7338 46.792 35.33 46.3521 35.0968 46.1085C34.3878 45.3099 33.3306 44.24 33.1795 44.1721C33.0994 44.1372 32.7202 43.8463 32.2496 43.4773C32.1777 43.3214 32.0974 43.1694 32.0092 43.022C31.6743 42.467 31.103 42.3026 30.7033 42.2584C30.3334 41.9706 30.0508 41.7558 29.9758 41.7188C29.72 41.5913 29.1302 40.6704 28.8456 40.0825C28.561 39.4946 26.4926 39.4185 26.4926 39.4185C26.4769 38.6108 26.6641 37.8121 27.0372 37.0957C27.0588 37.0545 27.0793 37.0145 27.1009 36.9754C28.085 36.6889 28.9086 36.0112 29.3795 35.1006C29.8504 34.19 29.9274 33.126 29.5926 32.157C29.8577 32.0635 30.1813 32.1046 30.4598 32.007C30.8338 31.8764 31.1728 31.5743 31.2304 31.1847C31.2553 30.9242 31.1947 30.6626 31.0578 30.4396C30.9324 30.2173 30.7733 30.0158 30.5861 29.8424C30.0786 29.31 29.348 28.9821 28.6339 28.7365C27.7287 28.4281 26.7783 28.1907 25.8217 28.2431C24.8651 28.2955 23.8962 28.6635 23.2797 29.3932C23.1704 29.544 23.0415 29.6794 22.8965 29.7961C22.6766 29.9462 22.395 29.9709 22.1289 29.9606C21.2514 29.9287 20.3349 29.5824 19.5253 29.9215C18.5522 30.3327 18.2121 31.5188 18.0868 32.564C17.9563 33.6402 17.9245 34.7348 17.6398 35.7801C17.3552 36.8253 16.7685 37.847 15.815 38.366C15.5366 38.5171 15.2324 38.623 14.9704 38.8018C14.7084 38.9807 14.4855 39.2582 14.4844 39.5747C14.4844 40.0064 14.8718 40.324 15.0742 40.7053C15.177 40.8996 15.2366 41.1216 15.3383 41.3128C15.3486 41.3323 15.3588 41.3508 15.3701 41.3693L15.3763 41.3796C15.3855 41.394 15.3948 41.4084 15.4051 41.4227C15.4079 41.4279 15.4113 41.4328 15.4153 41.4371L15.4441 41.4762C15.4481 41.4808 15.4519 41.4856 15.4554 41.4906C15.4698 41.507 15.4842 41.5235 15.4996 41.5389C15.515 41.5543 15.5366 41.5738 15.5561 41.5893C15.5756 41.6047 15.5859 41.6242 15.6023 41.6406C16.0431 42.0857 16.8261 41.8339 17.3912 42.1042C17.499 42.158 17.5983 42.2273 17.6861 42.3097C17.8751 42.5153 18.0272 42.7692 18.1998 42.9974L18.2101 43.0097L18.2635 43.0775L18.2913 43.1094C18.3036 43.1248 18.317 43.1402 18.3303 43.1546C18.3437 43.169 18.3776 43.206 18.4012 43.2296L18.4474 43.2718C18.4659 43.2923 18.4844 43.3129 18.504 43.3324C18.9684 43.7949 19.6547 43.9563 20.3103 44.0015C20.6689 44.0252 21.0398 44.019 21.3717 43.8792C21.5231 43.8145 21.6621 43.7241 21.7827 43.612C21.9758 43.7632 22.1821 43.8967 22.3991 44.0108C22.9396 44.3643 23.5386 44.6943 24.1037 45.0694C24.6925 45.6296 25.4056 46.4241 25.4148 47.0027C25.4282 47.7705 26.4834 49.2783 26.956 49.9135C26.9797 50.0399 26.9899 50.1119 26.9899 50.1119L29.159 53.3073C29.159 53.3073 29.3213 53.8058 30.168 53.8336C30.0118 54.7956 30.0652 56.4874 30.8163 56.6642C31.6876 56.8697 33.1055 56.6981 33.311 56.954C33.5165 57.2099 36.898 56.8173 36.898 56.8173C36.898 56.8173 38.7773 56.3918 40.0246 56.7669C40.8007 56.9831 41.6277 56.9227 42.3642 56.5963C42.3642 56.5963 43.7123 56.4689 43.8869 55.9416C43.9209 55.8927 43.9437 55.8369 43.9537 55.7782C43.9619 55.7207 43.9771 55.6644 43.9989 55.6107C44.1346 55.3897 44.3452 55.3249 44.2661 55.2756C44.3688 55.1872 44.3904 55.1666 44.0729 55.1132C43.8627 55.0819 43.6486 55.0892 43.441 55.1348C43.517 55.058 43.592 54.9768 43.666 54.8912C43.7132 54.8938 43.7606 54.8938 43.8078 54.8912C44.2794 54.9179 44.2465 54.7134 44.6873 54.6034C45.2011 54.476 45.7148 54.4246 46.3786 54.3475C47.0423 54.2704 47.7369 53.888 48.0226 53.5252C48.3082 53.1624 49.5083 53.3711 49.8412 52.7575C50.1268 52.2333 49.1168 51.7831 48.5784 51.8242C48.4491 51.8064 48.3174 51.829 48.2013 51.8889C47.8849 52.0945 46.7495 52.1891 46.3601 52.2137C46.2748 52.1829 45.9316 52.0647 45.5278 51.9619C45.8772 51.3894 46.3663 50.6093 46.8091 49.9803C47.6126 48.8384 48.0904 48.4293 48.0904 48.4293C48.2558 48.1624 48.4641 47.9245 48.7069 47.7253C49.3079 49.2485 52.8548 51.7985 54.5635 52.0935C56.4428 52.4172 58.2882 53.9507 58.2882 53.9507C58.2882 53.9507 58.1176 54.6702 58.1176 54.9785C58.1176 55.1163 58.4587 55.1841 58.8872 55.218C59.1749 55.4339 60.5712 55.4102 61.1065 55.3208C61.7045 55.218 63.3958 55.6446 64.7798 55.7319C66.1638 55.8193 67.4389 55.1636 66.6026 55.1296Z" fill="url(#paint0_linear)"/>
<path d="M32.4664 43.4824L32.338 45.1146L33.1302 46.8331L34.2502 47.8198L35.4688 48.5393L36.599 49.3266L37.7292 48.3111C37.7292 48.3111 36.0739 47.2483 35.926 46.8876C35.778 46.5268 35.0341 45.796 35.0341 45.796L33.984 44.7805L33.1312 44.0025L32.4664 43.4824Z" fill="#FD6F8D"/>
<path opacity="0.1" d="M32.4664 43.4824L32.338 45.1146L33.1302 46.8331L34.2502 47.8198L35.4688 48.5393L36.599 49.3266L37.7292 48.3111C37.7292 48.3111 36.0739 47.2483 35.926 46.8876C35.778 46.5268 35.0341 45.796 35.0341 45.796L33.984 44.7805L33.1312 44.0025L32.4664 43.4824Z" fill="black"/>
<path d="M27.3373 37.1461C26.9263 37.9519 26.579 39.1359 26.9756 40.4711C27.7092 42.9378 22.3314 39.4864 22.3314 39.4864C22.3314 39.4864 23.4904 37.7556 23.8294 36.2611C23.9394 35.777 23.963 35.3166 23.8294 34.9486C23.2962 33.447 28.0658 36.0494 28.0658 36.0494C27.7768 36.3821 27.5319 36.7507 27.3373 37.1461Z" fill="#FFBEC5"/>
<path opacity="0.1" d="M26.654 39.4194C26.654 39.4194 28.6771 39.4945 28.9525 40.07C29.2278 40.6456 29.8022 41.547 30.0529 41.6724C30.3036 41.7978 32.9545 43.9747 33.1795 44.0744C33.4046 44.1741 35.6815 46.5514 35.6815 46.8022C35.6815 47.053 38.0334 48.5043 39.5345 48.7293C41.0357 48.9544 43.3362 51.6576 44.0123 51.5569C44.6884 51.4561 46.0673 51.9577 46.0673 51.9577C46.0673 51.9577 47.6188 51.8827 47.9938 51.6319C48.3688 51.3811 49.7693 51.8827 49.4446 52.4829C49.1199 53.0832 47.9435 52.8838 47.6681 53.2342C47.3927 53.5847 46.7177 53.9599 46.0673 54.0349C45.4169 54.1099 44.9165 54.1593 44.4161 54.2847C43.9157 54.4101 44.0411 54.6598 43.2859 54.5355C42.5307 54.4111 39.6085 49.2042 39.6085 49.2042L36.3565 47.7283C36.3565 47.7283 35.1307 46.7272 35.03 46.4014C34.9294 46.0755 32.5785 43.8493 32.5785 43.8493L29.5012 41.5963L26.654 39.4194Z" fill="black"/>
<path d="M26.804 39.4194C26.804 39.4194 28.8271 39.4945 29.1024 40.07C29.3778 40.6456 29.9532 41.547 30.2029 41.6724C30.4526 41.7978 33.1045 43.9747 33.3305 44.0744C33.5566 44.1741 35.8314 46.5514 35.8314 46.8022C35.8314 47.053 38.1833 48.5043 39.6845 48.7293C41.1857 48.9544 43.4862 51.6576 44.1623 51.5569C44.8384 51.4561 46.2172 51.9577 46.2172 51.9577C46.2172 51.9577 47.7687 51.8827 48.1438 51.6319C48.5188 51.3811 49.9203 51.8827 49.5946 52.4829C49.2689 53.0832 48.0934 52.8838 47.8181 53.2342C47.5427 53.5847 46.8676 53.9599 46.2172 54.0349C45.5668 54.1099 45.0624 54.1593 44.563 54.2847C44.0636 54.4101 44.188 54.6598 43.4328 54.5355C42.6776 54.4111 39.7554 49.2042 39.7554 49.2042L36.5034 47.7283C36.5034 47.7283 35.2776 46.7272 35.1769 46.4014C35.0762 46.0755 32.7325 43.8493 32.7325 43.8493L29.6501 41.5963L26.804 39.4194Z" fill="#FD6F8D"/>
<path d="M37.3408 50.5982C37.3408 50.5982 40.377 47.9115 40.526 47.7121C40.6 47.6094 41.5607 46.8848 42.5121 46.1704C43.6945 45.2881 44.8028 44.3105 45.8258 43.2473C46.5111 42.5361 47.2447 41.8259 47.4975 41.7693C48.0112 41.6522 49.3151 41.7025 49.5823 42.1527C49.8494 42.6029 51.0002 43.421 51.0002 43.421L51.9845 44.5208C51.9845 44.5208 54.3036 46.3225 55.8047 47.9742C57.3059 49.6259 59.0731 51.4112 59.7092 51.478C60.3452 51.5449 61.31 52.362 61.31 52.362C61.31 52.362 62.6776 53.03 63.1594 53.5635C63.6413 54.0969 64.4438 54.6149 65.2607 54.6478C66.0775 54.6807 64.8271 55.3159 63.4759 55.2316C62.1248 55.1473 60.4746 54.7311 59.89 54.8318C59.3054 54.9325 57.6727 54.9479 57.6727 54.6478C57.6727 54.3477 57.8391 53.6467 57.8391 53.6467C57.8391 53.6467 56.038 52.1492 54.207 51.8326C52.376 51.5161 48.3657 48.5293 48.3986 47.1448C48.3986 47.1448 47.8325 47.0944 47.181 48.0955C47.181 48.0955 46.7146 48.4964 45.9306 49.6136C45.1466 50.7308 44.2126 52.3322 44.2126 52.3322C44.2126 52.3322 42.7618 55.2666 41.5946 55.2429C40.4274 55.2193 39.1759 55.0846 39.1759 55.0846L37.6244 53.9838L37.5217 52.6477L37.3408 50.5982Z" fill="#FFBEC5"/>
<path opacity="0.05" d="M37.3408 50.5982C37.3408 50.5982 40.377 47.9115 40.526 47.7121C40.6 47.6094 41.5607 46.8848 42.5121 46.1704C43.6945 45.2881 44.8028 44.3105 45.8258 43.2473C46.5111 42.5361 47.2447 41.8259 47.4975 41.7693C48.0112 41.6522 49.3151 41.7025 49.5823 42.1527C49.8494 42.6029 51.0002 43.421 51.0002 43.421L51.9845 44.5208C51.9845 44.5208 54.3036 46.3225 55.8047 47.9742C57.3059 49.6259 59.0731 51.4112 59.7092 51.478C60.3452 51.5449 61.31 52.362 61.31 52.362C61.31 52.362 62.6776 53.03 63.1594 53.5635C63.6413 54.0969 64.4438 54.6149 65.2607 54.6478C66.0775 54.6807 64.8271 55.3159 63.4759 55.2316C62.1248 55.1473 60.4746 54.7311 59.89 54.8318C59.3054 54.9325 57.6727 54.9479 57.6727 54.6478C57.6727 54.3477 57.8391 53.6467 57.8391 53.6467C57.8391 53.6467 56.038 52.1492 54.207 51.8326C52.376 51.5161 48.3657 48.5293 48.3986 47.1448C48.3986 47.1448 47.8325 47.0944 47.181 48.0955C47.181 48.0955 46.7146 48.4964 45.9306 49.6136C45.1466 50.7308 44.2126 52.3322 44.2126 52.3322C44.2126 52.3322 42.7618 55.2666 41.5946 55.2429C40.4274 55.2193 39.1759 55.0846 39.1759 55.0846L37.6244 53.9838L37.5217 52.6477L37.3408 50.5982Z" fill="black"/>
<path d="M38.0416 50.748C38.0416 50.748 41.0768 48.0623 41.2268 47.8619C41.3768 47.6615 45.1456 44.8915 45.1456 44.8915C45.1456 44.8915 47.6804 42.0393 48.1982 41.9222C48.7161 41.805 50.0159 41.8554 50.283 42.3055C50.5502 42.7557 51.6999 43.5739 51.6999 43.5739L52.6842 44.6746C52.6842 44.6746 55.0023 46.4764 56.5034 48.1281C58.0046 49.7798 59.7729 51.5651 60.4078 51.6319C61.0428 51.6987 62.0087 52.5168 62.0087 52.5168C62.0087 52.5168 63.3762 53.1839 63.8581 53.7173C64.34 54.2508 65.1425 54.7688 65.9593 54.8017C66.7762 54.8346 65.5257 55.4698 64.1746 55.3855C62.8235 55.3012 61.1723 54.886 60.5887 54.9857C60.0051 55.0854 58.3724 55.1069 58.3724 54.7986C58.3724 54.4902 58.5399 53.7975 58.5399 53.7975C58.5399 53.7975 56.7387 52.2969 54.9036 51.9793C53.0685 51.6617 49.0696 48.679 49.0994 47.2956C49.0994 47.2956 48.5322 47.2452 47.8818 48.2463C47.8818 48.2463 47.4153 48.6471 46.6313 49.7644C45.8474 50.8816 44.9134 52.484 44.9134 52.484C44.9134 52.484 43.4626 55.4153 42.2943 55.3937C41.1261 55.3721 39.8767 55.2354 39.8767 55.2354L38.3252 54.1346L38.2224 52.7985L38.0416 50.748Z" fill="#FFBEC5"/>
<path opacity="0.1" d="M47.8109 52.3116C47.7287 52.3466 47.6486 52.3887 47.5695 52.4309L47.0557 52.7053C47.5033 52.7792 47.9588 52.7927 48.4099 52.7454C48.6607 52.7187 49.0131 52.5059 48.7274 52.2541C48.5004 52.0567 48.0421 52.2109 47.8109 52.3116Z" fill="black"/>
<path opacity="0.1" d="M45.4631 52.6672C45.7415 52.6117 46.0415 52.5572 46.3015 52.6672C46.3905 52.7101 46.4749 52.7621 46.5532 52.8224L46.9992 53.1441C46.615 53.2575 46.22 53.3298 45.8206 53.3599C45.7676 53.3672 45.7137 53.3651 45.6614 53.3537C45.5928 53.3296 45.5307 53.2903 45.4795 53.2386C45.1312 52.9488 44.8959 52.7802 45.4631 52.6672Z" fill="black"/>
<path opacity="0.1" d="M28.0678 36.0494C27.7781 36.382 27.5326 36.7506 27.3373 37.1461C26.0938 37.4866 24.7628 37.1508 23.8294 36.2611C23.9394 35.777 23.963 35.3166 23.8294 34.9486C23.2982 33.447 28.0678 36.0494 28.0678 36.0494Z" fill="black"/>
<path d="M26.3632 37.1771C28.3896 37.1771 30.0323 35.5338 30.0323 33.5067C30.0323 31.4797 28.3896 29.8364 26.3632 29.8364C24.3368 29.8364 22.694 31.4797 22.694 33.5067C22.694 35.5338 24.3368 37.1771 26.3632 37.1771Z" fill="#FFBEC5"/>
<path d="M26.805 39.4194L26.6088 39.736L28.9915 42.323L30.1115 43.1062L30.7588 42.2377L26.805 39.4194Z" fill="#504F88"/>
<path d="M30.4721 42.1956C30.4721 42.1956 31.6465 42.0476 32.189 42.9479C32.509 43.4679 32.711 44.0517 32.7809 44.6582C32.7809 44.6582 33.3223 45.092 33.273 45.3345C33.2324 45.49 33.1377 45.626 33.0059 45.7179C33.0059 45.7179 31.9548 45.1177 31.9465 45.092C31.9383 45.0663 31.1379 44.1823 31.1379 44.1823L30.4721 43.4824V42.1956Z" fill="#504F88"/>
<path opacity="0.1" d="M23.3979 38.6191C23.3979 38.6191 21.5638 38.7651 21.3799 40.0457C21.196 41.3264 21.1302 42.0561 21.7806 42.94C22.431 43.8239 23.7647 44.1919 23.7647 44.1919C23.7647 44.1919 25.7827 45.7768 25.8001 46.744C25.8176 47.7111 27.5181 49.8808 27.5181 49.8808C27.5181 49.8808 30.7557 52.2828 30.5214 53.0506C30.2872 53.8184 30.2193 56.0035 31.0701 56.2039C31.9209 56.4044 33.3049 56.2368 33.5052 56.4876C33.7056 56.7384 37.0079 56.354 37.0079 56.354C37.0079 56.354 38.842 55.9367 40.0596 56.3036C40.8177 56.5149 41.6257 56.4553 42.3447 56.1351C42.3447 56.1351 43.7626 56.0015 43.8458 55.4341C43.9291 54.8668 44.5651 54.8842 43.963 54.7835C43.3609 54.6828 42.9786 55.0004 42.545 54.8503C42.1114 54.7002 41.7446 54.1997 40.7439 54.2161C39.7431 54.2326 39.5109 54.2501 39.4081 54.2326C39.3054 54.2151 40.0421 53.6488 39.6414 52.732C39.2407 51.8152 38.4752 51.0988 38.5091 50.5849C38.543 50.071 37.0079 48.3155 37.0079 48.3155C37.0079 48.3155 36.2743 47.2486 35.3229 46.8981C34.3714 46.5476 32.5877 44.3944 32.5877 44.3944C32.5877 44.3944 31.0598 42.015 30.2306 41.8876C29.4015 41.7601 26.6838 39.318 26.6838 39.318C26.6838 39.318 24.3791 38.3673 23.3979 38.6191Z" fill="black"/>
<path d="M23.3486 38.7186C23.3486 38.7186 21.5135 38.8676 21.3275 40.1452C21.1415 41.4228 21.0778 42.1556 21.7282 43.0406C22.3786 43.9255 23.7133 44.2914 23.7133 44.2914C23.7133 44.2914 25.7313 45.8763 25.7477 46.8445C25.7642 47.8127 27.4657 49.9803 27.4657 49.9803C27.4657 49.9803 30.7053 52.3834 30.4721 53.1542C30.2389 53.9251 30.1711 56.1071 31.0208 56.3075C31.8705 56.508 33.2566 56.3415 33.4559 56.5912C33.6553 56.841 36.9586 56.4576 36.9586 56.4576C36.9586 56.4576 38.7937 56.0413 40.0113 56.4083C40.7689 56.619 41.5764 56.5587 42.2943 56.2376C42.2943 56.2376 43.7123 56.104 43.7955 55.5377C43.8787 54.9714 44.5147 54.9868 43.9126 54.8871C43.3105 54.7874 42.9283 55.104 42.4947 54.9529C42.0611 54.8018 41.6943 54.3023 40.6935 54.3198C39.6928 54.3372 39.4605 54.3526 39.3578 54.3362C39.255 54.3198 39.9907 53.7524 39.591 52.8346C39.1913 51.9167 38.4238 51.1993 38.4608 50.6823C38.4978 50.1653 36.9596 48.4129 36.9596 48.4129C36.9596 48.4129 36.226 47.3461 35.2756 46.9956C34.3252 46.6451 32.5404 44.4928 32.5404 44.4928C32.5404 44.4928 31.0115 42.1135 30.1834 41.985C29.3552 41.8565 26.6355 39.4206 26.6355 39.4206C26.6355 39.4206 24.3288 38.4668 23.3486 38.7186Z" fill="#FD6F8D"/>
<path opacity="0.1" d="M35.2376 53.1545C35.1246 53.4063 35.0999 53.7342 35.2941 53.9295C35.4171 54.0301 35.56 54.1037 35.7133 54.1453C36.0267 54.2676 36.3298 54.4824 36.4326 54.8031C36.4514 54.8919 36.4862 54.9766 36.5353 55.0529C36.5875 55.1094 36.6523 55.1527 36.7244 55.1793C37.6181 55.583 38.59 55.7838 39.5705 55.7672C39.2458 55.455 38.8342 55.2486 38.3899 55.1752C38.0365 55.1176 37.6625 55.1444 37.3357 54.9974C37.009 54.8504 36.7911 54.5698 36.5774 54.2944C36.4985 54.2036 36.4368 54.099 36.3956 53.986C36.3185 53.7383 36.4418 53.4639 36.3709 53.2152C36.3298 53.0723 35.9866 52.5615 35.8407 52.5296C35.6178 52.4854 35.3126 52.987 35.2376 53.1545Z" fill="black"/>
<path opacity="0.1" d="M48.1849 46.9616C48.3904 46.8947 49.4354 46.6995 49.1199 46.3027C48.8323 45.9389 48.4079 46.8845 48.1849 46.9616Z" fill="black"/>
<path d="M44.4315 36.7443L46.2059 35.8799L45.5895 44.789L43.7205 44.4179L44.2054 37.0763C44.2165 36.9333 44.3026 36.807 44.4315 36.7443Z" fill="#CBE3FF"/>
<path d="M46.206 35.8799L45.5895 44.789C45.7307 44.7888 45.8479 44.68 45.8587 44.5392L46.5009 36.3116C46.5156 36.1164 46.3931 35.937 46.206 35.8799Z" fill="#C8BFCA"/>
<path d="M43.7267 44.3677L38.0961 48.5077C38.001 48.5759 37.9394 48.6814 37.9269 48.7978C37.9143 48.9141 37.9519 49.0303 38.0303 49.1172L38.581 49.7442L45.7056 44.4181L43.9712 44.2937C43.8835 44.2882 43.7966 44.3144 43.7267 44.3677Z" fill="#F1F1F2"/>
<path d="M43.5818 44.7881L39.7893 47.444L40.3174 48.0164L44.7418 44.8672L43.5818 44.7881Z" fill="#7E7A98"/>
<path d="M38.5831 49.7441L45.7056 44.418C45.822 44.6606 45.7505 44.9517 45.535 45.1128L39.2787 49.8068C39.0653 49.9685 38.7641 49.9413 38.5831 49.7441Z" fill="#C8BFCA"/>
<path d="M37.3563 48.312C37.3563 48.312 39.8428 43.2871 41.311 45.2091C42.7793 47.1311 39.0588 49.2175 39.0588 49.2175L37.3563 48.312Z" fill="#FFBEC5"/>
<path opacity="0.1" d="M24.1017 40.0546C23.0998 40.3155 22.3058 41.079 22.0057 42.0701C21.8443 42.6221 21.8556 43.2275 22.4023 43.6324C23.6537 44.5574 25.421 45.2091 26.2389 46.7272C26.7508 47.7199 27.1044 48.7867 27.2869 49.8887L29.4056 53.0163C29.4056 53.0163 29.7272 54.0174 31.8716 53.2342C34.0159 52.451 35.1883 52.0492 35.1883 52.0492C35.1883 52.0492 36.8507 51.157 37.5936 50.8312C37.6983 50.7779 37.8096 50.7385 37.9245 50.714C38.1742 50.714 39.962 49.1836 40.0442 48.9729C40.1264 48.7622 38.2368 47.8865 37.4816 48.0767C37.4816 48.0767 37.3737 48.5289 35.9558 48.4621C34.5379 48.3953 34.0036 48.9966 34.0036 48.9966C34.0036 48.9966 33.3028 48.7458 32.8528 48.7704C32.4028 48.7951 31.5859 48.3593 30.9766 48.4117C30.9766 48.4117 31.2849 47.7951 30.8852 47.2811C30.4855 46.7672 30.1176 46.8135 29.9512 46.205C29.8556 45.8576 29.5402 44.7527 29.2844 43.8647C28.9509 42.6823 28.2864 41.6199 27.3691 40.8028C26.7711 40.2756 26.0601 39.847 25.347 39.8727C24.9264 39.8863 24.5087 39.9474 24.1017 40.0546Z" fill="black"/>
<path opacity="0.1" d="M24.1459 39.8043C23.1433 40.0657 22.3484 40.8293 22.0467 41.8208C21.8864 42.3728 21.8967 42.9771 22.4444 43.3821C23.6948 44.3071 25.4631 44.9587 26.28 46.4768C26.793 47.4694 27.1477 48.5361 27.3311 49.6384L29.4497 52.767C29.4497 52.767 29.7703 53.7681 31.9157 52.9839C34.0611 52.1997 35.2324 51.7999 35.2324 51.7999C35.2324 51.7999 36.8949 50.9067 37.6367 50.5819C37.7413 50.5282 37.8526 50.4888 37.9676 50.4647C38.2183 50.4647 40.0061 48.9343 40.0873 48.7236C40.1685 48.5129 38.281 47.6372 37.5258 47.8274C37.5258 47.8274 37.4179 48.2796 36 48.2128C34.582 48.146 34.0477 48.7462 34.0477 48.7462C34.0477 48.7462 33.347 48.4965 32.897 48.5211C32.4469 48.5458 31.629 48.11 31.0208 48.1624C31.0208 48.1624 31.329 47.5457 30.9283 47.0318C30.5276 46.5179 30.1618 46.5652 29.9943 45.9557C29.8998 45.6094 29.5833 44.5045 29.3285 43.6154C28.9948 42.4331 28.3303 41.3708 27.4133 40.5535C26.8142 40.0263 26.1043 39.5977 25.3912 39.6285C24.9708 39.6399 24.553 39.6988 24.1459 39.8043Z" fill="black"/>
<path d="M24.1017 39.9049C23.0998 40.1657 22.3058 40.9293 22.0057 41.9204C21.8443 42.4723 21.8556 43.0777 22.4023 43.4827C23.6537 44.4077 25.421 45.0593 26.2389 46.5774C26.7508 47.5702 27.1044 48.6369 27.2869 49.739L29.4056 52.8666C29.4056 52.8666 29.7272 53.8677 31.8716 53.0835C34.0159 52.2992 35.1883 51.8994 35.1883 51.8994C35.1883 51.8994 36.8507 51.0063 37.5936 50.6815C37.6981 50.6276 37.8094 50.5882 37.9245 50.5643C38.1742 50.5643 39.962 49.0339 40.0442 48.8232C40.1264 48.6125 38.2368 47.7368 37.4816 47.9269C37.4816 47.9269 37.3737 48.3792 35.9558 48.3124C34.5379 48.2456 34.0036 48.8458 34.0036 48.8458C34.0036 48.8458 33.3028 48.596 32.8528 48.6207C32.4028 48.6454 31.5859 48.2096 30.9766 48.262C30.9766 48.262 31.2849 47.6453 30.8852 47.1314C30.4855 46.6175 30.1176 46.6648 29.9512 46.0563C29.8556 45.7089 29.5402 44.604 29.2844 43.715C28.9509 42.5328 28.2863 41.4708 27.3691 40.6541C26.7711 40.1258 26.0601 39.6983 25.347 39.7291C24.9267 39.7407 24.5089 39.7997 24.1017 39.9049Z" fill="#FD6F8D"/>
<path opacity="0.1" d="M30.6776 32.1634C31.0423 32.036 31.3742 31.7399 31.4307 31.3576C31.4544 31.1015 31.3941 30.8447 31.2591 30.6258C30.8029 29.8035 29.8833 29.3657 28.9987 29.0594C28.114 28.7531 27.1872 28.5239 26.2532 28.5763C25.3193 28.6288 24.3729 28.9875 23.7688 29.7069C23.6623 29.8546 23.5365 29.9874 23.3948 30.1016C23.18 30.2486 22.9057 30.2722 22.6457 30.263C21.7888 30.2311 20.8939 29.8919 20.1037 30.2249C19.1543 30.6237 18.8214 31.7882 18.6981 32.8119C18.5707 33.8644 18.5399 34.9364 18.2615 35.9601C17.983 36.9838 17.4117 37.9839 16.4808 38.4916C16.2085 38.6396 15.9116 38.7434 15.6588 38.9182C15.4061 39.0929 15.1852 39.3653 15.1841 39.6757C15.1841 40.0981 15.5623 40.4085 15.7595 40.7816C15.9034 41.054 15.9589 41.3798 16.1757 41.5977C16.6062 42.0335 17.3696 41.7868 17.9224 42.052C18.4135 42.2884 18.6252 42.867 19.0115 43.2525C19.4657 43.7057 20.1356 43.864 20.7747 43.9082C21.1251 43.9318 21.4878 43.9257 21.8104 43.789C22.4536 43.5166 22.7947 42.7817 22.8327 42.0849C22.8708 41.388 22.6704 40.7035 22.5245 40.02C22.4762 39.7949 22.4351 39.5544 22.5245 39.3396C22.6008 39.1745 22.7196 39.0326 22.8687 38.9285C23.628 38.3282 24.71 38.0538 25.1456 37.1894C25.4384 36.6087 25.3511 35.919 25.421 35.2725C25.4477 35.0372 25.5063 34.7874 25.6809 34.626C25.8946 34.4297 26.2142 34.4205 26.5029 34.3948C27.3591 34.3085 28.1672 33.9575 28.8148 33.3906C29.1292 33.1162 29.3192 32.7739 29.5926 32.4748C29.8659 32.1757 30.3087 32.2898 30.6776 32.1634Z" fill="black"/>
<path d="M30.5748 32.0638C30.9396 31.9354 31.2715 31.6394 31.328 31.257C31.3511 31.0011 31.2905 30.7447 31.1554 30.5262C30.7002 29.704 29.7796 29.2661 28.8949 28.9588C28.0102 28.6515 27.0824 28.4244 26.1495 28.4768C25.2165 28.5292 24.2692 28.8879 23.664 29.6074C23.5579 29.755 23.4324 29.8878 23.291 30.0021C23.0763 30.149 22.8019 30.1737 22.542 30.1634C21.6851 30.1326 20.7901 29.7934 19.999 30.1254C19.0496 30.5252 18.7167 31.6897 18.5934 32.7124C18.467 33.7659 18.4361 34.8369 18.1577 35.8606C17.8793 36.8843 17.3069 37.8854 16.376 38.3921C16.1038 38.5411 15.8068 38.6439 15.5541 38.8196C15.3013 38.9954 15.0804 39.2667 15.0804 39.5761C15.0804 39.9985 15.4585 40.31 15.6558 40.6831C15.7986 40.9544 15.8551 41.2813 16.0668 41.4992C16.4983 41.9339 17.2617 41.6872 17.8135 41.9534C18.3057 42.1898 18.5173 42.7685 18.9037 43.1539C19.3568 43.6062 20.0267 43.7655 20.6668 43.8086C21.0162 43.8333 21.3799 43.8261 21.7025 43.6894C22.3457 43.417 22.6869 42.6832 22.7249 41.9863C22.7629 41.2895 22.5615 40.6039 22.4166 39.9215C22.3694 39.6964 22.3283 39.4559 22.4115 39.2411C22.4885 39.0761 22.6076 38.9343 22.7567 38.8299C23.515 38.2307 24.5969 37.9563 25.0326 37.0919C25.3254 36.5112 25.2381 35.8215 25.309 35.175C25.3357 34.9386 25.3943 34.6889 25.5679 34.5285C25.7827 34.3312 26.1022 34.323 26.3899 34.2973C27.2464 34.2102 28.0546 33.8589 28.7028 33.2921C29.0172 33.0187 29.2062 32.6754 29.4806 32.3763C29.7549 32.0772 30.2091 32.1933 30.5748 32.0638Z" fill="#FFE2DA"/>
<g opacity="0.1">
<path d="M17.5659 41.649C17.0521 41.4024 16.3534 41.5997 15.9116 41.2749C15.9532 41.3557 16.0061 41.4301 16.0688 41.4959C16.5004 41.9306 17.2638 41.684 17.8155 41.9502C17.9407 42.0113 18.0541 42.0941 18.1505 42.1948C18.0039 41.9672 17.803 41.7796 17.5659 41.649Z" fill="black"/>
<path d="M31.1585 30.5263C31.0558 30.3409 30.9286 30.1701 30.7804 30.0186C30.8284 30.0845 30.8726 30.1531 30.9129 30.2241C31.0479 30.4426 31.1081 30.6991 31.0845 30.9549C31.028 31.3372 30.6961 31.6332 30.3313 31.7617C29.9666 31.8902 29.5094 31.7689 29.2371 32.0701C28.9648 32.3712 28.7726 32.7124 28.4582 32.9858C27.8105 33.5526 27.0026 33.9039 26.1464 33.991C25.8566 34.0178 25.5371 34.025 25.3244 34.2223C25.1497 34.3826 25.0912 34.6334 25.0655 34.8688C24.9915 35.5143 25.0819 36.205 24.7891 36.7857C24.3534 37.649 23.2715 37.9235 22.5122 38.5237C22.3634 38.6282 22.2447 38.77 22.168 38.9348C22.0837 39.1486 22.1248 39.3901 22.1731 39.6152C22.319 40.2977 22.5204 40.9822 22.4814 41.6801C22.4423 42.378 22.1012 43.1108 21.459 43.3832C21.1354 43.5199 20.7727 43.5261 20.4223 43.5024C19.7832 43.4592 19.1133 43.2969 18.6591 42.8477L18.653 42.8405C18.7301 42.9501 18.816 43.0532 18.9098 43.1488C19.3629 43.6011 20.0329 43.7604 20.673 43.8036C21.0223 43.8282 21.3861 43.821 21.7087 43.6843C22.3519 43.412 22.693 42.6781 22.731 41.9813C22.7691 41.2844 22.5677 40.5988 22.4228 39.9164C22.3755 39.6913 22.3344 39.4508 22.4177 39.236C22.4947 39.071 22.6138 38.9292 22.7629 38.8248C23.5212 38.2256 24.6031 37.9512 25.0388 37.0868C25.3316 36.5061 25.2443 35.8164 25.3152 35.1699C25.3419 34.9335 25.4004 34.6838 25.5751 34.5235C25.7888 34.3261 26.1084 34.3179 26.3971 34.2922C27.2536 34.2051 28.0618 33.8538 28.71 33.287C29.0244 33.0136 29.2134 32.6703 29.4878 32.3712C29.7621 32.0721 30.2142 32.1934 30.5831 32.0629C30.9519 31.9323 31.2797 31.6384 31.3362 31.256C31.3576 31 31.2952 30.7439 31.1585 30.5263Z" fill="black"/>
</g>
<path opacity="0.1" d="M103.627 80.8342C107.86 80.8342 111.292 80.3073 111.292 79.6573C111.292 79.0074 107.86 78.4805 103.627 78.4805C99.3937 78.4805 95.9619 79.0074 95.9619 79.6573C95.9619 80.3073 99.3937 80.8342 103.627 80.8342Z" fill="#C449AB"/>
<path opacity="0.1" d="M10.9643 84.9289C13.3136 84.9289 15.2181 84.6366 15.2181 84.2762C15.2181 83.9157 13.3136 83.6235 10.9643 83.6235C8.615 83.6235 6.71051 83.9157 6.71051 84.2762C6.71051 84.6366 8.615 84.9289 10.9643 84.9289Z" fill="#C449AB"/>
<path d="M9.60084 57.3579C9.60084 57.3579 10.3334 58.3169 9.26279 59.764C8.19215 61.2112 7.31057 62.4363 7.66403 63.3367C7.66403 63.3367 9.28129 60.6479 10.5965 60.6109C11.9116 60.5739 11.0527 58.9747 9.60084 57.3579Z" fill="#C449AB"/>
<path opacity="0.1" d="M9.60079 57.3579C9.66482 57.4503 9.71533 57.5514 9.7508 57.658C11.0341 59.1669 11.7184 60.575 10.4844 60.6109C9.33467 60.6438 7.95579 62.6994 7.62494 63.2185C7.63624 63.2586 7.6496 63.2987 7.66398 63.3367C7.66398 63.3367 9.28124 60.6479 10.5964 60.6109C11.9116 60.5739 11.0526 58.9747 9.60079 57.3579Z" fill="black"/>
<path d="M10.9676 58.5801C10.9676 58.9172 10.9286 59.1906 10.8812 59.1906C10.8337 59.1906 10.7947 58.9172 10.7947 58.5801C10.7947 58.243 10.8432 58.4013 10.8907 58.4013C10.9381 58.4013 10.9676 58.242 10.9676 58.5801Z" fill="#FFD037"/>
<path d="M11.4308 58.9887C11.1349 59.1542 10.877 59.2544 10.8544 59.2122C10.8318 59.17 11.0537 59.0014 11.3506 58.8359C11.6476 58.6704 11.5294 58.7916 11.5561 58.8359C11.5829 58.8802 11.7277 58.8232 11.4308 58.9887Z" fill="#FFD037"/>
<path d="M5.7282 57.3579C5.7282 57.3579 4.9956 58.3169 6.06624 59.764C7.13688 61.2112 8.01846 62.4363 7.66398 63.3367C7.66398 63.3367 6.04775 60.6479 4.73154 60.6109C3.41533 60.5739 4.28048 58.9747 5.7282 57.3579Z" fill="#C449AB"/>
<path opacity="0.1" d="M5.7282 57.3579C5.66417 57.4503 5.61366 57.5514 5.57819 57.658C4.29486 59.1669 3.61056 60.575 4.84456 60.6109C5.99432 60.6438 7.3732 62.6994 7.70303 63.2185C7.69265 63.2587 7.6796 63.2982 7.66398 63.3367C7.66398 63.3367 6.04775 60.6479 4.73154 60.6109C3.41533 60.5739 4.28048 58.9747 5.7282 57.3579Z" fill="black"/>
<path d="M4.36578 58.5801C4.36578 58.9172 4.40479 59.1906 4.45222 59.1906C4.49966 59.1906 4.53866 58.9172 4.53866 58.5801C4.53866 58.243 4.49017 58.4013 4.44273 58.4013C4.3953 58.4013 4.36578 58.242 4.36578 58.5801Z" fill="#FFD037"/>
<path d="M3.89827 58.9887C4.19418 59.1542 4.45208 59.2544 4.47469 59.2122C4.49729 59.17 4.27535 59.0014 3.97841 58.8359C3.68147 58.6704 3.79963 58.7916 3.77291 58.8359C3.7462 58.8802 3.60133 58.8232 3.89827 58.9887Z" fill="#FFD037"/>
<path opacity="0.1" d="M7.66503 70.6735C11.8983 70.6735 15.3301 70.1466 15.3301 69.4967C15.3301 68.8467 11.8983 68.3198 7.66503 68.3198C3.43175 68.3198 0 68.8467 0 69.4967C0 70.1466 3.43175 70.6735 7.66503 70.6735Z" fill="#C449AB"/>
<path d="M11.6095 62.0448L11.5725 62.3439L11.5212 62.7673L11.4996 62.9431L11.4482 63.3665L11.4266 63.5433L11.3753 63.9657L10.7886 68.7769C10.7362 69.2065 10.0344 69.5406 9.18878 69.5406H6.14023C5.29358 69.5406 4.599 69.2065 4.54147 68.7769L3.95374 63.9668L3.90237 63.5443L3.88079 63.3676L3.82839 62.9441L3.80784 62.7683L3.75647 62.3449L3.71948 62.0458C3.68968 61.8032 4.06882 61.5977 4.54866 61.5977H10.7814C11.2581 61.5966 11.6393 61.8022 11.6095 62.0448Z" fill="#65617D"/>
<path d="M11.5736 62.3438L11.5222 62.777H3.80784L3.75647 62.3438H11.5736Z" fill="#9D9CB5"/>
<path d="M11.5006 62.9434L11.4492 63.3777H3.88181L3.82941 62.9434H11.5006Z" fill="#9D9CB5"/>
<path d="M11.4267 63.5425L11.3753 63.9768H3.95378L3.9024 63.5425H11.4267Z" fill="#9D9CB5"/>
<defs>
<linearGradient id="paint0_linear" x1="66.87" y1="57.0393" x2="66.87" y2="28.2328" gradientUnits="userSpaceOnUse">
<stop stop-color="#808080" stop-opacity="0.25"/>
<stop offset="0.54" stop-color="#808080" stop-opacity="0.12"/>
<stop offset="1" stop-color="#808080" stop-opacity="0.1"/>
</linearGradient>
</defs>
</svg>
