<svg width="182" height="19" viewBox="0 0 182 19" fill="none" xmlns="http://www.w3.org/2000/svg">
<path d="M2.00445 4.42C2.32445 4.42 2.56445 4.51333 2.72445 4.7C2.89779 4.87333 2.98445 5.12 2.98445 5.44V5.82C2.98445 6.14 2.89779 6.39333 2.72445 6.58C2.56445 6.75333 2.32445 6.84 2.00445 6.84H1.78445C1.46445 6.84 1.21779 6.75333 1.04445 6.58C0.884453 6.39333 0.804453 6.14 0.804453 5.82V5.44C0.804453 5.12 0.884453 4.87333 1.04445 4.7C1.21779 4.51333 1.46445 4.42 1.78445 4.42H2.00445ZM1.88445 8.62C2.25779 8.62 2.45779 8.83333 2.48445 9.26L2.92445 17.22C2.95112 17.5667 2.86445 17.8533 2.66445 18.08C2.47779 18.3067 2.22445 18.42 1.90445 18.42C1.57112 18.42 1.31112 18.3067 1.12445 18.08C0.937787 17.8533 0.857786 17.5667 0.884453 17.22L1.30445 9.26C1.31779 9.04667 1.37112 8.88667 1.46445 8.78C1.57112 8.67333 1.71112 8.62 1.88445 8.62ZM14.9724 0.999999C15.2524 0.999999 15.4791 1.08667 15.6524 1.26C15.8391 1.42 15.9324 1.64 15.9324 1.92C15.9324 2.2 15.8391 2.42 15.6524 2.58C15.4791 2.74 15.2524 2.82 14.9724 2.82H11.4124V14.04C11.4124 14.3067 11.3124 14.5333 11.1124 14.72C10.9258 14.9067 10.6858 15 10.3924 15C10.0991 15 9.85242 14.9067 9.65242 14.72C9.46576 14.5333 9.37242 14.3067 9.37242 14.04V2.82H5.83242C5.55242 2.82 5.31909 2.74 5.13242 2.58C4.95909 2.40667 4.87242 2.18 4.87242 1.9C4.87242 1.63333 4.95909 1.42 5.13242 1.26C5.31909 1.08667 5.55242 0.999999 5.83242 0.999999H14.9724ZM24.504 4.38C24.784 4.38 25.0107 4.47333 25.184 4.66C25.3707 4.83333 25.464 5.06667 25.464 5.36V14.04C25.464 14.3067 25.3707 14.5333 25.184 14.72C25.0107 14.9067 24.784 15 24.504 15C24.224 15 23.9973 14.9133 23.824 14.74C23.6507 14.5533 23.564 14.32 23.564 14.04V13.52C23.2173 13.9867 22.744 14.3867 22.144 14.72C21.544 15.04 20.8973 15.2 20.204 15.2C19.2973 15.2 18.4707 14.9667 17.724 14.5C16.9907 14.0333 16.4107 13.3867 15.984 12.56C15.5707 11.72 15.364 10.78 15.364 9.74C15.364 8.7 15.5707 7.76667 15.984 6.94C16.4107 6.1 16.9907 5.44667 17.724 4.98C18.4573 4.51333 19.264 4.28 20.144 4.28C20.8507 4.28 21.504 4.42667 22.104 4.72C22.7173 5.01333 23.204 5.38667 23.564 5.84V5.36C23.564 5.08 23.6507 4.84667 23.824 4.66C23.9973 4.47333 24.224 4.38 24.504 4.38ZM20.424 13.44C21.0507 13.44 21.604 13.28 22.084 12.96C22.5773 12.64 22.9573 12.2 23.224 11.64C23.504 11.08 23.644 10.4467 23.644 9.74C23.644 9.04667 23.504 8.42 23.224 7.86C22.9573 7.3 22.5773 6.86 22.084 6.54C21.604 6.20667 21.0507 6.04 20.424 6.04C19.7973 6.04 19.2373 6.2 18.744 6.52C18.264 6.84 17.884 7.28 17.604 7.84C17.3373 8.4 17.204 9.03333 17.204 9.74C17.204 10.4467 17.3373 11.08 17.604 11.64C17.884 12.2 18.264 12.64 18.744 12.96C19.2373 13.28 19.7973 13.44 20.424 13.44ZM33.5091 4.28C33.8558 4.28 34.1558 4.37333 34.4091 4.56C34.6625 4.73333 34.7891 4.95333 34.7891 5.22C34.7891 5.54 34.7025 5.78667 34.5291 5.96C34.3691 6.12 34.1691 6.2 33.9291 6.2C33.8091 6.2 33.6291 6.16 33.3891 6.08C33.1091 5.98667 32.8891 5.94 32.7291 5.94C32.3158 5.94 31.9091 6.08667 31.5091 6.38C31.1225 6.66 30.8025 7.05333 30.5491 7.56C30.3091 8.05333 30.1891 8.60667 30.1891 9.22V14.04C30.1891 14.3067 30.0958 14.5333 29.9091 14.72C29.7358 14.9067 29.5091 15 29.2291 15C28.9491 15 28.7225 14.9133 28.5491 14.74C28.3758 14.5533 28.2891 14.32 28.2891 14.04V5.48C28.2891 5.21333 28.3758 4.98667 28.5491 4.8C28.7358 4.61333 28.9625 4.52 29.2291 4.52C29.5091 4.52 29.7358 4.61333 29.9091 4.8C30.0958 4.98667 30.1891 5.21333 30.1891 5.48V6.5C30.4825 5.84667 30.9225 5.32 31.5091 4.92C32.0958 4.50667 32.7625 4.29333 33.5091 4.28ZM45.3016 9.36C45.2883 9.6 45.1883 9.80667 45.0016 9.98C44.815 10.14 44.595 10.22 44.3416 10.22H37.3016C37.395 11.1933 37.7616 11.9733 38.4016 12.56C39.055 13.1467 39.8483 13.44 40.7816 13.44C41.4216 13.44 41.9416 13.3467 42.3416 13.16C42.7416 12.9733 43.095 12.7333 43.4016 12.44C43.6016 12.32 43.795 12.26 43.9816 12.26C44.2083 12.26 44.395 12.34 44.5416 12.5C44.7016 12.66 44.7816 12.8467 44.7816 13.06C44.7816 13.34 44.6483 13.5933 44.3816 13.82C43.995 14.2067 43.4816 14.5333 42.8416 14.8C42.2016 15.0667 41.5483 15.2 40.8816 15.2C39.8016 15.2 38.8483 14.9733 38.0216 14.52C37.2083 14.0667 36.575 13.4333 36.1216 12.62C35.6816 11.8067 35.4616 10.8867 35.4616 9.86C35.4616 8.74 35.6883 7.76 36.1416 6.92C36.6083 6.06667 37.215 5.41333 37.9616 4.96C38.7216 4.50667 39.535 4.28 40.4016 4.28C41.255 4.28 42.055 4.5 42.8016 4.94C43.5483 5.38 44.1483 5.98667 44.6016 6.76C45.055 7.53333 45.2883 8.4 45.3016 9.36ZM40.4016 6.04C39.655 6.04 39.0083 6.25333 38.4616 6.68C37.915 7.09333 37.555 7.74 37.3816 8.62H43.2816V8.46C43.215 7.75333 42.895 7.17333 42.3216 6.72C41.7616 6.26667 41.1216 6.04 40.4016 6.04ZM56.086 4.38C56.366 4.38 56.5927 4.47333 56.766 4.66C56.9527 4.83333 57.046 5.06667 57.046 5.36V14.04C57.046 14.3067 56.9527 14.5333 56.766 14.72C56.5927 14.9067 56.366 15 56.086 15C55.806 15 55.5793 14.9133 55.406 14.74C55.2327 14.5533 55.146 14.32 55.146 14.04V13.52C54.7993 13.9867 54.326 14.3867 53.726 14.72C53.126 15.04 52.4793 15.2 51.786 15.2C50.8793 15.2 50.0527 14.9667 49.306 14.5C48.5727 14.0333 47.9927 13.3867 47.566 12.56C47.1527 11.72 46.946 10.78 46.946 9.74C46.946 8.7 47.1527 7.76667 47.566 6.94C47.9927 6.1 48.5727 5.44667 49.306 4.98C50.0393 4.51333 50.846 4.28 51.726 4.28C52.4327 4.28 53.086 4.42667 53.686 4.72C54.2993 5.01333 54.786 5.38667 55.146 5.84V5.36C55.146 5.08 55.2327 4.84667 55.406 4.66C55.5793 4.47333 55.806 4.38 56.086 4.38ZM52.006 13.44C52.6327 13.44 53.186 13.28 53.666 12.96C54.1593 12.64 54.5393 12.2 54.806 11.64C55.086 11.08 55.226 10.4467 55.226 9.74C55.226 9.04667 55.086 8.42 54.806 7.86C54.5393 7.3 54.1593 6.86 53.666 6.54C53.186 6.20667 52.6327 6.04 52.006 6.04C51.3793 6.04 50.8193 6.2 50.326 6.52C49.846 6.84 49.466 7.28 49.186 7.84C48.9193 8.4 48.786 9.03333 48.786 9.74C48.786 10.4467 48.9193 11.08 49.186 11.64C49.466 12.2 49.846 12.64 50.326 12.96C50.8193 13.28 51.3793 13.44 52.006 13.44ZM69.978 4.28C71.0314 4.28 71.9047 4.44667 72.598 4.78C73.3047 5.11333 73.658 5.54 73.658 6.06C73.658 6.28667 73.5847 6.49333 73.438 6.68C73.2914 6.85333 73.1047 6.94 72.878 6.94C72.7047 6.94 72.5647 6.91333 72.458 6.86C72.3647 6.80667 72.2314 6.72 72.058 6.6C71.978 6.52 71.8514 6.42667 71.678 6.32C71.518 6.24 71.2914 6.17333 70.998 6.12C70.7047 6.06667 70.438 6.04 70.198 6.04C69.5047 6.04 68.8914 6.2 68.358 6.52C67.8247 6.84 67.4114 7.28667 67.118 7.86C66.8247 8.42 66.678 9.04667 66.678 9.74C66.678 10.4467 66.818 11.08 67.098 11.64C67.3914 12.2 67.798 12.64 68.318 12.96C68.838 13.28 69.4314 13.44 70.098 13.44C70.7914 13.44 71.3514 13.3333 71.778 13.12C71.8714 13.0667 71.998 12.98 72.158 12.86C72.2914 12.7533 72.4047 12.6733 72.498 12.62C72.6047 12.5667 72.7314 12.54 72.878 12.54C73.1447 12.54 73.3514 12.6267 73.498 12.8C73.658 12.96 73.738 13.1733 73.738 13.44C73.738 13.72 73.558 14 73.198 14.28C72.8514 14.5467 72.378 14.7667 71.778 14.94C71.1914 15.1133 70.558 15.2 69.878 15.2C68.8647 15.2 67.9714 14.9667 67.198 14.5C66.4247 14.02 65.8247 13.3667 65.398 12.54C64.9847 11.7 64.778 10.7667 64.778 9.74C64.778 8.71333 64.998 7.78667 65.438 6.96C65.878 6.12 66.4914 5.46667 67.278 5C68.0647 4.52 68.9647 4.28 69.978 4.28ZM85.6115 9.76C85.6115 10.8 85.3782 11.7333 84.9115 12.56C84.4448 13.3867 83.8048 14.0333 82.9915 14.5C82.1915 14.9667 81.3048 15.2 80.3315 15.2C79.3582 15.2 78.4648 14.9667 77.6515 14.5C76.8515 14.0333 76.2182 13.3867 75.7515 12.56C75.2848 11.7333 75.0515 10.8 75.0515 9.76C75.0515 8.72 75.2848 7.78 75.7515 6.94C76.2182 6.1 76.8515 5.44667 77.6515 4.98C78.4648 4.51333 79.3582 4.28 80.3315 4.28C81.3048 4.28 82.1915 4.51333 82.9915 4.98C83.8048 5.44667 84.4448 6.1 84.9115 6.94C85.3782 7.78 85.6115 8.72 85.6115 9.76ZM83.7115 9.76C83.7115 9.04 83.5582 8.4 83.2515 7.84C82.9582 7.26667 82.5515 6.82667 82.0315 6.52C81.5248 6.2 80.9582 6.04 80.3315 6.04C79.7048 6.04 79.1315 6.2 78.6115 6.52C78.1048 6.82667 77.6982 7.26667 77.3915 7.84C77.0982 8.4 76.9515 9.04 76.9515 9.76C76.9515 10.4667 77.0982 11.1 77.3915 11.66C77.6982 12.22 78.1048 12.66 78.6115 12.98C79.1315 13.2867 79.7048 13.44 80.3315 13.44C80.9582 13.44 81.5248 13.2867 82.0315 12.98C82.5515 12.66 82.9582 12.22 83.2515 11.66C83.5582 11.1 83.7115 10.4667 83.7115 9.76ZM99.8404 4.34C102.174 4.34 103.34 5.79333 103.34 8.7V14.04C103.34 14.32 103.254 14.5533 103.08 14.74C102.907 14.9133 102.68 15 102.4 15C102.12 15 101.887 14.9067 101.7 14.72C101.527 14.5333 101.44 14.3067 101.44 14.04V8.72C101.44 6.97333 100.707 6.1 99.2404 6.1C98.7204 6.1 98.2471 6.22 97.8204 6.46C97.4071 6.68667 97.0804 7 96.8404 7.4C96.6137 7.8 96.5004 8.24 96.5004 8.72V14.04C96.5004 14.3067 96.4071 14.5333 96.2204 14.72C96.0471 14.9067 95.8204 15 95.5404 15C95.2604 15 95.0337 14.9133 94.8604 14.74C94.6871 14.5533 94.6004 14.32 94.6004 14.04V8.7C94.6004 7.91333 94.4337 7.28667 94.1004 6.82C93.7671 6.34 93.2137 6.1 92.4404 6.1C91.6537 6.1 91.0004 6.35333 90.4804 6.86C89.9737 7.35333 89.7204 7.96667 89.7204 8.7V14.04C89.7204 14.3067 89.6271 14.5333 89.4404 14.72C89.2671 14.9067 89.0404 15 88.7604 15C88.4804 15 88.2537 14.9133 88.0804 14.74C87.9071 14.5533 87.8204 14.32 87.8204 14.04V5.48C87.8204 5.21333 87.9071 4.98667 88.0804 4.8C88.2671 4.61333 88.4937 4.52 88.7604 4.52C89.0404 4.52 89.2671 4.61333 89.4404 4.8C89.6271 4.98667 89.7204 5.21333 89.7204 5.48V6.18C90.0671 5.66 90.5271 5.22667 91.1004 4.88C91.6871 4.52 92.3204 4.34 93.0004 4.34C94.6537 4.34 95.7271 5.07333 96.2204 6.54C96.5137 5.98 97.0004 5.47333 97.6804 5.02C98.3604 4.56667 99.0804 4.34 99.8404 4.34ZM111.44 4.34C112.346 4.34 113.166 4.57333 113.9 5.04C114.633 5.49333 115.206 6.13333 115.62 6.96C116.046 7.78667 116.26 8.72 116.26 9.76C116.26 10.8 116.046 11.7333 115.62 12.56C115.206 13.3733 114.633 14.0133 113.9 14.48C113.166 14.9467 112.36 15.18 111.48 15.18C110.786 15.18 110.14 15.0267 109.54 14.72C108.94 14.4133 108.453 14.04 108.08 13.6V18.04C108.08 18.3067 107.986 18.5333 107.8 18.72C107.626 18.9067 107.4 19 107.12 19C106.853 19 106.626 18.9067 106.44 18.72C106.266 18.5467 106.18 18.32 106.18 18.04V5.46C106.18 5.18 106.266 4.94667 106.44 4.76C106.613 4.57333 106.84 4.48 107.12 4.48C107.4 4.48 107.626 4.57333 107.8 4.76C107.986 4.94667 108.08 5.18 108.08 5.46V6.04C108.4 5.57333 108.866 5.17333 109.48 4.84C110.093 4.50667 110.746 4.34 111.44 4.34ZM111.22 13.42C111.833 13.42 112.386 13.26 112.88 12.94C113.373 12.62 113.753 12.1867 114.02 11.64C114.3 11.08 114.44 10.4533 114.44 9.76C114.44 9.06667 114.3 8.44667 114.02 7.9C113.753 7.34 113.373 6.9 112.88 6.58C112.386 6.26 111.833 6.1 111.22 6.1C110.593 6.1 110.033 6.26 109.54 6.58C109.046 6.88667 108.66 7.32 108.38 7.88C108.113 8.44 107.98 9.06667 107.98 9.76C107.98 10.4533 108.113 11.08 108.38 11.64C108.66 12.2 109.046 12.64 109.54 12.96C110.033 13.2667 110.593 13.42 111.22 13.42ZM120.525 14.04C120.525 14.3067 120.432 14.5333 120.245 14.72C120.058 14.9067 119.832 15 119.565 15C119.298 15 119.072 14.9067 118.885 14.72C118.712 14.5333 118.625 14.3067 118.625 14.04V1.16C118.625 0.893333 118.718 0.666666 118.905 0.48C119.092 0.293333 119.318 0.2 119.585 0.2C119.852 0.2 120.072 0.293333 120.245 0.48C120.432 0.666666 120.525 0.893333 120.525 1.16V14.04ZM132.528 9.36C132.515 9.6 132.415 9.80667 132.228 9.98C132.042 10.14 131.822 10.22 131.568 10.22H124.528C124.622 11.1933 124.988 11.9733 125.628 12.56C126.282 13.1467 127.075 13.44 128.008 13.44C128.648 13.44 129.168 13.3467 129.568 13.16C129.968 12.9733 130.322 12.7333 130.628 12.44C130.828 12.32 131.022 12.26 131.208 12.26C131.435 12.26 131.622 12.34 131.768 12.5C131.928 12.66 132.008 12.8467 132.008 13.06C132.008 13.34 131.875 13.5933 131.608 13.82C131.222 14.2067 130.708 14.5333 130.068 14.8C129.428 15.0667 128.775 15.2 128.108 15.2C127.028 15.2 126.075 14.9733 125.248 14.52C124.435 14.0667 123.802 13.4333 123.348 12.62C122.908 11.8067 122.688 10.8867 122.688 9.86C122.688 8.74 122.915 7.76 123.368 6.92C123.835 6.06667 124.442 5.41333 125.188 4.96C125.948 4.50667 126.762 4.28 127.628 4.28C128.482 4.28 129.282 4.5 130.028 4.94C130.775 5.38 131.375 5.98667 131.828 6.76C132.282 7.53333 132.515 8.4 132.528 9.36ZM127.628 6.04C126.882 6.04 126.235 6.25333 125.688 6.68C125.142 7.09333 124.782 7.74 124.608 8.62H130.508V8.46C130.442 7.75333 130.122 7.17333 129.548 6.72C128.988 6.26667 128.348 6.04 127.628 6.04ZM137.574 6.38V12.34C137.574 13.0067 137.874 13.34 138.474 13.34C138.568 13.34 138.694 13.32 138.854 13.28C139.014 13.2267 139.141 13.2 139.234 13.2C139.408 13.2 139.554 13.2733 139.674 13.42C139.794 13.5667 139.854 13.7533 139.854 13.98C139.854 14.26 139.694 14.5 139.374 14.7C139.054 14.9 138.694 15 138.294 15C137.854 15 137.448 14.9533 137.074 14.86C136.714 14.7667 136.388 14.5333 136.094 14.16C135.814 13.7733 135.674 13.1933 135.674 12.42V6.38H134.514C134.261 6.38 134.048 6.3 133.874 6.14C133.714 5.96667 133.634 5.75333 133.634 5.5C133.634 5.24667 133.714 5.04 133.874 4.88C134.048 4.72 134.261 4.64 134.514 4.64H135.674V2.96C135.674 2.69333 135.761 2.46667 135.934 2.28C136.121 2.09333 136.354 2 136.634 2C136.901 2 137.121 2.09333 137.294 2.28C137.481 2.46667 137.574 2.69333 137.574 2.96V4.64H139.234C139.488 4.64 139.694 4.72667 139.854 4.9C140.028 5.06 140.114 5.26667 140.114 5.52C140.114 5.77333 140.028 5.98 139.854 6.14C139.694 6.3 139.488 6.38 139.234 6.38H137.574ZM150.832 4.38C151.112 4.38 151.339 4.47333 151.512 4.66C151.699 4.83333 151.792 5.06667 151.792 5.36V14.04C151.792 14.3067 151.699 14.5333 151.512 14.72C151.339 14.9067 151.112 15 150.832 15C150.552 15 150.325 14.9133 150.152 14.74C149.979 14.5533 149.892 14.32 149.892 14.04V13.52C149.545 13.9867 149.072 14.3867 148.472 14.72C147.872 15.04 147.225 15.2 146.532 15.2C145.625 15.2 144.799 14.9667 144.052 14.5C143.319 14.0333 142.739 13.3867 142.312 12.56C141.899 11.72 141.692 10.78 141.692 9.74C141.692 8.7 141.899 7.76667 142.312 6.94C142.739 6.1 143.319 5.44667 144.052 4.98C144.785 4.51333 145.592 4.28 146.472 4.28C147.179 4.28 147.832 4.42667 148.432 4.72C149.045 5.01333 149.532 5.38667 149.892 5.84V5.36C149.892 5.08 149.979 4.84667 150.152 4.66C150.325 4.47333 150.552 4.38 150.832 4.38ZM146.752 13.44C147.379 13.44 147.932 13.28 148.412 12.96C148.905 12.64 149.285 12.2 149.552 11.64C149.832 11.08 149.972 10.4467 149.972 9.74C149.972 9.04667 149.832 8.42 149.552 7.86C149.285 7.3 148.905 6.86 148.412 6.54C147.932 6.20667 147.379 6.04 146.752 6.04C146.125 6.04 145.565 6.2 145.072 6.52C144.592 6.84 144.212 7.28 143.932 7.84C143.665 8.4 143.532 9.03333 143.532 9.74C143.532 10.4467 143.665 11.08 143.932 11.64C144.212 12.2 144.592 12.64 145.072 12.96C145.565 13.28 146.125 13.44 146.752 13.44ZM163.117 0.2C163.397 0.2 163.624 0.293333 163.797 0.48C163.984 0.653332 164.077 0.879999 164.077 1.16V14.04C164.077 14.3067 163.984 14.5333 163.797 14.72C163.624 14.9067 163.397 15 163.117 15C162.837 15 162.611 14.9133 162.437 14.74C162.264 14.5533 162.177 14.32 162.177 14.04V13.48C161.844 13.96 161.371 14.3667 160.757 14.7C160.157 15.0333 159.511 15.2 158.817 15.2C157.911 15.2 157.091 14.9667 156.357 14.5C155.624 14.0333 155.044 13.3867 154.617 12.56C154.191 11.72 153.977 10.78 153.977 9.74C153.977 8.7 154.184 7.76667 154.597 6.94C155.024 6.1 155.604 5.44667 156.337 4.98C157.071 4.51333 157.877 4.28 158.757 4.28C159.464 4.28 160.117 4.42667 160.717 4.72C161.317 5.01333 161.804 5.39333 162.177 5.86V1.16C162.177 0.879999 162.264 0.653332 162.437 0.48C162.611 0.293333 162.837 0.2 163.117 0.2ZM159.037 13.44C159.664 13.44 160.217 13.28 160.697 12.96C161.191 12.64 161.571 12.2 161.837 11.64C162.117 11.08 162.257 10.4467 162.257 9.74C162.257 9.04667 162.117 8.42 161.837 7.86C161.571 7.28667 161.191 6.84 160.697 6.52C160.217 6.2 159.664 6.04 159.037 6.04C158.411 6.04 157.851 6.2 157.357 6.52C156.877 6.84 156.497 7.28667 156.217 7.86C155.951 8.42 155.817 9.04667 155.817 9.74C155.817 10.4467 155.951 11.08 156.217 11.64C156.497 12.2 156.877 12.64 157.357 12.96C157.851 13.28 158.411 13.44 159.037 13.44ZM175.402 4.38C175.682 4.38 175.909 4.47333 176.082 4.66C176.269 4.83333 176.362 5.06667 176.362 5.36V14.04C176.362 14.3067 176.269 14.5333 176.082 14.72C175.909 14.9067 175.682 15 175.402 15C175.122 15 174.896 14.9133 174.722 14.74C174.549 14.5533 174.462 14.32 174.462 14.04V13.52C174.116 13.9867 173.642 14.3867 173.042 14.72C172.442 15.04 171.796 15.2 171.102 15.2C170.196 15.2 169.369 14.9667 168.622 14.5C167.889 14.0333 167.309 13.3867 166.882 12.56C166.469 11.72 166.262 10.78 166.262 9.74C166.262 8.7 166.469 7.76667 166.882 6.94C167.309 6.1 167.889 5.44667 168.622 4.98C169.356 4.51333 170.162 4.28 171.042 4.28C171.749 4.28 172.402 4.42667 173.002 4.72C173.616 5.01333 174.102 5.38667 174.462 5.84V5.36C174.462 5.08 174.549 4.84667 174.722 4.66C174.896 4.47333 175.122 4.38 175.402 4.38ZM171.322 13.44C171.949 13.44 172.502 13.28 172.982 12.96C173.476 12.64 173.856 12.2 174.122 11.64C174.402 11.08 174.542 10.4467 174.542 9.74C174.542 9.04667 174.402 8.42 174.122 7.86C173.856 7.3 173.476 6.86 172.982 6.54C172.502 6.20667 171.949 6.04 171.322 6.04C170.696 6.04 170.136 6.2 169.642 6.52C169.162 6.84 168.782 7.28 168.502 7.84C168.236 8.4 168.102 9.03333 168.102 9.74C168.102 10.4467 168.236 11.08 168.502 11.64C168.782 12.2 169.162 12.64 169.642 12.96C170.136 13.28 170.696 13.44 171.322 13.44ZM180.108 10.8C179.734 10.8 179.534 10.5867 179.508 10.16L179.068 2.2C179.041 1.85333 179.121 1.56667 179.308 1.34C179.508 1.11333 179.768 0.999999 180.088 0.999999C180.421 0.999999 180.681 1.11333 180.868 1.34C181.054 1.56667 181.134 1.85333 181.108 2.2L180.688 10.16C180.674 10.3733 180.614 10.5333 180.508 10.64C180.414 10.7467 180.281 10.8 180.108 10.8ZM179.988 15C179.668 15 179.421 14.9133 179.248 14.74C179.088 14.5533 179.008 14.3 179.008 13.98V13.6C179.008 13.28 179.088 13.0333 179.248 12.86C179.421 12.6733 179.668 12.58 179.988 12.58H180.208C180.528 12.58 180.768 12.6733 180.928 12.86C181.101 13.0333 181.188 13.28 181.188 13.6V13.98C181.188 14.3 181.101 14.5533 180.928 14.74C180.768 14.9133 180.528 15 180.208 15H179.988Z" fill="#000046"/>
</svg>
