<svg width="360" height="404" viewBox="0 0 360 404" fill="none" xmlns="http://www.w3.org/2000/svg">
<path d="M181 404C292.562 404 383 313.562 383 202C383 90.4385 292.562 0 181 0C69.4385 0 -21 90.4385 -21 202C-21 313.562 69.4385 404 181 404Z" fill="white"/>
<path d="M181 404C292.562 404 383 313.562 383 202C383 90.4385 292.562 0 181 0C69.4385 0 -21 90.4385 -21 202C-21 313.562 69.4385 404 181 404Z" fill="url(#paint0_linear)"/>
<mask id="mask0" mask-type="alpha" maskUnits="userSpaceOnUse" x="-21" y="0" width="404" height="404">
<path d="M181 404C292.562 404 383 313.562 383 202C383 90.4385 292.562 0 181 0C69.4385 0 -21 90.4385 -21 202C-21 313.562 69.4385 404 181 404Z" fill="white"/>
</mask>
<g mask="url(#mask0)">
<path fill-rule="evenodd" clip-rule="evenodd" d="M-19.5 250.5C-19.5 250.5 51.9212 138.561 116.5 148C181.079 157.438 177 91.4999 233 84.4999C289 77.4999 297.186 34.6085 339.262 64.2477C381.339 93.887 368.844 102.236 368.844 102.236L352.684 427.239H-9L-19.5 250.5Z" fill="url(#paint1_linear)"/>
</g>
<defs>
<linearGradient id="paint0_linear" x1="272.817" y1="183.635" x2="272.817" y2="0" gradientUnits="userSpaceOnUse">
<stop stop-color="#FFE3D1"/>
<stop offset="1" stop-color="#F68383"/>
</linearGradient>
<linearGradient id="paint1_linear" x1="34.7072" y1="46.6979" x2="115.471" y2="404.304" gradientUnits="userSpaceOnUse">
<stop stop-color="white"/>
<stop offset="0.240996" stop-color="#D3FCFD"/>
<stop offset="1" stop-color="#86A4EB"/>
</linearGradient>
</defs>
</svg>
