<svg width="201" height="208" viewBox="0 0 201 208" fill="none" xmlns="http://www.w3.org/2000/svg">
<path opacity="0.445312" d="M100.5 208C144.683 208 193.5 201.083 193.5 187C193.5 172.917 144.683 166 100.5 166C56.3172 166 11 172.917 11 187C11 201.083 56.3172 208 100.5 208Z" fill="url(#paint0_radial)"/>
<g filter="url(#filter0_d)">
<path fill-rule="evenodd" clip-rule="evenodd" d="M156.908 105.561C168.588 94.5679 175.69 80.0511 175.69 64.137C175.69 62.9337 175.65 61.7383 175.569 60.5519C189.189 60.3979 196.812 57.5043 196.812 49.172C196.812 39.7376 188.748 32.5805 174.39 32.5805C170.983 32.5805 168.278 32.9167 166.134 33.5281C153.459 14.7022 129.453 2 101.925 2C73.9386 2 49.5926 15.1281 37.0922 34.4724C34.7419 33.5169 31.5519 32.9769 27.2346 32.9769C12.8771 32.9769 4.8125 40.1341 4.8125 49.5685C4.8125 58.1382 12.8771 60.9549 27.2346 60.9549C27.582 60.9549 27.922 60.9506 28.2549 60.9422C28.1913 62.0004 28.1591 63.0655 28.1591 64.137C28.1591 76.5136 32.4548 88.0451 39.8587 97.7312C39.8524 99.7559 39.8757 101.774 39.8984 103.737V103.737V103.737V103.737C39.9176 105.395 39.9363 107.014 39.9363 108.564C39.9363 129.765 51.7209 146.952 66.2579 146.952C76.6397 146.952 85.6177 138.187 89.9019 125.453C93.8145 125.993 97.8306 126.274 101.925 126.274C103.677 126.274 105.416 126.223 107.138 126.121C111.502 138.518 120.356 147 130.568 147C145.105 147 156.89 129.813 156.89 108.612C156.89 107.62 156.897 106.601 156.908 105.561Z" fill="white"/>
</g>
<path d="M61.8125 98.9684C77.8288 98.9684 90.8125 90.6883 90.8125 80.4744C90.8125 70.2605 77.8288 61.9805 61.8125 61.9805C45.7962 61.9805 32.8125 70.2605 32.8125 80.4744C32.8125 90.6883 45.7962 98.9684 61.8125 98.9684Z" fill="url(#paint1_radial)"/>
<path d="M145.812 98.9684C161.829 98.9684 174.812 90.6883 174.812 80.4744C174.812 70.2605 161.829 61.9805 145.812 61.9805C129.796 61.9805 116.812 70.2605 116.812 80.4744C116.812 90.6883 129.796 98.9684 145.812 98.9684Z" fill="url(#paint2_radial)"/>
<path d="M69.8125 70.9772C79.7536 70.9772 87.8125 62.921 87.8125 52.9831C87.8125 43.0452 79.7536 34.989 69.8125 34.989C59.8714 34.989 51.8125 43.0452 51.8125 52.9831C51.8125 62.921 59.8714 70.9772 69.8125 70.9772Z" fill="#2D3951"/>
<path d="M130.812 70.9772C140.754 70.9772 148.812 62.921 148.812 52.9831C148.812 43.0452 140.754 34.989 130.812 34.989C120.871 34.989 112.812 43.0452 112.812 52.9831C112.812 62.921 120.871 70.9772 130.812 70.9772Z" fill="#2D3951"/>
<path d="M61.8125 45.9857C64.0216 45.9857 65.8125 44.1954 65.8125 41.987C65.8125 39.7786 64.0216 37.9883 61.8125 37.9883C59.6034 37.9883 57.8125 39.7786 57.8125 41.987C57.8125 44.1954 59.6034 45.9857 61.8125 45.9857Z" fill="url(#paint3_radial)"/>
<path d="M124.812 45.9857C127.022 45.9857 128.812 44.1954 128.812 41.987C128.812 39.7786 127.022 37.9883 124.812 37.9883C122.603 37.9883 120.812 39.7786 120.812 41.987C120.812 44.1954 122.603 45.9857 124.812 45.9857Z" fill="url(#paint4_radial)"/>
<path d="M83.8125 66.9788H116.812C116.812 66.9788 113.812 83.9732 98.8125 85.4727C98.8125 85.4727 99.2882 85.5337 98.3125 85.4727C90.3125 84.9729 83.8125 66.9788 83.8125 66.9788Z" fill="#D6B5B8"/>
<mask id="mask0" mask-type="alpha" maskUnits="userSpaceOnUse" x="83" y="66" width="34" height="20">
<path d="M83.8125 66.9788H116.812C116.812 66.9788 113.812 83.9732 98.8125 85.4727C98.8125 85.4727 99.2882 85.5337 98.3125 85.4727C90.3125 84.9729 83.8125 66.9788 83.8125 66.9788Z" fill="white"/>
</mask>
<g mask="url(#mask0)">
<path d="M99.8125 86.9722C105.888 86.9722 110.812 84.5106 110.812 81.474C110.812 78.4375 105.888 75.9758 99.8125 75.9758C93.7374 75.9758 88.8125 78.4375 88.8125 81.474C88.8125 84.5106 93.7374 86.9722 99.8125 86.9722Z" fill="#FF95A0"/>
</g>
<defs>
<filter id="filter0_d" x="0.8125" y="0" width="200" height="153" filterUnits="userSpaceOnUse" color-interpolation-filters="sRGB">
<feFlood flood-opacity="0" result="BackgroundImageFix"/>
<feColorMatrix in="SourceAlpha" type="matrix" values="0 0 0 0 0 0 0 0 0 0 0 0 0 0 0 0 0 0 127 0"/>
<feOffset dy="2"/>
<feGaussianBlur stdDeviation="2"/>
<feColorMatrix type="matrix" values="0 0 0 0 0 0 0 0 0 0 0 0 0 0 0 0 0 0 0.118178 0"/>
<feBlend mode="normal" in2="BackgroundImageFix" result="effect1_dropShadow"/>
<feBlend mode="normal" in="SourceGraphic" in2="effect1_dropShadow" result="shape"/>
</filter>
<radialGradient id="paint0_radial" cx="0" cy="0" r="1" gradientUnits="userSpaceOnUse" gradientTransform="translate(102.25 187) rotate(90) scale(21 278.953)">
<stop stop-opacity="0.266474"/>
<stop offset="1" stop-opacity="0.01"/>
</radialGradient>
<radialGradient id="paint1_radial" cx="0" cy="0" r="1" gradientUnits="userSpaceOnUse" gradientTransform="translate(61.8125 76.448) rotate(90) scale(15.8567 28.4935)">
<stop stop-color="#FBDEE1"/>
<stop offset="1" stop-color="#F6D6D6" stop-opacity="0.01"/>
</radialGradient>
<radialGradient id="paint2_radial" cx="0" cy="0" r="1" gradientUnits="userSpaceOnUse" gradientTransform="translate(145.812 76.448) rotate(90) scale(15.8567 28.4935)">
<stop stop-color="#FBDEE1"/>
<stop offset="1" stop-color="#F6D6D6" stop-opacity="0.01"/>
</radialGradient>
<radialGradient id="paint3_radial" cx="0" cy="0" r="1" gradientUnits="userSpaceOnUse" gradientTransform="translate(61.8125 41.987) rotate(99.4374) scale(4.05355 4.47151)">
<stop stop-color="white"/>
<stop offset="1" stop-color="white" stop-opacity="0.122622"/>
</radialGradient>
<radialGradient id="paint4_radial" cx="0" cy="0" r="1" gradientUnits="userSpaceOnUse" gradientTransform="translate(124.813 41.987) rotate(99.4374) scale(4.05355 4.47151)">
<stop stop-color="white"/>
<stop offset="1" stop-color="white" stop-opacity="0.122622"/>
</radialGradient>
</defs>
</svg>
