<svg width="22" height="23" viewBox="0 0 22 23" fill="none" xmlns="http://www.w3.org/2000/svg">
<path d="M21.7881 10.4819L11.5207 0.214516C11.2347 -0.0715053 10.7653 -0.0715053 10.4793 0.214516L0.211868 10.4819C0.00651899 10.6946 -0.0594859 11.01 0.0578561 11.2813C0.167864 11.56 0.439218 11.736 0.732573 11.736H2.93274V21.2701C2.93274 21.6734 3.26276 22.0035 3.66612 22.0035H7.94177V20.5367V15.403C7.94177 14.9996 8.2718 14.6696 8.67516 14.6696H13.0755C13.4862 14.6696 13.8089 14.9996 13.8089 15.403V20.5367V22.0035H18.3339C18.7372 22.0035 19.0673 21.6734 19.0673 21.2701V11.736H21.2674C21.5608 11.736 21.8321 11.56 21.9421 11.2813C22.0595 11.01 21.9935 10.6946 21.7881 10.4819Z" fill="#86A4EB"/>
</svg>
