<svg width="44" height="86" viewBox="0 0 44 86" fill="none" xmlns="http://www.w3.org/2000/svg">
<path d="M34.2065 74.8969C34.1747 74.9075 31.247 75.8816 28.7059 75.8816C27.3029 75.8816 26.7365 75.5904 26.5565 75.4634C25.667 74.844 24.0153 73.6846 26.8423 68.0516L32.1365 57.4951C35.2759 51.2269 35.7417 45.1652 33.4335 40.4216C31.5488 36.541 27.9329 33.8781 23.2688 32.9252C21.5998 32.5836 19.9006 32.4115 18.197 32.4116C8.40822 32.4116 1.81704 38.1293 1.54175 38.3728C0.593917 39.2081 0.368528 40.5969 1.00352 41.6891C1.6385 42.7813 2.95685 43.2726 4.15175 42.8622C4.17822 42.8516 7.11116 41.8722 9.65234 41.8722C11.0447 41.8722 11.6059 42.1634 11.7806 42.2852C12.6753 42.9099 14.3323 44.0852 11.5106 49.7075L6.21645 60.2693C3.07175 66.5428 2.61116 72.6046 4.91939 77.3428C6.8041 81.2234 10.4147 83.8863 15.0894 84.8393C16.7517 85.1728 18.4565 85.3528 20.14 85.3528C29.9341 85.3528 36.5306 79.6352 36.8059 79.3916C37.7545 78.5582 37.9824 77.1709 37.3502 76.0778C36.7181 74.9847 35.4019 74.4903 34.2065 74.8969Z" fill="#86A4EB"/>
<path d="M29.7647 27.1229C37.0744 27.1229 43 21.1973 43 13.8876C43 6.57799 37.0744 0.652344 29.7647 0.652344C22.4551 0.652344 16.5294 6.57799 16.5294 13.8876C16.5294 21.1973 22.4551 27.1229 29.7647 27.1229Z" fill="#86A4EB"/>
</svg>
