<svg width="115" height="85" viewBox="0 0 115 85" fill="none" xmlns="http://www.w3.org/2000/svg">
<path opacity="0.1" d="M113.105 37.7728C113.084 37.8931 113.064 38.0134 113.041 38.1338C112.305 42.231 111.103 46.1811 109.316 49.8079C109.257 49.9282 109.198 50.0485 109.137 50.1688C107.99 52.4556 106.582 54.6046 104.939 56.5736C104.049 57.6361 103.079 58.6448 101.924 59.3732C100.307 60.3937 98.4155 60.8084 96.5568 61.1479C94.6253 61.5013 92.6689 61.7924 90.7168 62.1147C90.0248 62.2264 89.3372 62.3435 88.654 62.466C86.7681 62.8033 84.8964 63.1933 83.0691 63.71C80.8098 64.3545 78.6178 65.185 76.5549 66.3613C76.3899 66.4544 76.2267 66.55 76.0653 66.6481C75.9035 66.7448 75.7396 66.8436 75.5821 66.9446C75.4247 67.0456 75.2662 67.1455 75.1099 67.2476L74.8688 67.4087C74.7896 67.4603 74.7114 67.5161 74.6332 67.5677C74.4009 67.7245 74.1718 67.89 73.9427 68.049L73.934 68.0554C73.7831 68.1628 73.6333 68.2703 73.4835 68.3777C72.6377 68.9975 71.8104 69.6464 70.9864 70.2974L70.4663 70.7089C70.1978 70.9194 69.9293 71.1296 69.6607 71.3394C69.5033 71.463 69.3437 71.5855 69.1852 71.7079C69.0701 71.7971 68.9561 71.8863 68.8389 71.9743C68.2515 72.4223 67.6565 72.8606 67.0496 73.2796C66.9052 73.3795 66.7586 73.4794 66.6153 73.5772C65.4005 74.3994 64.1083 75.1038 62.7568 75.6806L62.7394 75.6881C62.0737 75.9689 61.3887 76.2026 60.6896 76.3874C60.289 76.4949 59.8883 76.5797 59.4823 76.6463C58.4006 76.8315 57.2964 76.8503 56.2089 76.7022C54.0711 76.4025 52.068 75.4131 49.9357 75.0822C45.5365 74.4065 41.2642 76.5862 37.1244 78.2975C36.1111 78.7172 35.0866 79.1111 34.0508 79.4792C33.3647 79.7241 32.6752 79.9572 31.9826 80.1785C27.7626 81.5291 23.4142 82.4495 19.0052 82.9255C17.2051 83.1199 15.3279 83.2123 13.4953 83.0726C12.8032 83.0223 12.1145 82.9337 11.4324 82.8073C9.11228 82.3776 6.94631 81.4655 5.20159 79.7993C3.75218 78.4361 2.72945 76.6539 1.94992 74.7943C1.63651 74.0473 1.36038 73.2832 1.12153 72.5018C0.746092 71.2772 0.464103 70.0265 0.277937 68.7601C0.235594 68.4744 0.197595 68.1875 0.169367 67.9007C0.11291 67.4087 0.0709298 66.9145 0.0434254 66.4182C-0.108586 63.7804 0.151791 61.1352 0.815359 58.576C1.55472 55.741 2.78808 53.0264 3.33093 50.1645C3.35373 50.0442 3.37436 49.9239 3.39498 49.8036C3.46736 49.3739 3.52237 48.9363 3.56001 48.4908C3.83361 44.9908 2.77505 41.565 1.93906 38.1338C1.90974 38.0134 1.88043 37.8931 1.8522 37.7728C1.76173 37.3925 1.67596 37.0119 1.59489 36.6309C0.820787 33.002 0.609075 29.1185 1.29632 25.4971C1.31804 25.3768 1.34301 25.2554 1.36798 25.1362C1.83157 22.8931 2.65019 20.7596 3.90418 18.8592C5.19073 16.9083 6.88008 15.2851 8.68126 13.8585C9.56068 13.1638 10.4701 12.5139 11.4096 11.9087C12.0849 11.4747 12.7725 11.064 13.4725 10.6765C19.1279 7.56112 25.5802 6.03888 31.9598 6.37942C32.2978 6.39661 32.6351 6.41953 32.9716 6.44817C33.3249 6.47825 33.677 6.51406 34.028 6.5556C38.1352 7.02506 42.1317 8.18849 46.1043 9.4615C47.4353 9.89121 48.7632 10.3209 50.091 10.7506C50.6816 10.9411 51.2719 11.1291 51.8617 11.3146C54.7551 12.2181 57.6963 13.0334 60.6646 13.6479C61.3529 13.7912 62.0406 13.9219 62.7274 14.04C65.1154 14.4633 67.5321 14.7097 69.9571 14.777C70.8981 14.7999 71.839 14.7902 72.7799 14.748C73.2555 14.7265 73.7314 14.695 74.2076 14.6534C79.127 14.2366 83.8704 12.839 88.6333 11.5262C89.3217 11.3361 90.0111 11.147 90.6962 10.9644C91.6016 10.7238 92.5082 10.4907 93.418 10.2758C99.0832 8.92974 104.132 9.70321 109.398 12.4791C110.593 13.1097 111.787 13.8703 112.525 15.0477C113.264 16.2251 113.443 17.6829 113.579 19.0859C113.773 21.0819 113.905 23.1058 113.948 25.1383C113.948 25.2586 113.948 25.379 113.955 25.4993C114.051 29.6148 113.798 33.7615 113.105 37.7728Z" fill="#C449AB"/>
<path opacity="0.1" fill-rule="evenodd" clip-rule="evenodd" d="M90.6504 25.5269H113.892L113.892 25.4043L113.891 25.3296C113.89 25.2749 113.888 25.2202 113.885 25.1655H90.6504V10.9692C89.9603 11.1523 89.2715 11.3418 88.589 11.5322V25.1655H63.3108L63.2467 25.0967L63.3433 24.9888L72.7451 14.7554C71.8048 14.7988 70.8646 14.8081 69.9243 14.7847L62.6945 22.6499V14.0498C62.0045 13.9312 61.3174 13.8003 60.6332 13.6572V22.2539L50.063 10.7554C48.7361 10.3247 47.4093 9.88672 46.0792 9.46387L60.4465 25.0967L60.3826 25.1655H34.0117V6.55127C33.8948 6.53809 33.7777 6.52588 33.6606 6.51367L33.457 6.49219C33.2902 6.4751 33.1232 6.45898 32.9562 6.44385C32.7698 6.42773 32.5831 6.41357 32.3962 6.40137C32.246 6.39111 32.0956 6.38232 31.9451 6.375V25.1655H13.4712V10.6831C12.7704 11.0703 12.0833 11.4819 11.4099 11.917V25.1655H1.36267C1.33765 25.2847 1.31274 25.4062 1.29102 25.5269H11.4012V37.8218H1.85083C1.87903 37.9424 1.90833 38.063 1.93762 38.1831H11.4056V49.8755H3.38928C3.36865 49.9961 3.34802 50.1167 3.3252 50.2373H11.4056V82.9297C12.0872 83.0566 12.7754 83.145 13.4669 83.1958V50.2373H31.9451V80.2969C32.3435 80.1685 32.7406 80.0366 33.1365 79.9014C33.429 79.8018 33.7207 79.7002 34.0117 79.5967V50.2373H60.6289V76.501C61.3274 76.3159 62.012 76.082 62.6771 75.8008L62.6945 75.793V50.2373L62.6913 62.9487L62.6702 62.9434C62.6538 62.939 62.6378 62.9346 62.6218 62.9346L62.5654 62.9229L62.1543 62.9443L61.9828 62.9141L61.8635 62.8945L61.8103 62.8862C61.7268 62.873 61.6443 62.8604 61.563 62.8496H61.5424L61.4014 62.8325L61.2733 62.8174L60.989 62.7896L60.8134 62.7764L60.7168 62.77H60.6321V50.2363H55.199C55.1697 50.1284 55.1393 50.021 55.1089 49.9136C55.1056 49.9004 55.098 49.8887 55.098 49.876L34.0128 49.8755V38.1831H60.6288V49.8755L60.631 38.4458C60.7692 38.416 60.9043 38.3735 61.0347 38.3188L61.09 38.2954L61.1508 38.2676C61.1879 38.2495 61.2241 38.23 61.2592 38.208C61.3436 38.1592 61.4255 38.1064 61.5044 38.0488L61.5404 38.021L61.6129 37.9648C61.7111 37.8896 61.8069 37.8105 61.9025 37.7314L62.0469 37.6123L62.0863 37.5811C62.1091 37.5625 62.1317 37.5439 62.1553 37.5259L62.2096 37.4829L62.2823 37.4307C62.3142 37.4072 62.3452 37.3843 62.3777 37.3623L62.4198 37.3354L62.4352 37.3257L62.4917 37.2896L62.5112 37.2773H62.5177L62.6088 37.2271L62.6946 37.186L62.6945 25.856L63.0579 25.5269H88.5825L88.5836 37.8252H62.6945L65.8788 37.8262H65.8842L65.9091 37.8423C65.9408 37.8599 65.9637 37.8755 65.9927 37.8945L66.0176 37.9111L66.0754 37.9507L66.1401 37.9961L66.1696 38.0171L66.2096 38.0479L66.2639 38.0889C66.3051 38.1187 66.3452 38.1514 66.3843 38.1836L88.5825 38.1831L88.5836 49.8755H75.4758L75.5247 50.2368L88.5825 50.2373V62.5537C88.8702 62.502 89.158 62.4512 89.4459 62.4019L89.8168 62.3389L90.2805 62.2612L90.6438 62.2017V50.2373H109.051C109.112 50.1167 109.172 49.9961 109.23 49.8755H90.6504V38.1831H112.959L112.983 38.0557L113.023 37.8218H90.6504V25.5269ZM71.2415 50.1836V50.2104V50.2373L71.2501 50.2368V50.21V50.1831L71.2816 49.8843V49.8755L71.2812 49.8799L71.2816 49.8843L71.2415 50.1836ZM62.6218 62.9346C62.6383 62.939 62.6547 62.9434 62.6702 62.9434L62.6461 62.938C62.6379 62.936 62.6299 62.9346 62.6218 62.9346ZM74.8292 49.8755H75.1058V50.0356V50.2368H74.5862L74.8292 49.8755ZM31.9449 25.5269H13.4723L13.4712 37.8218H31.9449V25.5269ZM13.4723 49.8755V38.1831H31.9449V49.8755H13.4723ZM60.6288 25.5269H34.0128L34.0117 37.8218H60.6288V25.5269Z" fill="#C449AB"/>
<path opacity="0.1" d="M22.3534 17.0612H22.5183C22.4037 16.9954 22.33 16.877 22.322 16.7459C22.322 16.4963 22.6301 16.293 23.0065 16.293H27.7964C28.1728 16.293 28.481 16.4963 28.481 16.7459C28.481 16.9945 28.1728 17.1989 27.7964 17.1989H27.6369C27.751 17.2651 27.8242 17.3834 27.8322 17.5142C27.8322 17.7294 27.6087 17.9058 27.3093 17.9542H28.6882C29.0636 17.9542 29.3717 18.1576 29.3717 18.4072C29.3717 18.6568 29.0636 18.8591 28.6882 18.8591H23.8929C23.5175 18.8591 23.2094 18.6558 23.2094 18.4072C23.2094 18.192 23.4329 18.0156 23.7323 17.9671H22.3534C21.978 17.9671 21.6699 17.7638 21.6699 17.5142C21.6699 17.2646 21.9759 17.0612 22.3534 17.0612Z" fill="#C449AB"/>
<path opacity="0.1" d="M74.2683 21.3727H74.4289C74.3141 21.3066 74.2404 21.1878 74.2325 21.0564C74.2325 20.8078 74.5406 20.6045 74.9171 20.6045H79.707C80.0834 20.6045 80.3915 20.8078 80.3915 21.0564C80.3915 21.306 80.0834 21.5094 79.707 21.5094H79.5475C79.6617 21.5759 79.7349 21.6945 79.7428 21.8257C79.7428 22.0409 79.5193 22.2163 79.2198 22.2647H80.5988C80.9741 22.2647 81.2822 22.4691 81.2822 22.7177C81.2822 22.9662 80.9741 23.1706 80.5988 23.1706H75.81C75.4346 23.1706 75.1265 22.9673 75.1265 22.7177C75.1265 22.5025 75.35 22.326 75.6494 22.2787H74.2683C73.893 22.2787 73.5848 22.0742 73.5848 21.8257C73.5848 21.5772 73.8951 21.3727 74.2683 21.3727Z" fill="#C449AB"/>
<path opacity="0.1" d="M15.0054 39.822H15.166C15.0517 39.7555 14.9785 39.6369 14.9707 39.5057C14.9707 39.2572 15.2777 39.0527 15.6542 39.0527H20.444C20.8205 39.0527 21.1286 39.2572 21.1286 39.5057C21.1286 39.7553 20.8205 39.9587 20.444 39.9587H20.2845C20.3988 40.0252 20.472 40.1439 20.4798 40.275C20.4798 40.4902 20.2563 40.6656 19.9569 40.714H21.3358C21.7123 40.714 22.0193 40.9174 22.0193 41.167C22.0193 41.4166 21.7123 41.6199 21.3358 41.6199H16.5449C16.1695 41.6199 15.8614 41.4155 15.8614 41.167C15.8614 40.9518 16.086 40.7753 16.3843 40.7269H15.0054C14.63 40.7269 14.3219 40.5236 14.3219 40.275C14.3219 40.0265 14.63 39.822 15.0054 39.822Z" fill="#C449AB"/>
<path d="M70.4017 70.8135C70.1334 71.0244 69.865 71.2349 69.5967 71.4451C69.4394 71.5688 69.2799 71.6915 69.1215 71.8141C69.0065 71.9034 68.8926 71.9927 68.7754 72.0809C68.1885 72.5296 67.594 72.9686 66.9875 73.3882C66.8432 73.4883 66.6967 73.5884 66.5535 73.6863C65.3395 74.5098 64.0483 75.2153 62.6978 75.793L62.6804 75.8005V70.8135H70.4017Z" fill="#65617D"/>
<path d="M82.4745 51.2142L82.596 47.4968C82.5233 47.4409 82.4496 47.3892 82.379 47.3376C82.409 46.2292 82.3451 45.1203 82.1881 44.0226C81.6977 40.3052 78.5135 40.2245 77.6152 40.9916C77.4962 41.0935 77.3663 41.1823 77.2279 41.2563C77.3093 40.7259 77.4102 40.1944 77.4829 39.6693C77.8756 36.8374 77.2659 33.6515 75.0505 31.8213C74.1229 31.0563 72.9892 30.5861 71.9705 29.9459C70.1456 28.8044 68.7038 27.1183 66.8584 26.0069C65.013 24.8954 62.4211 24.479 60.8111 25.9079C60.1873 26.4609 59.7848 27.2281 59.1447 27.7618C57.9513 28.7559 56.0907 28.8216 55.0492 29.932C54.9971 29.9879 54.9472 30.0449 54.8995 30.1052C54.0315 31.2091 54.2691 32.7746 54.5458 34.1443C54.8788 35.7926 54.7411 37.1139 56.1666 37.5873C56.1721 37.653 56.1764 37.7186 56.184 37.7832C56.4187 39.83 57.5527 41.6696 59.2825 42.81L59.0514 42.8918C58.4352 43.1069 57.8808 43.3157 57.526 43.4588C56.2241 43.9849 53.4837 44.6703 53.4837 44.6703C53.4837 44.6703 53.4186 45.445 53.4305 46.5876C52.517 47.5721 50.9927 49.3023 50.5446 50.3276C49.8937 51.8232 46.2159 56.1066 45.2362 56.7532C44.2565 57.3999 43.1944 58.167 43.1944 58.167C43.1944 58.167 41.643 59.0159 40.9085 59.0966C40.3997 59.1526 38.8255 58.8535 38.8255 58.8535C38.8255 58.8535 32.5385 51.2142 32.9464 57.076C33.3543 62.9378 38.3763 63.1368 38.3763 63.1368L43.4396 63.0561C43.4396 63.0561 46.1757 63.4198 47.4006 62.4106C48.4464 61.5498 53.8666 56.8275 55.6079 54.6852C55.648 54.7294 55.6882 54.7724 55.7305 54.8144C55.7305 54.8144 56.4238 53.9256 56.5062 54.8144C56.5887 55.7031 56.056 56.1055 56.3424 56.4283C56.6288 56.7511 57.4859 57.883 57.526 58.3273C57.5662 58.7717 56.3836 60.5868 58.3831 61.964C58.4146 61.9856 58.4482 62.006 58.4851 62.0264C58.842 62.8323 59.9768 63.621 59.9768 63.621L66.1011 63.5403L77.6564 64.429C77.6564 64.429 78.0004 64.1288 78.4658 63.6382C79.0874 64.2042 79.9499 64.6894 80.922 64.3914C80.922 64.3914 82.3107 62.7355 82.3519 61.6445C82.3519 61.6445 81.4536 59.3409 81.05 58.6544C80.6464 57.968 81.3364 56.4724 81.3364 56.4724C81.3364 56.4724 81.8257 55.0177 82.1121 55.0177C82.3986 55.0177 82.1935 54.0494 82.1935 54.0494C81.9737 53.728 81.9278 53.3198 82.0709 52.9583C82.3107 52.3461 82.4745 51.2142 82.4745 51.2142Z" fill="url(#paint0_linear)"/>
<path d="M75.5474 50.3771L75.1134 50.8807L73.3602 52.9056L71.07 53.0433L67.4041 53.2671C67.4041 53.2671 62.4613 47.3602 63.3899 46.0744C63.7273 45.6107 63.7827 44.9985 63.7154 44.4207C63.7067 44.341 63.6948 44.2614 63.6807 44.1829C63.5696 43.5715 63.3754 42.9779 63.1035 42.4183L63.225 42.3635L63.3031 42.3279L67.6254 40.3719L68.6951 39.8877C68.7484 40.1801 68.8472 40.4625 68.988 40.7248C69.0087 40.7657 69.0314 40.8066 69.0553 40.8453C70.5297 43.2662 75.2577 41.7351 75.2577 41.7351L75.5474 50.3771Z" fill="#EE8E9E"/>
<path d="M81.9386 47.3548C81.906 48.8202 81.6652 49.4529 81.6652 49.4529L75.5474 50.3771L75.3185 48.8019L74.4126 42.5819L75.2632 41.7383C75.9519 41.8856 76.6705 41.7075 77.2084 41.2563C78.0991 40.4924 81.2594 40.5731 81.7455 44.2689C81.8882 45.2913 81.9528 46.3228 81.9386 47.3548Z" fill="#EE8E9E"/>
<path d="M80.4902 64.5192C80.4902 64.5192 81.867 62.872 81.9082 61.7874L80.5304 59.4967L79.3153 58.2056L77.0457 62.5503C77.0457 62.5503 78.545 65.1218 80.4902 64.5192Z" fill="#DFE5EE"/>
<path opacity="0.1" d="M80.4902 64.5192C80.4902 64.5192 81.867 62.872 81.9082 61.7874L80.5304 59.4967L79.3153 58.2056L77.0457 62.5503C77.0457 62.5503 78.545 65.1218 80.4902 64.5192Z" fill="black"/>
<path d="M69.1215 71.8141C69.0065 71.9034 68.8925 71.9927 68.7754 72.0809C68.1884 72.5296 67.5939 72.9685 66.9874 73.3882C66.8431 73.4882 66.6967 73.5883 66.5535 73.6862H60.6288H34.0117H31.945L21.7057 73.3225L13.4712 73.2537L11.4099 73.1461L1.12499 72.6081C0.748206 71.3807 0.464971 70.1269 0.27768 68.8573C0.235369 68.5711 0.197397 68.2839 0.169189 67.9966L11.4056 68.6142L13.4669 68.7293L31.9407 69.7515L34.0074 69.8655L60.6245 71.3396L62.6728 71.4536H62.6901L69.1215 71.8141Z" fill="#D48A9B"/>
<path d="M83.0019 63.7994C80.7442 64.4449 78.5537 65.2767 76.4924 66.4548C76.3286 66.5484 76.1669 66.6442 76.0031 66.7421C75.8393 66.84 75.6777 66.9379 75.5203 67.0391C75.363 67.1402 75.2046 67.2403 75.0484 67.3425L74.8076 67.5039L74.5721 67.6631C74.34 67.8213 74.111 67.9859 73.8821 68.1451L73.8735 68.1516C73.7227 68.2592 73.5729 68.3668 73.4232 68.4744C72.5781 69.0952 71.7514 69.7451 70.9279 70.3971C70.7544 70.5348 70.5804 70.6722 70.4061 70.8092L69.6033 71.4408C69.446 71.5645 69.2865 71.6872 69.1281 71.8098C69.0131 71.8991 68.8992 71.9884 68.782 72.0767L62.7065 71.7894H62.6892L60.6409 71.6947L34.0119 70.4434L31.9451 70.3455L13.4713 69.475L11.41 69.3771L0.277797 68.8574C0.235485 68.5712 0.197514 68.2839 0.169306 67.9967C0.112891 67.5039 0.0709413 67.0089 0.043457 66.5118L11.4089 62.5308L13.4702 61.8067L15.3428 61.1504L18.7548 61.3268L26.641 61.7282L31.9484 62.0047L34.0151 62.1123L35.3354 62.1812L35.6511 62.1984L46.7627 62.774L46.8799 62.7815L51.8379 63.0376H51.8944H51.9269L52.4227 63.0624L54.113 63.1506L56.2264 63.2582L56.9229 63.2948L57.0542 63.3023L58.0393 63.3529L58.3202 63.3668L59.2609 63.4163L59.6352 63.4368H59.6471H59.7252L60.6051 63.483L61.9677 63.5541H61.9742L62.3973 63.5756H62.4429L62.6957 63.5896L63.3162 63.6218L63.8587 63.6498H63.8641L64.4727 63.681H64.4825L64.9436 63.7058L65.2973 63.7241L66.5525 63.7897L66.7782 63.8015H66.8563L66.9648 63.808L67.3326 63.8274L67.4975 63.836L68.7777 63.9016H68.8948L70.7847 63.8855H70.7978L77.9831 63.8274H78.1209H78.2662H78.6937L81.0067 63.8091H81.3517L83.0019 63.7994Z" fill="#EFC6CD"/>
<path d="M34.5077 63.9468L35.176 67.4726L53.346 67.2015C53.346 67.2015 54.7129 67.5932 54.6826 66.5086C54.6826 66.5086 57.448 63.9166 71.4552 66.9304L66.0773 62.7417L51.3768 63.525L34.3308 63.0731L34.5077 63.9468Z" fill="#C449AB"/>
<path d="M34.8418 63.1031L35.4797 66.9303C35.4797 66.9303 51.1024 66.4784 53.5586 66.9002L51.7023 63.4044C51.7023 63.4044 42.256 62.5307 34.8418 63.1031Z" fill="white"/>
<path opacity="0.1" d="M34.8418 63.1031L35.4797 66.9303C35.4797 66.9303 51.1024 66.4784 53.5586 66.9002L51.7023 63.4044C51.7023 63.4044 42.256 62.5307 34.8418 63.1031Z" fill="black"/>
<path d="M35.075 63.0895L35.7042 66.6488C35.7042 66.6488 51.1283 66.2291 53.5585 66.6208L51.7283 63.3704C51.7283 63.3704 42.3959 62.5569 35.075 63.0895Z" fill="white"/>
<path opacity="0.1" d="M35.3582 63.199L35.9711 66.528C35.9711 66.528 51.0567 66.1352 53.4381 66.5021L51.648 63.4604C51.648 63.4604 42.5196 62.6965 35.3582 63.199Z" fill="black"/>
<path d="M35.4796 63.0775L36.0958 66.413C36.0958 66.413 51.1815 66.0203 53.5628 66.3872L51.7684 63.3422C51.7684 63.3422 42.6411 62.5794 35.4796 63.0775Z" fill="white"/>
<path d="M24.8064 54.0254C24.8064 54.0254 25.5962 55.0486 24.443 56.5948C23.2897 58.1409 22.3371 59.4449 22.7223 60.409C22.7223 60.409 24.4581 57.5384 25.8794 57.5039C27.3006 57.4695 26.3654 55.7512 24.8064 54.0254Z" fill="#C449AB"/>
<path opacity="0.1" d="M24.8063 54.0254C24.8757 54.1246 24.9302 54.2334 24.968 54.3482C26.3502 55.9621 27.0868 57.4684 25.7578 57.5007C24.5199 57.5351 23.0358 59.7301 22.6799 60.2853C22.6922 60.3269 22.7063 60.3688 22.7222 60.4111C22.7222 60.4111 24.4581 57.5405 25.8793 57.5061C27.3005 57.4717 26.3654 55.7512 24.8063 54.0254Z" fill="black"/>
<path d="M26.2691 55.3307C26.2691 55.69 26.2291 55.9827 26.1806 55.9827C26.1321 55.9827 26.092 55.69 26.092 55.3307C26.092 54.9713 26.1416 55.1392 26.1901 55.1392C26.2386 55.1392 26.2691 54.9702 26.2691 55.3307Z" fill="#FFD037"/>
<path d="M26.7776 55.7549C26.4586 55.9246 26.1809 56.0269 26.157 55.9836C26.1332 55.9404 26.374 55.7728 26.6908 55.5999C27.0076 55.4271 26.8839 55.5536 26.9078 55.5999C26.9316 55.6463 27.0966 55.5862 26.7776 55.7549Z" fill="#FFD037"/>
<path d="M20.6371 54.0254C20.6371 54.0254 19.8473 55.0486 21.0016 56.5948C22.156 58.1409 23.1063 59.4449 22.7223 60.409C22.7223 60.409 20.981 57.5384 19.5641 57.5039C18.1472 57.4695 19.0781 55.7512 20.6371 54.0254Z" fill="#C449AB"/>
<path opacity="0.1" d="M20.6371 54.0254C20.5683 54.125 20.5139 54.2336 20.4755 54.3482C19.0933 55.9621 18.3566 57.4684 19.6856 57.5007C20.9235 57.5351 22.4088 59.7301 22.7646 60.2853C22.753 60.3269 22.7389 60.3688 22.7223 60.4111C22.7223 60.4111 20.981 57.5405 19.5641 57.5061C18.1472 57.4717 19.0781 55.7512 20.6371 54.0254Z" fill="black"/>
<path d="M19.1692 55.3307C19.1692 55.69 19.2092 55.9827 19.2577 55.9827C19.3062 55.9827 19.3463 55.69 19.3463 55.3307C19.3463 54.9713 19.2967 55.1392 19.2482 55.1392C19.1998 55.1392 19.1692 54.9702 19.1692 55.3307Z" fill="#FFD037"/>
<path d="M18.6658 55.7549C18.9847 55.9246 19.2635 56.0269 19.2874 55.9836C19.3113 55.9404 19.0704 55.7728 18.7536 55.5999C18.4368 55.4271 18.5605 55.5536 18.5367 55.5999C18.5128 55.6463 18.3468 55.5862 18.6658 55.7549Z" fill="#FFD037"/>
<path d="M26.9664 59.0285L26.9273 59.3513L26.872 59.8021L26.8492 59.9904L26.7939 60.4423L26.77 60.6306L26.7136 61.0825L26.0822 66.2169C26.0258 66.6753 25.2707 67.0325 24.3594 67.0325H21.0808C20.1695 67.0325 19.4154 66.6753 19.359 66.2169L18.7265 61.0825L18.6712 60.6306L18.6484 60.4423L18.592 59.9904L18.5692 59.8021L18.5139 59.3513L18.4738 59.0285C18.4423 58.7692 18.8502 58.5508 19.3666 58.5508H26.0779C26.5932 58.5508 27.0022 58.7692 26.9664 59.0285Z" fill="#65617D"/>
<path d="M26.9306 59.3481L26.8753 59.7909H18.5692L18.5139 59.3481H26.9306Z" fill="#9D9CB5"/>
<path d="M26.8525 59.9883L26.7972 60.431H18.6485L18.592 59.9883H26.8525Z" fill="#9D9CB5"/>
<path d="M26.7733 60.6289L26.718 61.0706H18.7266L18.6713 60.6289H26.7733Z" fill="#9D9CB5"/>
<path d="M36.979 58.6134C36.979 58.6134 34.8721 56.6046 34.9535 59.2159C35.0348 61.8272 36.979 58.6134 36.979 58.6134Z" fill="#EE8E9E"/>
<path d="M55.8987 54.0329C55.852 54.2352 55.6253 54.5709 55.2716 54.9916C53.4446 57.1736 48.2469 61.7087 47.2281 62.5501C46.013 63.5551 43.2986 63.1957 43.2986 63.1957L38.2755 63.2764C38.2755 63.2764 33.2925 63.0752 32.8868 57.2511C32.481 51.427 38.7203 59.0188 38.7203 59.0188C38.7203 59.0188 40.2826 59.3158 40.787 59.2599C41.5161 59.1802 43.0556 58.3367 43.0556 58.3367C43.0556 58.3367 44.109 57.5728 45.0811 56.9304C46.0532 56.2881 49.6995 52.0284 50.3483 50.5414C50.7595 49.5978 52.0842 48.0549 52.9987 47.0543C53.5238 46.4787 53.9133 46.0859 53.9133 46.0859C53.9133 46.0859 56.1819 52.787 55.8987 54.0329Z" fill="#EE8E9E"/>
<path opacity="0.1" d="M55.8987 54.0333C55.8521 54.2356 55.6253 54.5713 55.2717 54.992C53.4273 53.1295 53.0422 49.4132 52.9988 47.0504C53.5239 46.4748 53.9134 46.082 53.9134 46.082C53.9134 46.082 56.1819 52.7873 55.8987 54.0333Z" fill="black"/>
<path opacity="0.1" d="M75.1123 50.8804L73.3602 52.9053L71.07 53.043L67.4041 53.2668C67.4041 53.2668 62.4613 47.3599 63.3899 46.0741C63.7273 45.6104 63.7827 44.9981 63.7154 44.4204C63.7067 44.3407 63.6948 44.2611 63.6807 44.1826C63.5696 43.5712 63.3754 42.9776 63.1035 42.418L63.225 42.3631L63.3031 42.3276C63.496 42.8606 63.6292 43.413 63.7002 43.9749C63.7121 44.0513 63.723 44.1309 63.7338 44.2127C63.7718 44.5032 63.8065 44.826 63.8423 45.1811C64.1244 48.4326 66.1868 49.6559 67.1177 50.0454C67.417 50.1706 67.7096 50.311 67.9943 50.4661C68.8898 50.9559 69.9226 51.1411 70.9344 50.9933C73.2322 50.6942 75.1058 49.0383 75.1058 49.0383L75.1156 50.6684L75.1123 50.8804Z" fill="black"/>
<path d="M75.1828 63.5155C75.1828 63.5155 60.1124 63.4746 58.1259 62.1093C56.1395 60.7439 57.3166 58.9352 57.2754 58.493C57.2341 58.0508 56.3847 56.9264 56.1015 56.6036C55.8183 56.2808 56.3445 55.8806 56.2631 54.9972C56.1818 54.1139 55.494 54.9972 55.494 54.9972C52.6569 52.1438 53.2645 44.9124 53.2645 44.9124C53.2645 44.9124 55.9767 44.2302 57.2786 43.7062C57.6312 43.5642 58.1802 43.3619 58.7975 43.1435L59.0264 43.0617C60.618 42.4968 62.51 41.8588 62.51 41.8588C62.51 41.8588 62.8735 41.6038 63.2391 42.3667C63.4062 42.7174 63.5743 43.2823 63.7089 44.185C63.7208 44.2614 63.7316 44.341 63.7425 44.4228C63.7805 44.7133 63.8152 45.0361 63.851 45.3912C64.1331 48.6427 66.1955 49.866 67.1263 50.2555C67.4256 50.3807 67.7182 50.5211 68.0029 50.6762C68.8985 51.166 69.9312 51.3512 70.943 51.2034C73.2408 50.9043 75.1145 49.2484 75.1145 49.2484L75.1242 50.8785L75.1524 55.7762L75.1828 63.5155Z" fill="#DFE5EE"/>
<path d="M74.5341 57.1676L74.2911 58.6943C74.2911 58.6943 68.2948 60.1802 65.946 60.6224C63.5972 61.0647 58.5318 60.5019 58.1672 61.466C57.8027 62.43 59.7067 63.7567 59.7067 63.7567L65.7822 63.676L77.2475 64.5604C77.2475 64.5604 81.6229 60.743 80.2049 58.0907C78.7869 55.4385 74.5341 57.1676 74.5341 57.1676Z" fill="#EE8E9E"/>
<path opacity="0.1" d="M62.1781 45.1133C62.1781 45.1133 59.4225 47.3631 59.9497 48.4487C60.477 49.5344 62.1781 45.1133 62.1781 45.1133Z" fill="black"/>
<path opacity="0.1" d="M58.7748 49.1709C58.7748 49.1709 55.979 53.9524 56.1417 54.3139C56.3045 54.6755 57.0737 55.9612 57.0324 54.9972C56.9912 54.0331 58.7748 49.1709 58.7748 49.1709Z" fill="black"/>
<path opacity="0.1" d="M59.9096 50.0156C59.9096 50.0156 59.2586 52.9885 58.6131 54.2344C57.9676 55.4804 59.9096 50.0156 59.9096 50.0156Z" fill="black"/>
<path opacity="0.1" d="M69.0607 40.8482C67.9737 42.825 65.9884 44.1571 63.7338 44.4225H63.7208C61.9729 44.6261 60.2119 44.1689 58.7888 43.1421C60.4162 42.559 62.5014 41.8575 62.5014 41.8575C62.5014 41.8575 62.8648 41.6025 63.2304 42.3653L68.7005 39.8906C68.762 40.2286 68.884 40.5529 69.0607 40.8482Z" fill="black"/>
<path d="M69.9157 37.2784C69.9177 38.4884 69.5997 39.6778 68.9935 40.7279C68.7039 41.2286 68.353 41.6919 67.9487 42.1072C66.8209 43.2718 65.3181 44.0086 63.7003 44.1903H63.6861C63.4276 44.2196 63.1675 44.2344 62.9072 44.2344C59.342 44.2345 56.3449 41.5802 55.9432 38.067C55.913 37.8067 55.8982 37.5448 55.8987 37.2827C55.8987 33.4439 59.0365 30.332 62.9072 30.332C66.7779 30.332 69.9157 33.4439 69.9157 37.2827V37.2784Z" fill="#EE8E9E"/>
<path opacity="0.1" d="M74.4539 50.4307L75.1048 49.4623C75.1048 49.4623 78.6698 45.2435 82.1567 47.9356L82.0352 51.6325C82.0352 51.6325 81.8725 52.7569 81.6294 53.354C81.4877 53.7138 81.5332 54.1195 81.7509 54.4397C81.7509 54.4397 81.9538 55.408 81.6707 55.408C81.3875 55.408 80.9004 56.8541 80.9004 56.8541C80.9004 56.8541 80.2115 58.3411 80.6172 59.0243C81.023 59.7075 81.9137 61.9971 81.9137 61.9971C81.9137 61.9971 80.4957 61.1536 80.09 59.7473C80.09 59.7473 76.6465 57.0951 73.9722 58.779L74.4539 50.4307Z" fill="black"/>
<path opacity="0.1" d="M81.9386 47.3546C81.906 48.82 81.6652 49.4527 81.6652 49.4527L75.5474 50.3769L75.3185 48.8018C76.1191 47.9733 79.031 45.3393 81.9386 47.3546Z" fill="black"/>
<path d="M74.4539 50.2158L75.1048 49.2475C75.1048 49.2475 78.6698 45.0287 82.1567 47.7207L82.0352 51.4177C82.0352 51.4177 81.8725 52.5421 81.6294 53.1392C81.4877 53.4989 81.5332 53.9047 81.7509 54.2248C81.7509 54.2248 81.9538 55.1932 81.6707 55.1932C81.3875 55.1932 80.9004 56.6393 80.9004 56.6393C80.9004 56.6393 80.2115 58.1262 80.6172 58.8095C81.023 59.4927 81.9137 61.7823 81.9137 61.7823C81.9137 61.7823 80.4957 60.9388 80.09 59.5325C80.09 59.5325 76.6465 56.8803 73.9722 58.5641L74.4539 50.2158Z" fill="#DFE5EE"/>
<path opacity="0.1" d="M80.206 47.4839C80.206 47.4839 74.3323 51.0603 74.6155 54.1967C74.6155 54.1967 77.8973 48.4479 80.206 47.4839Z" fill="black"/>
<path opacity="0.1" d="M75.1113 50.8818L75.1395 55.7795C74.0285 55.829 72.9816 55.6859 72.1538 54.9725C71.5777 54.4755 71.2425 53.789 71.0689 53.0466C70.9398 52.4484 70.8923 51.8357 70.9279 51.225C70.9273 51.2189 70.9273 51.2128 70.9279 51.2067C70.9962 49.8543 71.3098 48.5018 71.1448 47.1579C70.9799 45.8141 70.1587 44.396 68.8177 44.113C68.553 44.056 68.2557 44.0355 68.067 43.8429C67.8587 43.6277 67.8684 43.2931 67.8912 42.9951L67.9303 42.4926C67.94 42.3635 67.9444 42.2355 67.9444 42.1074C67.9427 39.7516 66.2611 37.726 63.9302 37.2721L63.8868 37.2646C63.5093 37.1893 63.1165 37.115 62.739 37.2011C62.0208 37.3657 61.5564 38.0565 60.8947 38.3846C59.6253 39.013 57.5087 38.3255 56.1797 38.1092C56.0929 38.0952 56.0104 38.0791 55.9312 38.0608C55.901 37.8004 55.8862 37.5385 55.8867 37.2764C55.8881 34.3588 57.7265 31.7527 60.4896 30.7512C63.2527 29.7498 66.3524 30.5663 68.2502 32.7956C70.1481 35.0248 70.4402 38.1922 68.9815 40.7259C69.0022 40.7668 69.0249 40.8077 69.0488 40.8464C70.5232 43.2673 75.2512 41.7362 75.2512 41.7362L75.5355 50.375L75.1113 50.8818Z" fill="black"/>
<path d="M61.1497 38.2652C61.8071 37.936 62.2715 37.2452 62.994 37.0817C63.3705 36.9956 63.7632 37.0698 64.1429 37.1441L64.1863 37.1527C66.6597 37.638 68.3762 39.8812 68.182 42.3742L68.143 42.8767C68.1191 43.1737 68.1093 43.5104 68.3198 43.7235C68.5075 43.9161 68.8048 43.9387 69.0695 43.9925C70.4104 44.2765 71.2317 45.6871 71.3966 47.0385C71.5615 48.3899 71.2425 49.7467 71.1796 51.1045C71.1167 52.4623 71.3684 53.9611 72.4034 54.8531C74.0307 56.2518 76.5043 55.4556 78.6579 55.3276C77.7053 55.3276 76.9915 54.3528 76.9394 53.4103C76.8873 52.4677 77.3104 51.5704 77.7151 50.7204C78.1198 49.8704 78.5255 48.9558 78.4355 48.0154C78.3118 46.7243 77.2855 45.6903 76.8927 44.4476C76.4349 43.0015 76.8765 41.4489 77.0837 39.9458C77.4732 37.1311 76.8667 33.9625 74.6698 32.143C73.7498 31.3823 72.6247 30.9143 71.6136 30.2773C69.8018 29.1379 68.373 27.467 66.5416 26.3587C64.7103 25.2505 62.1391 24.8395 60.541 26.2598C59.9226 26.8096 59.5234 27.5724 58.8876 28.1029C57.6454 29.1411 55.6709 29.1605 54.6749 30.4344C53.8179 31.5308 54.05 33.0877 54.3245 34.4488C54.6901 36.2639 54.484 37.6767 56.4401 37.9994C57.7637 38.2071 59.8792 38.8946 61.1497 38.2652Z" fill="#603556"/>
<path opacity="0.1" d="M77.267 54.4603C75.6993 54.6508 74.1457 54.7487 73.0044 53.7674C71.9694 52.8755 71.7144 51.3777 71.7806 50.0188C71.8468 48.6599 72.1636 47.302 71.9976 45.9517C71.8316 44.6014 71.0114 43.1908 69.6705 42.9068C69.4057 42.8508 69.1096 42.8304 68.9208 42.6378C68.7114 42.4226 68.7201 42.0869 68.7439 41.7899L68.783 41.2875C68.9771 38.7947 67.2605 36.5519 64.7873 36.067L64.7439 36.0584C64.3642 35.9841 63.9714 35.9099 63.595 35.996C62.8768 36.1606 62.4124 36.8567 61.7506 37.1795C60.4802 37.8089 58.3657 37.1214 57.0346 36.9051C55.0817 36.5877 55.2857 35.1729 54.919 33.3545C54.7139 32.3388 54.5328 31.2134 54.8105 30.2515C54.7584 30.3063 54.7085 30.3591 54.6608 30.4247C53.8037 31.5211 54.0359 33.078 54.3104 34.4391C54.676 36.2542 54.4698 37.6669 56.4259 37.9897C57.756 38.2049 59.8716 38.8935 61.142 38.2641C61.7995 37.9348 62.2638 37.2441 62.9863 37.0805C63.3628 36.9944 63.7555 37.0687 64.1353 37.1429L64.1787 37.1515C66.652 37.6369 68.3685 39.88 68.1744 42.3731L68.1353 42.8756C68.1114 43.1725 68.1017 43.5093 68.3122 43.7224C68.4998 43.9149 68.7971 43.9375 69.0618 43.9913C70.4028 44.2754 71.224 45.686 71.3889 47.0374C71.5538 48.3887 71.236 49.7455 71.172 51.1034C71.108 52.4612 71.3607 53.96 72.3957 54.852C74.0231 56.2507 76.4967 55.4545 78.6502 55.3265C78.0655 55.3297 77.574 54.9617 77.267 54.4603Z" fill="black"/>
<path d="M33.2371 58.0494L39.9256 55.5747C40.2548 55.4528 40.6214 55.6185 40.7447 55.9449C40.8676 56.2714 40.7006 56.6349 40.3715 56.7572L33.683 59.2319L32.2488 59.0899L33.2371 58.0494Z" fill="#5C5C8E"/>
<path opacity="0.1" d="M40.543 55.7429C40.6658 56.0698 40.4982 56.4335 40.1687 56.5553L33.4759 59.0386L32.3996 58.931L32.2445 59.0945L33.6788 59.2366L40.3672 56.7619C40.6963 56.6396 40.8633 56.2761 40.7404 55.9495C40.6911 55.8188 40.5996 55.7079 40.48 55.6343C40.5041 55.6687 40.5251 55.705 40.543 55.7429Z" fill="white"/>
<path d="M33.2382 58.0498L33.683 59.2323L32.507 59.115L32.2499 59.0892L32.6014 58.719L33.2382 58.0498Z" fill="#EFC8C4"/>
<path d="M32.5904 58.7158C32.6171 58.7358 32.64 58.7604 32.6579 58.7886C32.6797 58.823 32.6797 58.8669 32.6579 58.9013C32.6399 58.9199 32.6189 58.9353 32.5957 58.9467C32.5429 58.982 32.5088 59.0394 32.503 59.1027L32.2521 59.0784L32.5904 58.7158Z" fill="#727A9C"/>
<path d="M54.2377 65.6017C54.2377 65.6017 60.0311 64.3956 69.7518 65.9245L65.9438 63.1528L59.0156 61.7466L54.114 63.0377L54.2377 65.6017Z" fill="white"/>
<path opacity="0.1" d="M54.2377 65.6017C54.2377 65.6017 60.0311 64.3956 69.7518 65.9245L65.9438 63.1528L59.0156 61.7466L54.114 63.0377L54.2377 65.6017Z" fill="black"/>
<path d="M53.5585 66.9056C53.5585 66.9056 56.4758 59.0792 71.4595 66.9304L66.0816 63.4981C66.0816 63.4981 53.1983 59.9679 51.7098 64.0361L53.5585 66.9056Z" fill="white"/>
<path opacity="0.1" d="M53.5585 66.9004C53.5585 66.9004 56.4759 58.5327 71.4595 67.051L66.0816 63.3282C66.0816 63.3282 53.194 59.1062 51.7023 63.5251L53.5585 66.9004Z" fill="black"/>
<path d="M53.5585 66.9038C53.5585 66.9038 56.4758 58.4124 71.4595 66.9307L66.0816 63.2079C66.0816 63.2079 53.1983 59.1064 51.7098 63.5307L53.5585 66.9038Z" fill="white"/>
<path opacity="0.1" d="M53.5586 66.9058C53.5586 66.9058 56.4759 57.4687 71.4595 67.0511L66.0773 62.8624C66.0773 62.8624 53.1941 58.5586 51.7056 63.5252L53.5586 66.9058Z" fill="black"/>
<path d="M53.5586 66.9003C53.5586 66.9003 56.4759 57.3481 71.4595 66.9305L66.0773 62.7418C66.0773 62.7418 53.1941 58.438 51.7056 63.4046L53.5586 66.9003Z" fill="white"/>
<path opacity="0.1" d="M98.5106 66.001C98.5106 66.001 94.9141 69.8217 98.1515 71.6777C98.1515 71.6777 98.5746 72.1834 99.1789 71.9187C99.1789 71.9187 98.9749 71.739 99.3839 71.3926C99.5285 71.2682 99.6578 71.1274 99.769 70.9729C99.9199 70.7644 99.9984 70.5129 99.9925 70.2564C99.9925 70.2564 100.463 68.7403 98.9673 66.7724C98.9673 66.7724 98.8317 66.114 98.7167 66.0419L98.4433 66.9596C98.4433 66.9596 99.13 67.1329 99.3882 67.6515C99.3882 67.6515 98.4834 66.9467 98.3956 67.0941C98.3782 67.1243 98.273 67.588 98.273 67.588C98.273 67.588 99.4664 67.8936 99.8396 68.707C99.8396 68.707 98.8751 67.7246 98.2317 67.7634L98.1146 68.4714C98.1146 68.4714 99.3915 68.7339 99.8504 69.6441C99.8504 69.6441 98.8067 68.651 98.0972 68.6284L98.0766 69.3396C98.0766 69.3396 99.3166 69.6194 99.6953 70.379C99.6953 70.379 98.3728 69.3536 98.0831 69.5032C98.0831 69.5032 98.1037 70.1584 98.1916 70.3295C98.1916 70.3295 99.0769 70.5447 99.257 71.0117C99.257 71.0117 98.3001 70.4188 98.2176 70.5092C98.2176 70.5092 98.4748 71.3549 98.8328 71.7153C98.8328 71.7153 98.2643 71.2215 98.0864 70.5555C98.0864 70.5555 97.8455 70.9719 97.9063 71.3807C97.9063 71.3807 97.5515 70.9912 98.0267 70.35C98.0267 70.35 97.8531 69.6829 97.8965 69.5774C97.8965 69.5774 97.3378 70.1445 97.1946 70.6534C97.1946 70.6534 97.0861 70.0164 97.8954 69.3934V68.6769C97.8954 68.6769 97.1165 69.3881 96.9559 69.8281C96.9559 69.8281 96.945 69.161 97.9117 68.4972L98.0202 67.801C98.0202 67.801 97.302 68.3627 97.0166 68.8146C97.0166 68.8146 97.1403 68.1927 98.0582 67.6031L98.1851 67.1469C98.1851 67.1469 97.6687 67.5665 97.5341 67.6999C97.3996 67.8333 97.3486 67.8075 97.3486 67.8075C97.5599 67.4467 97.8679 67.151 98.2382 66.9532C98.2382 66.9532 98.5702 66.0257 98.5106 66.001Z" fill="#C449AB"/>
<path opacity="0.1" d="M114.588 3.83252C114.588 3.83252 109.783 5.98442 112.048 8.93144C112.048 8.93144 112.242 9.56087 112.902 9.54796C112.902 9.54796 112.784 9.30372 113.296 9.14018C113.478 9.0812 113.652 9.00064 113.814 8.90024C114.035 8.76559 114.205 8.56356 114.299 8.32461C114.299 8.32461 115.323 7.10663 114.708 4.7191C114.708 4.7191 114.839 4.05954 114.761 3.94872L114.152 4.69113C114.152 4.69113 114.718 5.1129 114.755 5.69068C114.755 5.69068 114.195 4.69435 114.056 4.79765C114.028 4.81809 113.751 5.20543 113.751 5.20543C113.751 5.20543 114.728 5.94353 114.761 6.83765C114.761 6.83765 114.254 5.56157 113.644 5.35068L113.261 5.95967C113.261 5.95967 114.337 6.69024 114.409 7.70594C114.409 7.70594 113.832 6.39113 113.186 6.09847L112.89 6.74404C112.89 6.74404 113.926 7.47676 113.975 8.32246C113.975 8.32246 113.154 6.86992 112.828 6.8979C112.828 6.8979 112.593 7.50904 112.611 7.70163C112.611 7.70163 113.342 8.23961 113.329 8.73885C113.329 8.73885 112.678 7.82644 112.57 7.87809C112.57 7.87809 112.478 8.75606 112.669 9.22625C112.669 9.22625 112.335 8.55271 112.431 7.87056C112.431 7.87056 112.046 8.16322 111.944 8.56347C111.944 8.56347 111.768 8.06746 112.456 7.65752C112.456 7.65752 112.555 6.97644 112.636 6.89575C112.636 6.89575 111.899 7.20454 111.572 7.61556C111.572 7.61556 111.718 6.98613 112.709 6.72144L112.991 6.06296C112.991 6.06296 111.996 6.42018 111.676 6.76448C111.676 6.76448 111.925 6.14473 113.075 5.90372L113.445 5.30334C113.445 5.30334 112.564 5.54758 112.125 5.85423C112.125 5.85423 112.482 5.32917 113.558 5.13549L113.852 4.76322C113.852 4.76322 113.212 4.95258 113.033 5.0236C112.854 5.09461 112.816 5.05265 112.816 5.05265C113.153 4.7996 113.555 4.64462 113.976 4.60505C113.976 4.60505 114.627 3.87556 114.588 3.83252Z" fill="#C449AB"/>
<path opacity="0.1" d="M68.9816 5.16455C68.9816 5.16455 61.7626 7.20885 65.2723 10.2516C65.2723 10.2516 65.5837 10.8972 66.5829 10.8972C66.5829 10.8972 66.3963 10.6476 67.1687 10.4959C67.4347 10.4428 67.6953 10.3665 67.9477 10.2678C68.2453 10.1644 68.4985 9.96364 68.6659 9.6986C68.6659 9.6986 70.1848 8.49354 69.1877 6.06404C69.1877 6.06404 69.3689 5.40126 69.2474 5.28721L68.3448 6.02101C68.3448 6.02101 69.2127 6.46322 69.2854 7.04746C69.2854 7.04746 68.4099 6.02639 68.2005 6.12645C68.1582 6.14689 67.7492 6.52993 67.7492 6.52993C67.7492 6.52993 69.255 7.30246 69.3233 8.20734C69.3233 8.20734 68.5205 6.90436 67.5875 6.67518L67.0233 7.27987C67.0233 7.27987 68.6724 8.04702 68.808 9.07563C68.808 9.07563 67.8989 7.73177 66.9138 7.41866L66.4798 8.06423C66.4798 8.06423 68.0681 8.83246 68.1723 9.68892C68.1723 9.68892 66.8888 8.19873 66.3963 8.21702C66.3963 8.21702 66.0567 8.83031 66.0871 9.02506C66.0871 9.02506 67.2089 9.59316 67.2034 10.0924C67.2034 10.0924 66.1901 9.15202 66.0231 9.20151C66.0231 9.20151 65.9081 10.087 66.2097 10.5669C66.2097 10.5669 65.6867 9.87721 65.8126 9.19075C65.8126 9.19075 65.2387 9.47588 65.0944 9.87721C65.0944 9.87721 64.8145 9.37259 65.8451 8.97664C65.8451 8.97664 65.9764 8.29018 66.0968 8.21056C66.0968 8.21056 64.9902 8.50322 64.5053 8.90993C64.5053 8.90993 64.7092 8.27727 66.2021 8.03626L66.6122 7.37778C66.6122 7.37778 65.115 7.71347 64.6398 8.0524C64.6398 8.0524 65.0011 7.43265 66.7369 7.21746L67.2794 6.62031C67.2794 6.62031 65.9515 6.84303 65.294 7.14215C65.294 7.14215 65.8202 6.62031 67.4443 6.45354L67.8783 6.08556C67.8783 6.08556 66.9138 6.25987 66.6447 6.32658C66.3757 6.39329 66.3192 6.35025 66.3192 6.35025C66.8614 6.08989 67.453 5.94616 68.0551 5.92847C68.0551 5.92847 69.0445 5.20974 68.9816 5.16455Z" fill="#C449AB"/>
<path opacity="0.1" d="M90.2793 84.9377C90.2793 84.9377 93.9137 81.1514 90.6948 79.2642C90.6948 79.2642 90.276 78.7542 89.6696 79.0124C89.6696 79.0124 89.8724 79.1943 89.4602 79.5375C89.3144 79.6604 89.1837 79.7998 89.0707 79.9528C88.9175 80.1597 88.8367 80.4106 88.8407 80.6672C88.8407 80.6672 88.3536 82.179 89.8312 84.1609C89.8312 84.1609 89.9603 84.8204 90.0742 84.8946L90.3574 83.979C90.3574 83.979 89.6717 83.7993 89.419 83.2786C89.419 83.2786 90.3162 83.9909 90.4051 83.8445C90.4236 83.8144 90.5332 83.3528 90.5332 83.3528C90.5332 83.3528 89.3398 83.03 88.9774 82.2188C88.9774 82.2188 89.9321 83.2108 90.5766 83.1774L90.7002 82.4705C90.7002 82.4705 89.4266 82.1962 88.9741 81.287C88.9741 81.287 90.0081 82.2898 90.7176 82.3199L90.7447 81.6076C90.7447 81.6076 89.5068 81.3107 89.1315 80.5467C89.1315 80.5467 90.4442 81.5861 90.7349 81.4387C90.7349 81.4387 90.7208 80.7845 90.6265 80.6124C90.6265 80.6124 89.7433 80.3821 89.5676 79.9195C89.5676 79.9195 90.5191 80.522 90.6015 80.4316C90.6015 80.4316 90.3531 79.5838 89.9983 79.2201C89.9983 79.2201 90.5624 79.7193 90.7339 80.3864C90.7339 80.3864 90.9791 79.9722 90.9216 79.5633C90.9216 79.5633 91.2731 79.9571 90.7914 80.593C90.7914 80.593 90.9584 81.2622 90.914 81.3666C90.914 81.3666 91.4781 80.805 91.6257 80.3025C91.6257 80.3025 91.7341 80.9405 90.9129 81.5549L90.902 82.2715C90.902 82.2715 91.6875 81.5678 91.8524 81.1288C91.8524 81.1288 91.8524 81.797 90.8836 82.4512L90.7751 83.1462C90.7751 83.1462 91.4987 82.591 91.7884 82.1424C91.7884 82.1424 91.6582 82.7621 90.7349 83.3431L90.6037 83.7983C90.6037 83.7983 91.1244 83.384 91.2633 83.2517C91.4022 83.1193 91.4499 83.1441 91.4499 83.1441C91.2353 83.5031 90.9243 83.7959 90.5516 83.9898C90.5516 83.9898 90.225 84.9119 90.2793 84.9377Z" fill="#C449AB"/>
<path opacity="0.1" d="M54.8323 0.133174C54.8323 0.133174 55.4518 5.32355 58.9712 4.07115C58.9712 4.07115 59.6341 4.07653 59.8207 3.44817C59.8207 3.44817 59.5494 3.48691 59.5473 2.95324C59.5448 2.76339 59.5196 2.57451 59.4724 2.39052C59.41 2.14159 59.2671 1.91977 59.0656 1.75893C59.0656 1.75893 58.202 0.422604 55.7165 0.291338C55.7165 0.291338 55.1219 -0.0314464 54.9918 0.00943968L55.5223 0.80887C55.5223 0.80887 56.0984 0.400009 56.6647 0.539883C56.6647 0.539883 55.5385 0.770136 55.596 0.931528C55.6069 0.964883 55.8955 1.34254 55.8955 1.34254C55.8955 1.34254 56.9099 0.632414 57.7778 0.874503C57.7778 0.874503 56.3989 0.969187 56.0127 1.48241L56.4759 2.029C56.4759 2.029 57.5022 1.23064 58.5014 1.46843C58.5014 1.46843 57.0628 1.61906 56.5866 2.1409L57.1269 2.61647C57.1269 2.61647 58.1423 1.85684 58.9712 2.06128C58.9712 2.06128 57.3265 2.40127 57.2549 2.71653C57.2549 2.71653 57.7724 3.12324 57.9633 3.16628C57.9633 3.16628 58.7054 2.63798 59.1762 2.79938C59.1762 2.79938 58.1022 3.14153 58.1185 3.26203C58.1185 3.26203 58.9354 3.61279 59.4442 3.57406C59.4442 3.57406 58.6967 3.68165 58.0696 3.39115C58.0696 3.39115 58.2345 3.84197 58.5893 4.06039C58.5893 4.06039 58.0599 4.07653 57.8722 3.30722C57.8722 3.30722 57.2473 3.00811 57.1941 2.90805C57.1941 2.90805 57.2701 3.69672 57.5662 4.13033C57.5662 4.13033 57.0043 3.80754 57.0477 2.78646L56.5052 2.32058C56.5052 2.32058 56.5497 3.36963 56.784 3.77634C56.784 3.77634 56.2633 3.35349 56.3761 2.19254L55.9107 1.6621C55.9107 1.6621 55.8792 2.56805 56.0419 3.0759C56.0419 3.0759 55.6438 2.58096 55.7827 1.50501L55.5125 1.11444C55.5125 1.11444 55.5027 1.77615 55.5125 1.96767C55.5223 2.15919 55.4756 2.17748 55.4756 2.17748C55.333 1.78324 55.3037 1.35746 55.391 0.947668C55.391 0.947668 54.8865 0.107351 54.8323 0.133174Z" fill="#C449AB"/>
<path opacity="0.1" d="M81.1368 73.1656C81.1368 73.1656 76.0573 71.7668 75.8945 75.4724C75.8945 75.4724 75.6385 76.0793 76.1538 76.4881C76.1538 76.4881 76.22 76.2256 76.7191 76.4246C76.8971 76.4945 77.0828 76.5432 77.2724 76.5699C77.5287 76.6065 77.7901 76.5589 78.0166 76.4343C78.0166 76.4343 79.5897 76.1481 80.6573 73.923C80.6573 73.923 81.1835 73.5002 81.1997 73.3646L80.2526 73.5486C80.2526 73.5486 80.4153 74.2329 80.0703 74.6999C80.0703 74.6999 80.2873 73.5787 80.1105 73.5701C80.0747 73.5701 79.6125 73.6896 79.6125 73.6896C79.6125 73.6896 79.8902 74.8796 79.3359 75.5843C79.3359 75.5843 79.7698 74.2824 79.4368 73.7337L78.7489 73.9586C78.7489 73.9586 79.1048 75.2024 78.5037 76.0287C78.5037 76.0287 78.9095 74.6525 78.6014 74.0177L77.9569 74.3287C77.9569 74.3287 78.2824 75.5488 77.7758 76.2331C77.7758 76.2331 78.0817 74.5955 77.8137 74.4094C77.8137 74.4094 77.2387 74.7322 77.127 74.8893C77.127 74.8893 77.344 75.7705 77.0098 76.1417C77.0098 76.1417 77.0966 75.0259 76.9784 74.9958C76.9784 74.9958 76.3404 75.6123 76.1842 76.0943C76.1842 76.0943 76.3632 75.3659 76.8764 74.9022C76.8764 74.9022 76.3925 74.8828 76.0551 75.1249C76.0551 75.1249 76.2395 74.6332 77.0315 74.7548C77.0315 74.7548 77.5479 74.2932 77.6618 74.2835C77.6618 74.2835 76.9024 74.0532 76.3795 74.1608C76.3795 74.1608 76.8981 73.7692 77.83 74.1953L78.4723 73.8725C78.4723 73.8725 77.4763 73.5163 77.0087 73.5777C77.0087 73.5777 77.6 73.2549 78.6361 73.8025L79.3066 73.5755C79.3066 73.5755 78.4734 73.2043 77.9374 73.1613C77.9374 73.1613 78.5504 72.9837 79.5018 73.5185L79.9684 73.4184C79.9684 73.4184 79.3543 73.158 79.171 73.0956C78.9876 73.0332 78.9887 72.988 78.9887 72.988C79.4089 73.0071 79.8156 73.1412 80.1636 73.3754C80.1636 73.3754 81.1401 73.2248 81.1368 73.1656Z" fill="#C449AB"/>
<defs>
<linearGradient id="paint0_linear" x1="82.5967" y1="64.4796" x2="82.5967" y2="24.9912" gradientUnits="userSpaceOnUse">
<stop stop-color="#808080" stop-opacity="0.25"/>
<stop offset="0.54" stop-color="#808080" stop-opacity="0.12"/>
<stop offset="1" stop-color="#808080" stop-opacity="0.1"/>
</linearGradient>
</defs>
</svg>
